G04 This is an RS-274x file exported by *
G04 gerbv version 2.7.0 *
G04 More information is available about gerbv at *
G04 http://gerbv.geda-project.org/ *
G04 --End of header info--*
%MOIN*%
%FSLAX36Y36*%
%IPPOS*%
G04 --Define apertures--*
%ADD10C,0.0020*%
%ADD11R,0.0571X0.0571*%
G04 --Start main section--*
G54D10*
G01X6244094Y-3627559D02*
G01X4395669Y-3627559D01*
G01X4395669Y-3627992D02*
G01X4395669Y-5477992D01*
G01X4395669Y-5477992D02*
G01X6244094Y-5477992D01*
G01X6244094Y-5477992D02*
G01X6244094Y-3627992D01*
G54D11*
G01X5470441Y-5002992D03*
G01X5570441Y-5002992D03*
G01X5670441Y-5002992D03*
G01X5770441Y-5002992D03*
G01X6170441Y-3702992D03*
G01X6170441Y-5402992D03*
G01X5770441Y-5302992D03*
G01X5770441Y-5402992D03*
G01X5870441Y-5402992D03*
G01X5870441Y-5302992D03*
G01X5870441Y-5202992D03*
G01X5770441Y-5202992D03*
G01X6170441Y-5302992D03*
G01X6170441Y-5202992D03*
G01X6170441Y-5102992D03*
G01X6170441Y-5002992D03*
G01X6170441Y-4902992D03*
G01X6170441Y-4802992D03*
G01X6170441Y-4702992D03*
G01X6170441Y-4602992D03*
G01X6170441Y-4502992D03*
G01X6170441Y-4402992D03*
G01X6170441Y-4302992D03*
G01X6070441Y-4402992D03*
G01X6070441Y-4502992D03*
G01X6070441Y-4602992D03*
G01X6070441Y-4702992D03*
G01X6070441Y-4902992D03*
G01X6070441Y-5002992D03*
G01X6070441Y-5102992D03*
G01X6070441Y-5302992D03*
G01X6070441Y-5402992D03*
G01X5970441Y-5402992D03*
G01X5970441Y-5202992D03*
G01X5970441Y-5002992D03*
G01X5970441Y-4902992D03*
G01X5970441Y-4802992D03*
G01X5970441Y-4602992D03*
G01X5970441Y-4302992D03*
G01X6170441Y-4202992D03*
G01X6070441Y-4202992D03*
G01X5970441Y-4202992D03*
G01X6170441Y-4102992D03*
G01X6070441Y-4102992D03*
G01X5970441Y-4102992D03*
G01X6170441Y-4002992D03*
G01X6070441Y-4002992D03*
G01X5970441Y-4002992D03*
G01X6170441Y-3902992D03*
G01X6170441Y-3802992D03*
G01X6070441Y-3802992D03*
G01X5970441Y-3902992D03*
G01X5970441Y-3802992D03*
G01X5870441Y-3902992D03*
G01X5870441Y-3802992D03*
G01X4570441Y-5302992D03*
G01X4570441Y-5402992D03*
G01X4670441Y-5402992D03*
G01X4670441Y-5302992D03*
G01X4670441Y-5202992D03*
G01X4670441Y-5102992D03*
G01X4570441Y-5102992D03*
G01X4670441Y-5002992D03*
G01X4570441Y-5002992D03*
G01X6070441Y-3702992D03*
G01X5970441Y-3702992D03*
G01X5870441Y-3702992D03*
G01X5770441Y-3702992D03*
G01X4470441Y-5302992D03*
G01X4470441Y-5202992D03*
G01X4470441Y-5102992D03*
G01X4470441Y-5002992D03*
G01X4770441Y-5202992D03*
G01X4970441Y-5202992D03*
G01X5270441Y-5202992D03*
G01X5470441Y-5202992D03*
G01X5470441Y-5302992D03*
G01X5370441Y-5302992D03*
G01X5270441Y-5302992D03*
G01X5070441Y-5302992D03*
G01X4970441Y-5302992D03*
G01X4870441Y-5302992D03*
G01X4770441Y-5302992D03*
G01X4670441Y-4002992D03*
G01X4670441Y-4102992D03*
G01X4670441Y-4202992D03*
G01X4670441Y-4302992D03*
G01X4670441Y-4602992D03*
G01X4670441Y-4702992D03*
G01X4470441Y-4902992D03*
G01X4670441Y-3902992D03*
G01X4770441Y-3902992D03*
G01X4970441Y-3902992D03*
G01X5070441Y-3902992D03*
G01X5270441Y-3902992D03*
G01X5470441Y-3902992D03*
G01X4470441Y-3902992D03*
G01X5670441Y-3902992D03*
G01X4670441Y-4902992D03*
G01X4770441Y-5402992D03*
G01X4870441Y-5402992D03*
G01X5370441Y-5402992D03*
G01X5470441Y-5402992D03*
G01X5670441Y-5402992D03*
G01X4570441Y-4902992D03*
G01X4570441Y-4002992D03*
G01X4570441Y-4102992D03*
G01X4570441Y-4202992D03*
G01X4570441Y-4402992D03*
G01X4570441Y-4502992D03*
G01X4570441Y-4602992D03*
G01X4570441Y-4702992D03*
G01X5670441Y-5302992D03*
G01X5670441Y-5202992D03*
G01X5570441Y-3802992D03*
G01X5470441Y-3802992D03*
G01X5370441Y-3802992D03*
G01X5170441Y-3802992D03*
G01X5070441Y-3802992D03*
G01X4970441Y-3802992D03*
G01X4770441Y-3802992D03*
G01X4670441Y-3802992D03*
G01X4570441Y-3802992D03*
G01X4470441Y-3802992D03*
G01X4470441Y-4002992D03*
G01X4470441Y-4102992D03*
G01X4470441Y-4202992D03*
G01X4470441Y-4302992D03*
G01X4470441Y-4402992D03*
G01X4470441Y-4502992D03*
G01X4470441Y-4602992D03*
G01X4470441Y-4702992D03*
G01X4470441Y-4802992D03*
G01X5670441Y-3802992D03*
G01X5670441Y-3702992D03*
G01X5570441Y-3702992D03*
G01X5470441Y-3702992D03*
G01X5370441Y-3702992D03*
G01X5270441Y-3702992D03*
G01X5170441Y-3702992D03*
G01X5070441Y-3702992D03*
G01X4970441Y-3702992D03*
G01X4870441Y-3702992D03*
G01X4770441Y-3702992D03*
G01X4670441Y-3702992D03*
G01X4570441Y-3702992D03*
G01X4470441Y-3702992D03*
M02*
