G04 This is an RS-274x file exported by *
G04 gerbv version 2.7.0 *
G04 More information is available about gerbv at *
G04 http://gerbv.geda-project.org/ *
G04 --End of header info--*
%MOIN*%
%FSLAX36Y36*%
%IPPOS*%
G04 --Define apertures--*
%ADD10C,0.0020*%
%ADD11R,0.0571X0.0571*%
G04 --Start main section--*
G54D10*
G01X6244094Y-3627559D02*
G01X4395669Y-3627559D01*
G01X4395669Y-3627992D02*
G01X4395669Y-5477992D01*
G01X4395669Y-5477992D02*
G01X6244094Y-5477992D01*
G01X6244094Y-5477992D02*
G01X6244094Y-3627992D01*
G54D11*
G01X5470441Y-5002992D03*
G01X5570441Y-5002992D03*
G01X5670441Y-5002992D03*
G01X5770441Y-5002992D03*
G01X6170441Y-3702992D03*
G01X6170441Y-5402992D03*
G01X5770441Y-5302992D03*
G01X5770441Y-5402992D03*
G01X5870441Y-5402992D03*
G01X5870441Y-5302992D03*
G01X5870441Y-5202992D03*
G01X5770441Y-5202992D03*
G01X6170441Y-5302992D03*
G01X6170441Y-5202992D03*
G01X6170441Y-5102992D03*
G01X6170441Y-5002992D03*
G01X6170441Y-4902992D03*
G01X6170441Y-4802992D03*
G01X6170441Y-4702992D03*
G01X6170441Y-4602992D03*
G01X6170441Y-4502992D03*
G01X6170441Y-4402992D03*
G01X6170441Y-4302992D03*
G01X6070441Y-4402992D03*
G01X6070441Y-4502992D03*
G01X6070441Y-4602992D03*
G01X6070441Y-4702992D03*
G01X6070441Y-4902992D03*
G01X6070441Y-5002992D03*
G01X6070441Y-5102992D03*
G01X6070441Y-5302992D03*
G01X6070441Y-5402992D03*
G01X5970441Y-5402992D03*
G01X5970441Y-5202992D03*
G01X5970441Y-5002992D03*
G01X5970441Y-4902992D03*
G01X5970441Y-4802992D03*
G01X5970441Y-4602992D03*
G01X5970441Y-4302992D03*
G01X6170441Y-4202992D03*
G01X6070441Y-4202992D03*
G01X5970441Y-4202992D03*
G01X6170441Y-4102992D03*
G01X6070441Y-4102992D03*
G01X5970441Y-4102992D03*
G01X6170441Y-4002992D03*
G01X6070441Y-4002992D03*
G01X5970441Y-4002992D03*
G01X6170441Y-3902992D03*
G01X6170441Y-3802992D03*
G01X6070441Y-3802992D03*
G01X5970441Y-3902992D03*
G01X5970441Y-3802992D03*
G01X5870441Y-3902992D03*
G01X5870441Y-3802992D03*
G01X4570441Y-5302992D03*
G01X4570441Y-5402992D03*
G01X4670441Y-5402992D03*
G01X4670441Y-5302992D03*
G01X4670441Y-5202992D03*
G01X4670441Y-5102992D03*
G01X4570441Y-5102992D03*
G01X4670441Y-5002992D03*
G01X4570441Y-5002992D03*
G01X6070441Y-3702992D03*
G01X5970441Y-3702992D03*
G01X5870441Y-3702992D03*
G01X5770441Y-3702992D03*
G01X4470441Y-5302992D03*
G01X4470441Y-5202992D03*
G01X4470441Y-5102992D03*
G01X4470441Y-5002992D03*
G01X4770441Y-5202992D03*
G01X4970441Y-5202992D03*
G01X5270441Y-5202992D03*
G01X5470441Y-5202992D03*
G01X5470441Y-5302992D03*
G01X5370441Y-5302992D03*
G01X5270441Y-5302992D03*
G01X5070441Y-5302992D03*
G01X4970441Y-5302992D03*
G01X4870441Y-5302992D03*
G01X4770441Y-5302992D03*
G01X4670441Y-4002992D03*
G01X4670441Y-4102992D03*
G01X4670441Y-4202992D03*
G01X4670441Y-4302992D03*
G01X4670441Y-4602992D03*
G01X4670441Y-4702992D03*
G01X4470441Y-4902992D03*
G01X4670441Y-3902992D03*
G01X4770441Y-3902992D03*
G01X4970441Y-3902992D03*
G01X5070441Y-3902992D03*
G01X5270441Y-3902992D03*
G01X5470441Y-3902992D03*
G01X4470441Y-3902992D03*
G01X5670441Y-3902992D03*
G01X4670441Y-4902992D03*
G01X4770441Y-5402992D03*
G01X4870441Y-5402992D03*
G01X5370441Y-5402992D03*
G01X5470441Y-5402992D03*
G01X5670441Y-5402992D03*
G01X4570441Y-4902992D03*
G01X4570441Y-4002992D03*
G01X4570441Y-4102992D03*
G01X4570441Y-4202992D03*
G01X4570441Y-4402992D03*
G01X4570441Y-4502992D03*
G01X4570441Y-4602992D03*
G01X4570441Y-4702992D03*
G01X5670441Y-5302992D03*
G01X5670441Y-5202992D03*
G01X5570441Y-3802992D03*
G01X5470441Y-3802992D03*
G01X5370441Y-3802992D03*
G01X5170441Y-3802992D03*
G01X5070441Y-3802992D03*
G01X4970441Y-3802992D03*
G01X4770441Y-3802992D03*
G01X4670441Y-3802992D03*
G01X4570441Y-3802992D03*
G01X4470441Y-3802992D03*
G01X4470441Y-4002992D03*
G01X4470441Y-4102992D03*
G01X4470441Y-4202992D03*
G01X4470441Y-4302992D03*
G01X4470441Y-4402992D03*
G01X4470441Y-4502992D03*
G01X4470441Y-4602992D03*
G01X4470441Y-4702992D03*
G01X4470441Y-4802992D03*
G01X5670441Y-3802992D03*
G01X5670441Y-3702992D03*
G01X5570441Y-3702992D03*
G01X5470441Y-3702992D03*
G01X5370441Y-3702992D03*
G01X5270441Y-3702992D03*
G01X5170441Y-3702992D03*
G01X5070441Y-3702992D03*
G01X4970441Y-3702992D03*
G01X4870441Y-3702992D03*
G01X4770441Y-3702992D03*
G01X4670441Y-3702992D03*
G01X4570441Y-3702992D03*
G01X4470441Y-3702992D03*
G01X2165354Y0000000D02*
G54D10*
G01X8409448Y-3627559D02*
G01X6561023Y-3627559D01*
G01X6561023Y-3627992D02*
G01X6561023Y-5477992D01*
G01X6561023Y-5477992D02*
G01X8409448Y-5477992D01*
G01X8409448Y-5477992D02*
G01X8409448Y-3627992D01*
G54D11*
G01X7635795Y-5002992D03*
G01X7735795Y-5002992D03*
G01X7835795Y-5002992D03*
G01X7935795Y-5002992D03*
G01X8335795Y-3702992D03*
G01X8335795Y-5402992D03*
G01X7935795Y-5302992D03*
G01X7935795Y-5402992D03*
G01X8035795Y-5402992D03*
G01X8035795Y-5302992D03*
G01X8035795Y-5202992D03*
G01X7935795Y-5202992D03*
G01X8335795Y-5302992D03*
G01X8335795Y-5202992D03*
G01X8335795Y-5102992D03*
G01X8335795Y-5002992D03*
G01X8335795Y-4902992D03*
G01X8335795Y-4802992D03*
G01X8335795Y-4702992D03*
G01X8335795Y-4602992D03*
G01X8335795Y-4502992D03*
G01X8335795Y-4402992D03*
G01X8335795Y-4302992D03*
G01X8235795Y-4402992D03*
G01X8235795Y-4502992D03*
G01X8235795Y-4602992D03*
G01X8235795Y-4702992D03*
G01X8235795Y-4902992D03*
G01X8235795Y-5002992D03*
G01X8235795Y-5102992D03*
G01X8235795Y-5302992D03*
G01X8235795Y-5402992D03*
G01X8135795Y-5402992D03*
G01X8135795Y-5202992D03*
G01X8135795Y-5002992D03*
G01X8135795Y-4902992D03*
G01X8135795Y-4802992D03*
G01X8135795Y-4602992D03*
G01X8135795Y-4302992D03*
G01X8335795Y-4202992D03*
G01X8235795Y-4202992D03*
G01X8135795Y-4202992D03*
G01X8335795Y-4102992D03*
G01X8235795Y-4102992D03*
G01X8135795Y-4102992D03*
G01X8335795Y-4002992D03*
G01X8235795Y-4002992D03*
G01X8135795Y-4002992D03*
G01X8335795Y-3902992D03*
G01X8335795Y-3802992D03*
G01X8235795Y-3802992D03*
G01X8135795Y-3902992D03*
G01X8135795Y-3802992D03*
G01X8035795Y-3902992D03*
G01X8035795Y-3802992D03*
G01X6735795Y-5302992D03*
G01X6735795Y-5402992D03*
G01X6835795Y-5402992D03*
G01X6835795Y-5302992D03*
G01X6835795Y-5202992D03*
G01X6835795Y-5102992D03*
G01X6735795Y-5102992D03*
G01X6835795Y-5002992D03*
G01X6735795Y-5002992D03*
G01X8235795Y-3702992D03*
G01X8135795Y-3702992D03*
G01X8035795Y-3702992D03*
G01X7935795Y-3702992D03*
G01X6635795Y-5302992D03*
G01X6635795Y-5202992D03*
G01X6635795Y-5102992D03*
G01X6635795Y-5002992D03*
G01X6935795Y-5202992D03*
G01X7135795Y-5202992D03*
G01X7435795Y-5202992D03*
G01X7635795Y-5202992D03*
G01X7635795Y-5302992D03*
G01X7535795Y-5302992D03*
G01X7435795Y-5302992D03*
G01X7235795Y-5302992D03*
G01X7135795Y-5302992D03*
G01X7035795Y-5302992D03*
G01X6935795Y-5302992D03*
G01X6835795Y-4002992D03*
G01X6835795Y-4102992D03*
G01X6835795Y-4202992D03*
G01X6835795Y-4302992D03*
G01X6835795Y-4602992D03*
G01X6835795Y-4702992D03*
G01X6635795Y-4902992D03*
G01X6835795Y-3902992D03*
G01X6935795Y-3902992D03*
G01X7135795Y-3902992D03*
G01X7235795Y-3902992D03*
G01X7435795Y-3902992D03*
G01X7635795Y-3902992D03*
G01X6635795Y-3902992D03*
G01X7835795Y-3902992D03*
G01X6835795Y-4902992D03*
G01X6935795Y-5402992D03*
G01X7035795Y-5402992D03*
G01X7535795Y-5402992D03*
G01X7635795Y-5402992D03*
G01X7835795Y-5402992D03*
G01X6735795Y-4902992D03*
G01X6735795Y-4002992D03*
G01X6735795Y-4102992D03*
G01X6735795Y-4202992D03*
G01X6735795Y-4402992D03*
G01X6735795Y-4502992D03*
G01X6735795Y-4602992D03*
G01X6735795Y-4702992D03*
G01X7835795Y-5302992D03*
G01X7835795Y-5202992D03*
G01X7735795Y-3802992D03*
G01X7635795Y-3802992D03*
G01X7535795Y-3802992D03*
G01X7335795Y-3802992D03*
G01X7235795Y-3802992D03*
G01X7135795Y-3802992D03*
G01X6935795Y-3802992D03*
G01X6835795Y-3802992D03*
G01X6735795Y-3802992D03*
G01X6635795Y-3802992D03*
G01X6635795Y-4002992D03*
G01X6635795Y-4102992D03*
G01X6635795Y-4202992D03*
G01X6635795Y-4302992D03*
G01X6635795Y-4402992D03*
G01X6635795Y-4502992D03*
G01X6635795Y-4602992D03*
G01X6635795Y-4702992D03*
G01X6635795Y-4802992D03*
G01X7835795Y-3802992D03*
G01X7835795Y-3702992D03*
G01X7735795Y-3702992D03*
G01X7635795Y-3702992D03*
G01X7535795Y-3702992D03*
G01X7435795Y-3702992D03*
G01X7335795Y-3702992D03*
G01X7235795Y-3702992D03*
G01X7135795Y-3702992D03*
G01X7035795Y-3702992D03*
G01X6935795Y-3702992D03*
G01X6835795Y-3702992D03*
G01X6735795Y-3702992D03*
G01X6635795Y-3702992D03*
G01X4330709Y0000000D02*
G54D10*
G01X10574803Y-3627559D02*
G01X8726378Y-3627559D01*
G01X8726378Y-3627992D02*
G01X8726378Y-5477992D01*
G01X8726378Y-5477992D02*
G01X10574803Y-5477992D01*
G01X10574803Y-5477992D02*
G01X10574803Y-3627992D01*
G54D11*
G01X9801150Y-5002992D03*
G01X9901150Y-5002992D03*
G01X10001150Y-5002992D03*
G01X10101150Y-5002992D03*
G01X10501150Y-3702992D03*
G01X10501150Y-5402992D03*
G01X10101150Y-5302992D03*
G01X10101150Y-5402992D03*
G01X10201150Y-5402992D03*
G01X10201150Y-5302992D03*
G01X10201150Y-5202992D03*
G01X10101150Y-5202992D03*
G01X10501150Y-5302992D03*
G01X10501150Y-5202992D03*
G01X10501150Y-5102992D03*
G01X10501150Y-5002992D03*
G01X10501150Y-4902992D03*
G01X10501150Y-4802992D03*
G01X10501150Y-4702992D03*
G01X10501150Y-4602992D03*
G01X10501150Y-4502992D03*
G01X10501150Y-4402992D03*
G01X10501150Y-4302992D03*
G01X10401150Y-4402992D03*
G01X10401150Y-4502992D03*
G01X10401150Y-4602992D03*
G01X10401150Y-4702992D03*
G01X10401150Y-4902992D03*
G01X10401150Y-5002992D03*
G01X10401150Y-5102992D03*
G01X10401150Y-5302992D03*
G01X10401150Y-5402992D03*
G01X10301150Y-5402992D03*
G01X10301150Y-5202992D03*
G01X10301150Y-5002992D03*
G01X10301150Y-4902992D03*
G01X10301150Y-4802992D03*
G01X10301150Y-4602992D03*
G01X10301150Y-4302992D03*
G01X10501150Y-4202992D03*
G01X10401150Y-4202992D03*
G01X10301150Y-4202992D03*
G01X10501150Y-4102992D03*
G01X10401150Y-4102992D03*
G01X10301150Y-4102992D03*
G01X10501150Y-4002992D03*
G01X10401150Y-4002992D03*
G01X10301150Y-4002992D03*
G01X10501150Y-3902992D03*
G01X10501150Y-3802992D03*
G01X10401150Y-3802992D03*
G01X10301150Y-3902992D03*
G01X10301150Y-3802992D03*
G01X10201150Y-3902992D03*
G01X10201150Y-3802992D03*
G01X8901150Y-5302992D03*
G01X8901150Y-5402992D03*
G01X9001150Y-5402992D03*
G01X9001150Y-5302992D03*
G01X9001150Y-5202992D03*
G01X9001150Y-5102992D03*
G01X8901150Y-5102992D03*
G01X9001150Y-5002992D03*
G01X8901150Y-5002992D03*
G01X10401150Y-3702992D03*
G01X10301150Y-3702992D03*
G01X10201150Y-3702992D03*
G01X10101150Y-3702992D03*
G01X8801150Y-5302992D03*
G01X8801150Y-5202992D03*
G01X8801150Y-5102992D03*
G01X8801150Y-5002992D03*
G01X9101150Y-5202992D03*
G01X9301150Y-5202992D03*
G01X9601150Y-5202992D03*
G01X9801150Y-5202992D03*
G01X9801150Y-5302992D03*
G01X9701150Y-5302992D03*
G01X9601150Y-5302992D03*
G01X9401150Y-5302992D03*
G01X9301150Y-5302992D03*
G01X9201150Y-5302992D03*
G01X9101150Y-5302992D03*
G01X9001150Y-4002992D03*
G01X9001150Y-4102992D03*
G01X9001150Y-4202992D03*
G01X9001150Y-4302992D03*
G01X9001150Y-4602992D03*
G01X9001150Y-4702992D03*
G01X8801150Y-4902992D03*
G01X9001150Y-3902992D03*
G01X9101150Y-3902992D03*
G01X9301150Y-3902992D03*
G01X9401150Y-3902992D03*
G01X9601150Y-3902992D03*
G01X9801150Y-3902992D03*
G01X8801150Y-3902992D03*
G01X10001150Y-3902992D03*
G01X9001150Y-4902992D03*
G01X9101150Y-5402992D03*
G01X9201150Y-5402992D03*
G01X9701150Y-5402992D03*
G01X9801150Y-5402992D03*
G01X10001150Y-5402992D03*
G01X8901150Y-4902992D03*
G01X8901150Y-4002992D03*
G01X8901150Y-4102992D03*
G01X8901150Y-4202992D03*
G01X8901150Y-4402992D03*
G01X8901150Y-4502992D03*
G01X8901150Y-4602992D03*
G01X8901150Y-4702992D03*
G01X10001150Y-5302992D03*
G01X10001150Y-5202992D03*
G01X9901150Y-3802992D03*
G01X9801150Y-3802992D03*
G01X9701150Y-3802992D03*
G01X9501150Y-3802992D03*
G01X9401150Y-3802992D03*
G01X9301150Y-3802992D03*
G01X9101150Y-3802992D03*
G01X9001150Y-3802992D03*
G01X8901150Y-3802992D03*
G01X8801150Y-3802992D03*
G01X8801150Y-4002992D03*
G01X8801150Y-4102992D03*
G01X8801150Y-4202992D03*
G01X8801150Y-4302992D03*
G01X8801150Y-4402992D03*
G01X8801150Y-4502992D03*
G01X8801150Y-4602992D03*
G01X8801150Y-4702992D03*
G01X8801150Y-4802992D03*
G01X10001150Y-3802992D03*
G01X10001150Y-3702992D03*
G01X9901150Y-3702992D03*
G01X9801150Y-3702992D03*
G01X9701150Y-3702992D03*
G01X9601150Y-3702992D03*
G01X9501150Y-3702992D03*
G01X9401150Y-3702992D03*
G01X9301150Y-3702992D03*
G01X9201150Y-3702992D03*
G01X9101150Y-3702992D03*
G01X9001150Y-3702992D03*
G01X8901150Y-3702992D03*
G01X8801150Y-3702992D03*
G01X0000000Y2165354D02*
G54D10*
G01X6244094Y-1462205D02*
G01X4395669Y-1462205D01*
G01X4395669Y-1462638D02*
G01X4395669Y-3312638D01*
G01X4395669Y-3312638D02*
G01X6244094Y-3312638D01*
G01X6244094Y-3312638D02*
G01X6244094Y-1462638D01*
G54D11*
G01X5470441Y-2837638D03*
G01X5570441Y-2837638D03*
G01X5670441Y-2837638D03*
G01X5770441Y-2837638D03*
G01X6170441Y-1537638D03*
G01X6170441Y-3237638D03*
G01X5770441Y-3137638D03*
G01X5770441Y-3237638D03*
G01X5870441Y-3237638D03*
G01X5870441Y-3137638D03*
G01X5870441Y-3037638D03*
G01X5770441Y-3037638D03*
G01X6170441Y-3137638D03*
G01X6170441Y-3037638D03*
G01X6170441Y-2937638D03*
G01X6170441Y-2837638D03*
G01X6170441Y-2737638D03*
G01X6170441Y-2637638D03*
G01X6170441Y-2537638D03*
G01X6170441Y-2437638D03*
G01X6170441Y-2337638D03*
G01X6170441Y-2237638D03*
G01X6170441Y-2137638D03*
G01X6070441Y-2237638D03*
G01X6070441Y-2337638D03*
G01X6070441Y-2437638D03*
G01X6070441Y-2537638D03*
G01X6070441Y-2737638D03*
G01X6070441Y-2837638D03*
G01X6070441Y-2937638D03*
G01X6070441Y-3137638D03*
G01X6070441Y-3237638D03*
G01X5970441Y-3237638D03*
G01X5970441Y-3037638D03*
G01X5970441Y-2837638D03*
G01X5970441Y-2737638D03*
G01X5970441Y-2637638D03*
G01X5970441Y-2437638D03*
G01X5970441Y-2137638D03*
G01X6170441Y-2037638D03*
G01X6070441Y-2037638D03*
G01X5970441Y-2037638D03*
G01X6170441Y-1937638D03*
G01X6070441Y-1937638D03*
G01X5970441Y-1937638D03*
G01X6170441Y-1837638D03*
G01X6070441Y-1837638D03*
G01X5970441Y-1837638D03*
G01X6170441Y-1737638D03*
G01X6170441Y-1637638D03*
G01X6070441Y-1637638D03*
G01X5970441Y-1737638D03*
G01X5970441Y-1637638D03*
G01X5870441Y-1737638D03*
G01X5870441Y-1637638D03*
G01X4570441Y-3137638D03*
G01X4570441Y-3237638D03*
G01X4670441Y-3237638D03*
G01X4670441Y-3137638D03*
G01X4670441Y-3037638D03*
G01X4670441Y-2937638D03*
G01X4570441Y-2937638D03*
G01X4670441Y-2837638D03*
G01X4570441Y-2837638D03*
G01X6070441Y-1537638D03*
G01X5970441Y-1537638D03*
G01X5870441Y-1537638D03*
G01X5770441Y-1537638D03*
G01X4470441Y-3137638D03*
G01X4470441Y-3037638D03*
G01X4470441Y-2937638D03*
G01X4470441Y-2837638D03*
G01X4770441Y-3037638D03*
G01X4970441Y-3037638D03*
G01X5270441Y-3037638D03*
G01X5470441Y-3037638D03*
G01X5470441Y-3137638D03*
G01X5370441Y-3137638D03*
G01X5270441Y-3137638D03*
G01X5070441Y-3137638D03*
G01X4970441Y-3137638D03*
G01X4870441Y-3137638D03*
G01X4770441Y-3137638D03*
G01X4670441Y-1837638D03*
G01X4670441Y-1937638D03*
G01X4670441Y-2037638D03*
G01X4670441Y-2137638D03*
G01X4670441Y-2437638D03*
G01X4670441Y-2537638D03*
G01X4470441Y-2737638D03*
G01X4670441Y-1737638D03*
G01X4770441Y-1737638D03*
G01X4970441Y-1737638D03*
G01X5070441Y-1737638D03*
G01X5270441Y-1737638D03*
G01X5470441Y-1737638D03*
G01X4470441Y-1737638D03*
G01X5670441Y-1737638D03*
G01X4670441Y-2737638D03*
G01X4770441Y-3237638D03*
G01X4870441Y-3237638D03*
G01X5370441Y-3237638D03*
G01X5470441Y-3237638D03*
G01X5670441Y-3237638D03*
G01X4570441Y-2737638D03*
G01X4570441Y-1837638D03*
G01X4570441Y-1937638D03*
G01X4570441Y-2037638D03*
G01X4570441Y-2237638D03*
G01X4570441Y-2337638D03*
G01X4570441Y-2437638D03*
G01X4570441Y-2537638D03*
G01X5670441Y-3137638D03*
G01X5670441Y-3037638D03*
G01X5570441Y-1637638D03*
G01X5470441Y-1637638D03*
G01X5370441Y-1637638D03*
G01X5170441Y-1637638D03*
G01X5070441Y-1637638D03*
G01X4970441Y-1637638D03*
G01X4770441Y-1637638D03*
G01X4670441Y-1637638D03*
G01X4570441Y-1637638D03*
G01X4470441Y-1637638D03*
G01X4470441Y-1837638D03*
G01X4470441Y-1937638D03*
G01X4470441Y-2037638D03*
G01X4470441Y-2137638D03*
G01X4470441Y-2237638D03*
G01X4470441Y-2337638D03*
G01X4470441Y-2437638D03*
G01X4470441Y-2537638D03*
G01X4470441Y-2637638D03*
G01X5670441Y-1637638D03*
G01X5670441Y-1537638D03*
G01X5570441Y-1537638D03*
G01X5470441Y-1537638D03*
G01X5370441Y-1537638D03*
G01X5270441Y-1537638D03*
G01X5170441Y-1537638D03*
G01X5070441Y-1537638D03*
G01X4970441Y-1537638D03*
G01X4870441Y-1537638D03*
G01X4770441Y-1537638D03*
G01X4670441Y-1537638D03*
G01X4570441Y-1537638D03*
G01X4470441Y-1537638D03*
G54D10*
G01X8409448Y-1462205D02*
G01X6561023Y-1462205D01*
G01X6561023Y-1462638D02*
G01X6561023Y-3312638D01*
G01X6561023Y-3312638D02*
G01X8409448Y-3312638D01*
G01X8409448Y-3312638D02*
G01X8409448Y-1462638D01*
G54D11*
G01X7635795Y-2837638D03*
G01X7735795Y-2837638D03*
G01X7835795Y-2837638D03*
G01X7935795Y-2837638D03*
G01X8335795Y-1537638D03*
G01X8335795Y-3237638D03*
G01X7935795Y-3137638D03*
G01X7935795Y-3237638D03*
G01X8035795Y-3237638D03*
G01X8035795Y-3137638D03*
G01X8035795Y-3037638D03*
G01X7935795Y-3037638D03*
G01X8335795Y-3137638D03*
G01X8335795Y-3037638D03*
G01X8335795Y-2937638D03*
G01X8335795Y-2837638D03*
G01X8335795Y-2737638D03*
G01X8335795Y-2637638D03*
G01X8335795Y-2537638D03*
G01X8335795Y-2437638D03*
G01X8335795Y-2337638D03*
G01X8335795Y-2237638D03*
G01X8335795Y-2137638D03*
G01X8235795Y-2237638D03*
G01X8235795Y-2337638D03*
G01X8235795Y-2437638D03*
G01X8235795Y-2537638D03*
G01X8235795Y-2737638D03*
G01X8235795Y-2837638D03*
G01X8235795Y-2937638D03*
G01X8235795Y-3137638D03*
G01X8235795Y-3237638D03*
G01X8135795Y-3237638D03*
G01X8135795Y-3037638D03*
G01X8135795Y-2837638D03*
G01X8135795Y-2737638D03*
G01X8135795Y-2637638D03*
G01X8135795Y-2437638D03*
G01X8135795Y-2137638D03*
G01X8335795Y-2037638D03*
G01X8235795Y-2037638D03*
G01X8135795Y-2037638D03*
G01X8335795Y-1937638D03*
G01X8235795Y-1937638D03*
G01X8135795Y-1937638D03*
G01X8335795Y-1837638D03*
G01X8235795Y-1837638D03*
G01X8135795Y-1837638D03*
G01X8335795Y-1737638D03*
G01X8335795Y-1637638D03*
G01X8235795Y-1637638D03*
G01X8135795Y-1737638D03*
G01X8135795Y-1637638D03*
G01X8035795Y-1737638D03*
G01X8035795Y-1637638D03*
G01X6735795Y-3137638D03*
G01X6735795Y-3237638D03*
G01X6835795Y-3237638D03*
G01X6835795Y-3137638D03*
G01X6835795Y-3037638D03*
G01X6835795Y-2937638D03*
G01X6735795Y-2937638D03*
G01X6835795Y-2837638D03*
G01X6735795Y-2837638D03*
G01X8235795Y-1537638D03*
G01X8135795Y-1537638D03*
G01X8035795Y-1537638D03*
G01X7935795Y-1537638D03*
G01X6635795Y-3137638D03*
G01X6635795Y-3037638D03*
G01X6635795Y-2937638D03*
G01X6635795Y-2837638D03*
G01X6935795Y-3037638D03*
G01X7135795Y-3037638D03*
G01X7435795Y-3037638D03*
G01X7635795Y-3037638D03*
G01X7635795Y-3137638D03*
G01X7535795Y-3137638D03*
G01X7435795Y-3137638D03*
G01X7235795Y-3137638D03*
G01X7135795Y-3137638D03*
G01X7035795Y-3137638D03*
G01X6935795Y-3137638D03*
G01X6835795Y-1837638D03*
G01X6835795Y-1937638D03*
G01X6835795Y-2037638D03*
G01X6835795Y-2137638D03*
G01X6835795Y-2437638D03*
G01X6835795Y-2537638D03*
G01X6635795Y-2737638D03*
G01X6835795Y-1737638D03*
G01X6935795Y-1737638D03*
G01X7135795Y-1737638D03*
G01X7235795Y-1737638D03*
G01X7435795Y-1737638D03*
G01X7635795Y-1737638D03*
G01X6635795Y-1737638D03*
G01X7835795Y-1737638D03*
G01X6835795Y-2737638D03*
G01X6935795Y-3237638D03*
G01X7035795Y-3237638D03*
G01X7535795Y-3237638D03*
G01X7635795Y-3237638D03*
G01X7835795Y-3237638D03*
G01X6735795Y-2737638D03*
G01X6735795Y-1837638D03*
G01X6735795Y-1937638D03*
G01X6735795Y-2037638D03*
G01X6735795Y-2237638D03*
G01X6735795Y-2337638D03*
G01X6735795Y-2437638D03*
G01X6735795Y-2537638D03*
G01X7835795Y-3137638D03*
G01X7835795Y-3037638D03*
G01X7735795Y-1637638D03*
G01X7635795Y-1637638D03*
G01X7535795Y-1637638D03*
G01X7335795Y-1637638D03*
G01X7235795Y-1637638D03*
G01X7135795Y-1637638D03*
G01X6935795Y-1637638D03*
G01X6835795Y-1637638D03*
G01X6735795Y-1637638D03*
G01X6635795Y-1637638D03*
G01X6635795Y-1837638D03*
G01X6635795Y-1937638D03*
G01X6635795Y-2037638D03*
G01X6635795Y-2137638D03*
G01X6635795Y-2237638D03*
G01X6635795Y-2337638D03*
G01X6635795Y-2437638D03*
G01X6635795Y-2537638D03*
G01X6635795Y-2637638D03*
G01X7835795Y-1637638D03*
G01X7835795Y-1537638D03*
G01X7735795Y-1537638D03*
G01X7635795Y-1537638D03*
G01X7535795Y-1537638D03*
G01X7435795Y-1537638D03*
G01X7335795Y-1537638D03*
G01X7235795Y-1537638D03*
G01X7135795Y-1537638D03*
G01X7035795Y-1537638D03*
G01X6935795Y-1537638D03*
G01X6835795Y-1537638D03*
G01X6735795Y-1537638D03*
G01X6635795Y-1537638D03*
G54D10*
G01X10574803Y-1462205D02*
G01X8726378Y-1462205D01*
G01X8726378Y-1462638D02*
G01X8726378Y-3312638D01*
G01X8726378Y-3312638D02*
G01X10574803Y-3312638D01*
G01X10574803Y-3312638D02*
G01X10574803Y-1462638D01*
G54D11*
G01X9801150Y-2837638D03*
G01X9901150Y-2837638D03*
G01X10001150Y-2837638D03*
G01X10101150Y-2837638D03*
G01X10501150Y-1537638D03*
G01X10501150Y-3237638D03*
G01X10101150Y-3137638D03*
G01X10101150Y-3237638D03*
G01X10201150Y-3237638D03*
G01X10201150Y-3137638D03*
G01X10201150Y-3037638D03*
G01X10101150Y-3037638D03*
G01X10501150Y-3137638D03*
G01X10501150Y-3037638D03*
G01X10501150Y-2937638D03*
G01X10501150Y-2837638D03*
G01X10501150Y-2737638D03*
G01X10501150Y-2637638D03*
G01X10501150Y-2537638D03*
G01X10501150Y-2437638D03*
G01X10501150Y-2337638D03*
G01X10501150Y-2237638D03*
G01X10501150Y-2137638D03*
G01X10401150Y-2237638D03*
G01X10401150Y-2337638D03*
G01X10401150Y-2437638D03*
G01X10401150Y-2537638D03*
G01X10401150Y-2737638D03*
G01X10401150Y-2837638D03*
G01X10401150Y-2937638D03*
G01X10401150Y-3137638D03*
G01X10401150Y-3237638D03*
G01X10301150Y-3237638D03*
G01X10301150Y-3037638D03*
G01X10301150Y-2837638D03*
G01X10301150Y-2737638D03*
G01X10301150Y-2637638D03*
G01X10301150Y-2437638D03*
G01X10301150Y-2137638D03*
G01X10501150Y-2037638D03*
G01X10401150Y-2037638D03*
G01X10301150Y-2037638D03*
G01X10501150Y-1937638D03*
G01X10401150Y-1937638D03*
G01X10301150Y-1937638D03*
G01X10501150Y-1837638D03*
G01X10401150Y-1837638D03*
G01X10301150Y-1837638D03*
G01X10501150Y-1737638D03*
G01X10501150Y-1637638D03*
G01X10401150Y-1637638D03*
G01X10301150Y-1737638D03*
G01X10301150Y-1637638D03*
G01X10201150Y-1737638D03*
G01X10201150Y-1637638D03*
G01X8901150Y-3137638D03*
G01X8901150Y-3237638D03*
G01X9001150Y-3237638D03*
G01X9001150Y-3137638D03*
G01X9001150Y-3037638D03*
G01X9001150Y-2937638D03*
G01X8901150Y-2937638D03*
G01X9001150Y-2837638D03*
G01X8901150Y-2837638D03*
G01X10401150Y-1537638D03*
G01X10301150Y-1537638D03*
G01X10201150Y-1537638D03*
G01X10101150Y-1537638D03*
G01X8801150Y-3137638D03*
G01X8801150Y-3037638D03*
G01X8801150Y-2937638D03*
G01X8801150Y-2837638D03*
G01X9101150Y-3037638D03*
G01X9301150Y-3037638D03*
G01X9601150Y-3037638D03*
G01X9801150Y-3037638D03*
G01X9801150Y-3137638D03*
G01X9701150Y-3137638D03*
G01X9601150Y-3137638D03*
G01X9401150Y-3137638D03*
G01X9301150Y-3137638D03*
G01X9201150Y-3137638D03*
G01X9101150Y-3137638D03*
G01X9001150Y-1837638D03*
G01X9001150Y-1937638D03*
G01X9001150Y-2037638D03*
G01X9001150Y-2137638D03*
G01X9001150Y-2437638D03*
G01X9001150Y-2537638D03*
G01X8801150Y-2737638D03*
G01X9001150Y-1737638D03*
G01X9101150Y-1737638D03*
G01X9301150Y-1737638D03*
G01X9401150Y-1737638D03*
G01X9601150Y-1737638D03*
G01X9801150Y-1737638D03*
G01X8801150Y-1737638D03*
G01X10001150Y-1737638D03*
G01X9001150Y-2737638D03*
G01X9101150Y-3237638D03*
G01X9201150Y-3237638D03*
G01X9701150Y-3237638D03*
G01X9801150Y-3237638D03*
G01X10001150Y-3237638D03*
G01X8901150Y-2737638D03*
G01X8901150Y-1837638D03*
G01X8901150Y-1937638D03*
G01X8901150Y-2037638D03*
G01X8901150Y-2237638D03*
G01X8901150Y-2337638D03*
G01X8901150Y-2437638D03*
G01X8901150Y-2537638D03*
G01X10001150Y-3137638D03*
G01X10001150Y-3037638D03*
G01X9901150Y-1637638D03*
G01X9801150Y-1637638D03*
G01X9701150Y-1637638D03*
G01X9501150Y-1637638D03*
G01X9401150Y-1637638D03*
G01X9301150Y-1637638D03*
G01X9101150Y-1637638D03*
G01X9001150Y-1637638D03*
G01X8901150Y-1637638D03*
G01X8801150Y-1637638D03*
G01X8801150Y-1837638D03*
G01X8801150Y-1937638D03*
G01X8801150Y-2037638D03*
G01X8801150Y-2137638D03*
G01X8801150Y-2237638D03*
G01X8801150Y-2337638D03*
G01X8801150Y-2437638D03*
G01X8801150Y-2537638D03*
G01X8801150Y-2637638D03*
G01X10001150Y-1637638D03*
G01X10001150Y-1537638D03*
G01X9901150Y-1537638D03*
G01X9801150Y-1537638D03*
G01X9701150Y-1537638D03*
G01X9601150Y-1537638D03*
G01X9501150Y-1537638D03*
G01X9401150Y-1537638D03*
G01X9301150Y-1537638D03*
G01X9201150Y-1537638D03*
G01X9101150Y-1537638D03*
G01X9001150Y-1537638D03*
G01X8901150Y-1537638D03*
G01X8801150Y-1537638D03*
G01X0000000Y4330709D02*
G54D10*
G01X6244094Y0703150D02*
G01X4395669Y0703150D01*
G01X4395669Y0702717D02*
G01X4395669Y-1147283D01*
G01X4395669Y-1147283D02*
G01X6244094Y-1147283D01*
G01X6244094Y-1147283D02*
G01X6244094Y0702717D01*
G54D11*
G01X5470441Y-672283D03*
G01X5570441Y-672283D03*
G01X5670441Y-672283D03*
G01X5770441Y-672283D03*
G01X6170441Y0627717D03*
G01X6170441Y-1072283D03*
G01X5770441Y-972283D03*
G01X5770441Y-1072283D03*
G01X5870441Y-1072283D03*
G01X5870441Y-972283D03*
G01X5870441Y-872283D03*
G01X5770441Y-872283D03*
G01X6170441Y-972283D03*
G01X6170441Y-872283D03*
G01X6170441Y-772283D03*
G01X6170441Y-672283D03*
G01X6170441Y-572283D03*
G01X6170441Y-472283D03*
G01X6170441Y-372283D03*
G01X6170441Y-272283D03*
G01X6170441Y-172283D03*
G01X6170441Y-072283D03*
G01X6170441Y0027717D03*
G01X6070441Y-072283D03*
G01X6070441Y-172283D03*
G01X6070441Y-272283D03*
G01X6070441Y-372283D03*
G01X6070441Y-572283D03*
G01X6070441Y-672283D03*
G01X6070441Y-772283D03*
G01X6070441Y-972283D03*
G01X6070441Y-1072283D03*
G01X5970441Y-1072283D03*
G01X5970441Y-872283D03*
G01X5970441Y-672283D03*
G01X5970441Y-572283D03*
G01X5970441Y-472283D03*
G01X5970441Y-272283D03*
G01X5970441Y0027717D03*
G01X6170441Y0127717D03*
G01X6070441Y0127717D03*
G01X5970441Y0127717D03*
G01X6170441Y0227717D03*
G01X6070441Y0227717D03*
G01X5970441Y0227717D03*
G01X6170441Y0327717D03*
G01X6070441Y0327717D03*
G01X5970441Y0327717D03*
G01X6170441Y0427717D03*
G01X6170441Y0527717D03*
G01X6070441Y0527717D03*
G01X5970441Y0427717D03*
G01X5970441Y0527717D03*
G01X5870441Y0427717D03*
G01X5870441Y0527717D03*
G01X4570441Y-972283D03*
G01X4570441Y-1072283D03*
G01X4670441Y-1072283D03*
G01X4670441Y-972283D03*
G01X4670441Y-872283D03*
G01X4670441Y-772283D03*
G01X4570441Y-772283D03*
G01X4670441Y-672283D03*
G01X4570441Y-672283D03*
G01X6070441Y0627717D03*
G01X5970441Y0627717D03*
G01X5870441Y0627717D03*
G01X5770441Y0627717D03*
G01X4470441Y-972283D03*
G01X4470441Y-872283D03*
G01X4470441Y-772283D03*
G01X4470441Y-672283D03*
G01X4770441Y-872283D03*
G01X4970441Y-872283D03*
G01X5270441Y-872283D03*
G01X5470441Y-872283D03*
G01X5470441Y-972283D03*
G01X5370441Y-972283D03*
G01X5270441Y-972283D03*
G01X5070441Y-972283D03*
G01X4970441Y-972283D03*
G01X4870441Y-972283D03*
G01X4770441Y-972283D03*
G01X4670441Y0327717D03*
G01X4670441Y0227717D03*
G01X4670441Y0127717D03*
G01X4670441Y0027717D03*
G01X4670441Y-272283D03*
G01X4670441Y-372283D03*
G01X4470441Y-572283D03*
G01X4670441Y0427717D03*
G01X4770441Y0427717D03*
G01X4970441Y0427717D03*
G01X5070441Y0427717D03*
G01X5270441Y0427717D03*
G01X5470441Y0427717D03*
G01X4470441Y0427717D03*
G01X5670441Y0427717D03*
G01X4670441Y-572283D03*
G01X4770441Y-1072283D03*
G01X4870441Y-1072283D03*
G01X5370441Y-1072283D03*
G01X5470441Y-1072283D03*
G01X5670441Y-1072283D03*
G01X4570441Y-572283D03*
G01X4570441Y0327717D03*
G01X4570441Y0227717D03*
G01X4570441Y0127717D03*
G01X4570441Y-072283D03*
G01X4570441Y-172283D03*
G01X4570441Y-272283D03*
G01X4570441Y-372283D03*
G01X5670441Y-972283D03*
G01X5670441Y-872283D03*
G01X5570441Y0527717D03*
G01X5470441Y0527717D03*
G01X5370441Y0527717D03*
G01X5170441Y0527717D03*
G01X5070441Y0527717D03*
G01X4970441Y0527717D03*
G01X4770441Y0527717D03*
G01X4670441Y0527717D03*
G01X4570441Y0527717D03*
G01X4470441Y0527717D03*
G01X4470441Y0327717D03*
G01X4470441Y0227717D03*
G01X4470441Y0127717D03*
G01X4470441Y0027717D03*
G01X4470441Y-072283D03*
G01X4470441Y-172283D03*
G01X4470441Y-272283D03*
G01X4470441Y-372283D03*
G01X4470441Y-472283D03*
G01X5670441Y0527717D03*
G01X5670441Y0627717D03*
G01X5570441Y0627717D03*
G01X5470441Y0627717D03*
G01X5370441Y0627717D03*
G01X5270441Y0627717D03*
G01X5170441Y0627717D03*
G01X5070441Y0627717D03*
G01X4970441Y0627717D03*
G01X4870441Y0627717D03*
G01X4770441Y0627717D03*
G01X4670441Y0627717D03*
G01X4570441Y0627717D03*
G01X4470441Y0627717D03*
G54D10*
G01X8409448Y0703150D02*
G01X6561023Y0703150D01*
G01X6561023Y0702717D02*
G01X6561023Y-1147283D01*
G01X6561023Y-1147283D02*
G01X8409448Y-1147283D01*
G01X8409448Y-1147283D02*
G01X8409448Y0702717D01*
G54D11*
G01X7635795Y-672283D03*
G01X7735795Y-672283D03*
G01X7835795Y-672283D03*
G01X7935795Y-672283D03*
G01X8335795Y0627717D03*
G01X8335795Y-1072283D03*
G01X7935795Y-972283D03*
G01X7935795Y-1072283D03*
G01X8035795Y-1072283D03*
G01X8035795Y-972283D03*
G01X8035795Y-872283D03*
G01X7935795Y-872283D03*
G01X8335795Y-972283D03*
G01X8335795Y-872283D03*
G01X8335795Y-772283D03*
G01X8335795Y-672283D03*
G01X8335795Y-572283D03*
G01X8335795Y-472283D03*
G01X8335795Y-372283D03*
G01X8335795Y-272283D03*
G01X8335795Y-172283D03*
G01X8335795Y-072283D03*
G01X8335795Y0027717D03*
G01X8235795Y-072283D03*
G01X8235795Y-172283D03*
G01X8235795Y-272283D03*
G01X8235795Y-372283D03*
G01X8235795Y-572283D03*
G01X8235795Y-672283D03*
G01X8235795Y-772283D03*
G01X8235795Y-972283D03*
G01X8235795Y-1072283D03*
G01X8135795Y-1072283D03*
G01X8135795Y-872283D03*
G01X8135795Y-672283D03*
G01X8135795Y-572283D03*
G01X8135795Y-472283D03*
G01X8135795Y-272283D03*
G01X8135795Y0027717D03*
G01X8335795Y0127717D03*
G01X8235795Y0127717D03*
G01X8135795Y0127717D03*
G01X8335795Y0227717D03*
G01X8235795Y0227717D03*
G01X8135795Y0227717D03*
G01X8335795Y0327717D03*
G01X8235795Y0327717D03*
G01X8135795Y0327717D03*
G01X8335795Y0427717D03*
G01X8335795Y0527717D03*
G01X8235795Y0527717D03*
G01X8135795Y0427717D03*
G01X8135795Y0527717D03*
G01X8035795Y0427717D03*
G01X8035795Y0527717D03*
G01X6735795Y-972283D03*
G01X6735795Y-1072283D03*
G01X6835795Y-1072283D03*
G01X6835795Y-972283D03*
G01X6835795Y-872283D03*
G01X6835795Y-772283D03*
G01X6735795Y-772283D03*
G01X6835795Y-672283D03*
G01X6735795Y-672283D03*
G01X8235795Y0627717D03*
G01X8135795Y0627717D03*
G01X8035795Y0627717D03*
G01X7935795Y0627717D03*
G01X6635795Y-972283D03*
G01X6635795Y-872283D03*
G01X6635795Y-772283D03*
G01X6635795Y-672283D03*
G01X6935795Y-872283D03*
G01X7135795Y-872283D03*
G01X7435795Y-872283D03*
G01X7635795Y-872283D03*
G01X7635795Y-972283D03*
G01X7535795Y-972283D03*
G01X7435795Y-972283D03*
G01X7235795Y-972283D03*
G01X7135795Y-972283D03*
G01X7035795Y-972283D03*
G01X6935795Y-972283D03*
G01X6835795Y0327717D03*
G01X6835795Y0227717D03*
G01X6835795Y0127717D03*
G01X6835795Y0027717D03*
G01X6835795Y-272283D03*
G01X6835795Y-372283D03*
G01X6635795Y-572283D03*
G01X6835795Y0427717D03*
G01X6935795Y0427717D03*
G01X7135795Y0427717D03*
G01X7235795Y0427717D03*
G01X7435795Y0427717D03*
G01X7635795Y0427717D03*
G01X6635795Y0427717D03*
G01X7835795Y0427717D03*
G01X6835795Y-572283D03*
G01X6935795Y-1072283D03*
G01X7035795Y-1072283D03*
G01X7535795Y-1072283D03*
G01X7635795Y-1072283D03*
G01X7835795Y-1072283D03*
G01X6735795Y-572283D03*
G01X6735795Y0327717D03*
G01X6735795Y0227717D03*
G01X6735795Y0127717D03*
G01X6735795Y-072283D03*
G01X6735795Y-172283D03*
G01X6735795Y-272283D03*
G01X6735795Y-372283D03*
G01X7835795Y-972283D03*
G01X7835795Y-872283D03*
G01X7735795Y0527717D03*
G01X7635795Y0527717D03*
G01X7535795Y0527717D03*
G01X7335795Y0527717D03*
G01X7235795Y0527717D03*
G01X7135795Y0527717D03*
G01X6935795Y0527717D03*
G01X6835795Y0527717D03*
G01X6735795Y0527717D03*
G01X6635795Y0527717D03*
G01X6635795Y0327717D03*
G01X6635795Y0227717D03*
G01X6635795Y0127717D03*
G01X6635795Y0027717D03*
G01X6635795Y-072283D03*
G01X6635795Y-172283D03*
G01X6635795Y-272283D03*
G01X6635795Y-372283D03*
G01X6635795Y-472283D03*
G01X7835795Y0527717D03*
G01X7835795Y0627717D03*
G01X7735795Y0627717D03*
G01X7635795Y0627717D03*
G01X7535795Y0627717D03*
G01X7435795Y0627717D03*
G01X7335795Y0627717D03*
G01X7235795Y0627717D03*
G01X7135795Y0627717D03*
G01X7035795Y0627717D03*
G01X6935795Y0627717D03*
G01X6835795Y0627717D03*
G01X6735795Y0627717D03*
G01X6635795Y0627717D03*
G54D10*
G01X10574803Y0703150D02*
G01X8726378Y0703150D01*
G01X8726378Y0702717D02*
G01X8726378Y-1147283D01*
G01X8726378Y-1147283D02*
G01X10574803Y-1147283D01*
G01X10574803Y-1147283D02*
G01X10574803Y0702717D01*
G54D11*
G01X9801150Y-672283D03*
G01X9901150Y-672283D03*
G01X10001150Y-672283D03*
G01X10101150Y-672283D03*
G01X10501150Y0627717D03*
G01X10501150Y-1072283D03*
G01X10101150Y-972283D03*
G01X10101150Y-1072283D03*
G01X10201150Y-1072283D03*
G01X10201150Y-972283D03*
G01X10201150Y-872283D03*
G01X10101150Y-872283D03*
G01X10501150Y-972283D03*
G01X10501150Y-872283D03*
G01X10501150Y-772283D03*
G01X10501150Y-672283D03*
G01X10501150Y-572283D03*
G01X10501150Y-472283D03*
G01X10501150Y-372283D03*
G01X10501150Y-272283D03*
G01X10501150Y-172283D03*
G01X10501150Y-072283D03*
G01X10501150Y0027717D03*
G01X10401150Y-072283D03*
G01X10401150Y-172283D03*
G01X10401150Y-272283D03*
G01X10401150Y-372283D03*
G01X10401150Y-572283D03*
G01X10401150Y-672283D03*
G01X10401150Y-772283D03*
G01X10401150Y-972283D03*
G01X10401150Y-1072283D03*
G01X10301150Y-1072283D03*
G01X10301150Y-872283D03*
G01X10301150Y-672283D03*
G01X10301150Y-572283D03*
G01X10301150Y-472283D03*
G01X10301150Y-272283D03*
G01X10301150Y0027717D03*
G01X10501150Y0127717D03*
G01X10401150Y0127717D03*
G01X10301150Y0127717D03*
G01X10501150Y0227717D03*
G01X10401150Y0227717D03*
G01X10301150Y0227717D03*
G01X10501150Y0327717D03*
G01X10401150Y0327717D03*
G01X10301150Y0327717D03*
G01X10501150Y0427717D03*
G01X10501150Y0527717D03*
G01X10401150Y0527717D03*
G01X10301150Y0427717D03*
G01X10301150Y0527717D03*
G01X10201150Y0427717D03*
G01X10201150Y0527717D03*
G01X8901150Y-972283D03*
G01X8901150Y-1072283D03*
G01X9001150Y-1072283D03*
G01X9001150Y-972283D03*
G01X9001150Y-872283D03*
G01X9001150Y-772283D03*
G01X8901150Y-772283D03*
G01X9001150Y-672283D03*
G01X8901150Y-672283D03*
G01X10401150Y0627717D03*
G01X10301150Y0627717D03*
G01X10201150Y0627717D03*
G01X10101150Y0627717D03*
G01X8801150Y-972283D03*
G01X8801150Y-872283D03*
G01X8801150Y-772283D03*
G01X8801150Y-672283D03*
G01X9101150Y-872283D03*
G01X9301150Y-872283D03*
G01X9601150Y-872283D03*
G01X9801150Y-872283D03*
G01X9801150Y-972283D03*
G01X9701150Y-972283D03*
G01X9601150Y-972283D03*
G01X9401150Y-972283D03*
G01X9301150Y-972283D03*
G01X9201150Y-972283D03*
G01X9101150Y-972283D03*
G01X9001150Y0327717D03*
G01X9001150Y0227717D03*
G01X9001150Y0127717D03*
G01X9001150Y0027717D03*
G01X9001150Y-272283D03*
G01X9001150Y-372283D03*
G01X8801150Y-572283D03*
G01X9001150Y0427717D03*
G01X9101150Y0427717D03*
G01X9301150Y0427717D03*
G01X9401150Y0427717D03*
G01X9601150Y0427717D03*
G01X9801150Y0427717D03*
G01X8801150Y0427717D03*
G01X10001150Y0427717D03*
G01X9001150Y-572283D03*
G01X9101150Y-1072283D03*
G01X9201150Y-1072283D03*
G01X9701150Y-1072283D03*
G01X9801150Y-1072283D03*
G01X10001150Y-1072283D03*
G01X8901150Y-572283D03*
G01X8901150Y0327717D03*
G01X8901150Y0227717D03*
G01X8901150Y0127717D03*
G01X8901150Y-072283D03*
G01X8901150Y-172283D03*
G01X8901150Y-272283D03*
G01X8901150Y-372283D03*
G01X10001150Y-972283D03*
G01X10001150Y-872283D03*
G01X9901150Y0527717D03*
G01X9801150Y0527717D03*
G01X9701150Y0527717D03*
G01X9501150Y0527717D03*
G01X9401150Y0527717D03*
G01X9301150Y0527717D03*
G01X9101150Y0527717D03*
G01X9001150Y0527717D03*
G01X8901150Y0527717D03*
G01X8801150Y0527717D03*
G01X8801150Y0327717D03*
G01X8801150Y0227717D03*
G01X8801150Y0127717D03*
G01X8801150Y0027717D03*
G01X8801150Y-072283D03*
G01X8801150Y-172283D03*
G01X8801150Y-272283D03*
G01X8801150Y-372283D03*
G01X8801150Y-472283D03*
G01X10001150Y0527717D03*
G01X10001150Y0627717D03*
G01X9901150Y0627717D03*
G01X9801150Y0627717D03*
G01X9701150Y0627717D03*
G01X9601150Y0627717D03*
G01X9501150Y0627717D03*
G01X9401150Y0627717D03*
G01X9301150Y0627717D03*
G01X9201150Y0627717D03*
G01X9101150Y0627717D03*
G01X9001150Y0627717D03*
G01X8901150Y0627717D03*
G01X8801150Y0627717D03*
G01X0000000Y6496063D02*
G54D10*
G01X6244094Y2868504D02*
G01X4395669Y2868504D01*
G01X4395669Y2868071D02*
G01X4395669Y1018071D01*
G01X4395669Y1018071D02*
G01X6244094Y1018071D01*
G01X6244094Y1018071D02*
G01X6244094Y2868071D01*
G54D11*
G01X5470441Y1493071D03*
G01X5570441Y1493071D03*
G01X5670441Y1493071D03*
G01X5770441Y1493071D03*
G01X6170441Y2793071D03*
G01X6170441Y1093071D03*
G01X5770441Y1193071D03*
G01X5770441Y1093071D03*
G01X5870441Y1093071D03*
G01X5870441Y1193071D03*
G01X5870441Y1293071D03*
G01X5770441Y1293071D03*
G01X6170441Y1193071D03*
G01X6170441Y1293071D03*
G01X6170441Y1393071D03*
G01X6170441Y1493071D03*
G01X6170441Y1593071D03*
G01X6170441Y1693071D03*
G01X6170441Y1793071D03*
G01X6170441Y1893071D03*
G01X6170441Y1993071D03*
G01X6170441Y2093071D03*
G01X6170441Y2193071D03*
G01X6070441Y2093071D03*
G01X6070441Y1993071D03*
G01X6070441Y1893071D03*
G01X6070441Y1793071D03*
G01X6070441Y1593071D03*
G01X6070441Y1493071D03*
G01X6070441Y1393071D03*
G01X6070441Y1193071D03*
G01X6070441Y1093071D03*
G01X5970441Y1093071D03*
G01X5970441Y1293071D03*
G01X5970441Y1493071D03*
G01X5970441Y1593071D03*
G01X5970441Y1693071D03*
G01X5970441Y1893071D03*
G01X5970441Y2193071D03*
G01X6170441Y2293071D03*
G01X6070441Y2293071D03*
G01X5970441Y2293071D03*
G01X6170441Y2393071D03*
G01X6070441Y2393071D03*
G01X5970441Y2393071D03*
G01X6170441Y2493071D03*
G01X6070441Y2493071D03*
G01X5970441Y2493071D03*
G01X6170441Y2593071D03*
G01X6170441Y2693071D03*
G01X6070441Y2693071D03*
G01X5970441Y2593071D03*
G01X5970441Y2693071D03*
G01X5870441Y2593071D03*
G01X5870441Y2693071D03*
G01X4570441Y1193071D03*
G01X4570441Y1093071D03*
G01X4670441Y1093071D03*
G01X4670441Y1193071D03*
G01X4670441Y1293071D03*
G01X4670441Y1393071D03*
G01X4570441Y1393071D03*
G01X4670441Y1493071D03*
G01X4570441Y1493071D03*
G01X6070441Y2793071D03*
G01X5970441Y2793071D03*
G01X5870441Y2793071D03*
G01X5770441Y2793071D03*
G01X4470441Y1193071D03*
G01X4470441Y1293071D03*
G01X4470441Y1393071D03*
G01X4470441Y1493071D03*
G01X4770441Y1293071D03*
G01X4970441Y1293071D03*
G01X5270441Y1293071D03*
G01X5470441Y1293071D03*
G01X5470441Y1193071D03*
G01X5370441Y1193071D03*
G01X5270441Y1193071D03*
G01X5070441Y1193071D03*
G01X4970441Y1193071D03*
G01X4870441Y1193071D03*
G01X4770441Y1193071D03*
G01X4670441Y2493071D03*
G01X4670441Y2393071D03*
G01X4670441Y2293071D03*
G01X4670441Y2193071D03*
G01X4670441Y1893071D03*
G01X4670441Y1793071D03*
G01X4470441Y1593071D03*
G01X4670441Y2593071D03*
G01X4770441Y2593071D03*
G01X4970441Y2593071D03*
G01X5070441Y2593071D03*
G01X5270441Y2593071D03*
G01X5470441Y2593071D03*
G01X4470441Y2593071D03*
G01X5670441Y2593071D03*
G01X4670441Y1593071D03*
G01X4770441Y1093071D03*
G01X4870441Y1093071D03*
G01X5370441Y1093071D03*
G01X5470441Y1093071D03*
G01X5670441Y1093071D03*
G01X4570441Y1593071D03*
G01X4570441Y2493071D03*
G01X4570441Y2393071D03*
G01X4570441Y2293071D03*
G01X4570441Y2093071D03*
G01X4570441Y1993071D03*
G01X4570441Y1893071D03*
G01X4570441Y1793071D03*
G01X5670441Y1193071D03*
G01X5670441Y1293071D03*
G01X5570441Y2693071D03*
G01X5470441Y2693071D03*
G01X5370441Y2693071D03*
G01X5170441Y2693071D03*
G01X5070441Y2693071D03*
G01X4970441Y2693071D03*
G01X4770441Y2693071D03*
G01X4670441Y2693071D03*
G01X4570441Y2693071D03*
G01X4470441Y2693071D03*
G01X4470441Y2493071D03*
G01X4470441Y2393071D03*
G01X4470441Y2293071D03*
G01X4470441Y2193071D03*
G01X4470441Y2093071D03*
G01X4470441Y1993071D03*
G01X4470441Y1893071D03*
G01X4470441Y1793071D03*
G01X4470441Y1693071D03*
G01X5670441Y2693071D03*
G01X5670441Y2793071D03*
G01X5570441Y2793071D03*
G01X5470441Y2793071D03*
G01X5370441Y2793071D03*
G01X5270441Y2793071D03*
G01X5170441Y2793071D03*
G01X5070441Y2793071D03*
G01X4970441Y2793071D03*
G01X4870441Y2793071D03*
G01X4770441Y2793071D03*
G01X4670441Y2793071D03*
G01X4570441Y2793071D03*
G01X4470441Y2793071D03*
G54D10*
G01X8409448Y2868504D02*
G01X6561023Y2868504D01*
G01X6561023Y2868071D02*
G01X6561023Y1018071D01*
G01X6561023Y1018071D02*
G01X8409448Y1018071D01*
G01X8409448Y1018071D02*
G01X8409448Y2868071D01*
G54D11*
G01X7635795Y1493071D03*
G01X7735795Y1493071D03*
G01X7835795Y1493071D03*
G01X7935795Y1493071D03*
G01X8335795Y2793071D03*
G01X8335795Y1093071D03*
G01X7935795Y1193071D03*
G01X7935795Y1093071D03*
G01X8035795Y1093071D03*
G01X8035795Y1193071D03*
G01X8035795Y1293071D03*
G01X7935795Y1293071D03*
G01X8335795Y1193071D03*
G01X8335795Y1293071D03*
G01X8335795Y1393071D03*
G01X8335795Y1493071D03*
G01X8335795Y1593071D03*
G01X8335795Y1693071D03*
G01X8335795Y1793071D03*
G01X8335795Y1893071D03*
G01X8335795Y1993071D03*
G01X8335795Y2093071D03*
G01X8335795Y2193071D03*
G01X8235795Y2093071D03*
G01X8235795Y1993071D03*
G01X8235795Y1893071D03*
G01X8235795Y1793071D03*
G01X8235795Y1593071D03*
G01X8235795Y1493071D03*
G01X8235795Y1393071D03*
G01X8235795Y1193071D03*
G01X8235795Y1093071D03*
G01X8135795Y1093071D03*
G01X8135795Y1293071D03*
G01X8135795Y1493071D03*
G01X8135795Y1593071D03*
G01X8135795Y1693071D03*
G01X8135795Y1893071D03*
G01X8135795Y2193071D03*
G01X8335795Y2293071D03*
G01X8235795Y2293071D03*
G01X8135795Y2293071D03*
G01X8335795Y2393071D03*
G01X8235795Y2393071D03*
G01X8135795Y2393071D03*
G01X8335795Y2493071D03*
G01X8235795Y2493071D03*
G01X8135795Y2493071D03*
G01X8335795Y2593071D03*
G01X8335795Y2693071D03*
G01X8235795Y2693071D03*
G01X8135795Y2593071D03*
G01X8135795Y2693071D03*
G01X8035795Y2593071D03*
G01X8035795Y2693071D03*
G01X6735795Y1193071D03*
G01X6735795Y1093071D03*
G01X6835795Y1093071D03*
G01X6835795Y1193071D03*
G01X6835795Y1293071D03*
G01X6835795Y1393071D03*
G01X6735795Y1393071D03*
G01X6835795Y1493071D03*
G01X6735795Y1493071D03*
G01X8235795Y2793071D03*
G01X8135795Y2793071D03*
G01X8035795Y2793071D03*
G01X7935795Y2793071D03*
G01X6635795Y1193071D03*
G01X6635795Y1293071D03*
G01X6635795Y1393071D03*
G01X6635795Y1493071D03*
G01X6935795Y1293071D03*
G01X7135795Y1293071D03*
G01X7435795Y1293071D03*
G01X7635795Y1293071D03*
G01X7635795Y1193071D03*
G01X7535795Y1193071D03*
G01X7435795Y1193071D03*
G01X7235795Y1193071D03*
G01X7135795Y1193071D03*
G01X7035795Y1193071D03*
G01X6935795Y1193071D03*
G01X6835795Y2493071D03*
G01X6835795Y2393071D03*
G01X6835795Y2293071D03*
G01X6835795Y2193071D03*
G01X6835795Y1893071D03*
G01X6835795Y1793071D03*
G01X6635795Y1593071D03*
G01X6835795Y2593071D03*
G01X6935795Y2593071D03*
G01X7135795Y2593071D03*
G01X7235795Y2593071D03*
G01X7435795Y2593071D03*
G01X7635795Y2593071D03*
G01X6635795Y2593071D03*
G01X7835795Y2593071D03*
G01X6835795Y1593071D03*
G01X6935795Y1093071D03*
G01X7035795Y1093071D03*
G01X7535795Y1093071D03*
G01X7635795Y1093071D03*
G01X7835795Y1093071D03*
G01X6735795Y1593071D03*
G01X6735795Y2493071D03*
G01X6735795Y2393071D03*
G01X6735795Y2293071D03*
G01X6735795Y2093071D03*
G01X6735795Y1993071D03*
G01X6735795Y1893071D03*
G01X6735795Y1793071D03*
G01X7835795Y1193071D03*
G01X7835795Y1293071D03*
G01X7735795Y2693071D03*
G01X7635795Y2693071D03*
G01X7535795Y2693071D03*
G01X7335795Y2693071D03*
G01X7235795Y2693071D03*
G01X7135795Y2693071D03*
G01X6935795Y2693071D03*
G01X6835795Y2693071D03*
G01X6735795Y2693071D03*
G01X6635795Y2693071D03*
G01X6635795Y2493071D03*
G01X6635795Y2393071D03*
G01X6635795Y2293071D03*
G01X6635795Y2193071D03*
G01X6635795Y2093071D03*
G01X6635795Y1993071D03*
G01X6635795Y1893071D03*
G01X6635795Y1793071D03*
G01X6635795Y1693071D03*
G01X7835795Y2693071D03*
G01X7835795Y2793071D03*
G01X7735795Y2793071D03*
G01X7635795Y2793071D03*
G01X7535795Y2793071D03*
G01X7435795Y2793071D03*
G01X7335795Y2793071D03*
G01X7235795Y2793071D03*
G01X7135795Y2793071D03*
G01X7035795Y2793071D03*
G01X6935795Y2793071D03*
G01X6835795Y2793071D03*
G01X6735795Y2793071D03*
G01X6635795Y2793071D03*
G54D10*
G01X10574803Y2868504D02*
G01X8726378Y2868504D01*
G01X8726378Y2868071D02*
G01X8726378Y1018071D01*
G01X8726378Y1018071D02*
G01X10574803Y1018071D01*
G01X10574803Y1018071D02*
G01X10574803Y2868071D01*
G54D11*
G01X9801150Y1493071D03*
G01X9901150Y1493071D03*
G01X10001150Y1493071D03*
G01X10101150Y1493071D03*
G01X10501150Y2793071D03*
G01X10501150Y1093071D03*
G01X10101150Y1193071D03*
G01X10101150Y1093071D03*
G01X10201150Y1093071D03*
G01X10201150Y1193071D03*
G01X10201150Y1293071D03*
G01X10101150Y1293071D03*
G01X10501150Y1193071D03*
G01X10501150Y1293071D03*
G01X10501150Y1393071D03*
G01X10501150Y1493071D03*
G01X10501150Y1593071D03*
G01X10501150Y1693071D03*
G01X10501150Y1793071D03*
G01X10501150Y1893071D03*
G01X10501150Y1993071D03*
G01X10501150Y2093071D03*
G01X10501150Y2193071D03*
G01X10401150Y2093071D03*
G01X10401150Y1993071D03*
G01X10401150Y1893071D03*
G01X10401150Y1793071D03*
G01X10401150Y1593071D03*
G01X10401150Y1493071D03*
G01X10401150Y1393071D03*
G01X10401150Y1193071D03*
G01X10401150Y1093071D03*
G01X10301150Y1093071D03*
G01X10301150Y1293071D03*
G01X10301150Y1493071D03*
G01X10301150Y1593071D03*
G01X10301150Y1693071D03*
G01X10301150Y1893071D03*
G01X10301150Y2193071D03*
G01X10501150Y2293071D03*
G01X10401150Y2293071D03*
G01X10301150Y2293071D03*
G01X10501150Y2393071D03*
G01X10401150Y2393071D03*
G01X10301150Y2393071D03*
G01X10501150Y2493071D03*
G01X10401150Y2493071D03*
G01X10301150Y2493071D03*
G01X10501150Y2593071D03*
G01X10501150Y2693071D03*
G01X10401150Y2693071D03*
G01X10301150Y2593071D03*
G01X10301150Y2693071D03*
G01X10201150Y2593071D03*
G01X10201150Y2693071D03*
G01X8901150Y1193071D03*
G01X8901150Y1093071D03*
G01X9001150Y1093071D03*
G01X9001150Y1193071D03*
G01X9001150Y1293071D03*
G01X9001150Y1393071D03*
G01X8901150Y1393071D03*
G01X9001150Y1493071D03*
G01X8901150Y1493071D03*
G01X10401150Y2793071D03*
G01X10301150Y2793071D03*
G01X10201150Y2793071D03*
G01X10101150Y2793071D03*
G01X8801150Y1193071D03*
G01X8801150Y1293071D03*
G01X8801150Y1393071D03*
G01X8801150Y1493071D03*
G01X9101150Y1293071D03*
G01X9301150Y1293071D03*
G01X9601150Y1293071D03*
G01X9801150Y1293071D03*
G01X9801150Y1193071D03*
G01X9701150Y1193071D03*
G01X9601150Y1193071D03*
G01X9401150Y1193071D03*
G01X9301150Y1193071D03*
G01X9201150Y1193071D03*
G01X9101150Y1193071D03*
G01X9001150Y2493071D03*
G01X9001150Y2393071D03*
G01X9001150Y2293071D03*
G01X9001150Y2193071D03*
G01X9001150Y1893071D03*
G01X9001150Y1793071D03*
G01X8801150Y1593071D03*
G01X9001150Y2593071D03*
G01X9101150Y2593071D03*
G01X9301150Y2593071D03*
G01X9401150Y2593071D03*
G01X9601150Y2593071D03*
G01X9801150Y2593071D03*
G01X8801150Y2593071D03*
G01X10001150Y2593071D03*
G01X9001150Y1593071D03*
G01X9101150Y1093071D03*
G01X9201150Y1093071D03*
G01X9701150Y1093071D03*
G01X9801150Y1093071D03*
G01X10001150Y1093071D03*
G01X8901150Y1593071D03*
G01X8901150Y2493071D03*
G01X8901150Y2393071D03*
G01X8901150Y2293071D03*
G01X8901150Y2093071D03*
G01X8901150Y1993071D03*
G01X8901150Y1893071D03*
G01X8901150Y1793071D03*
G01X10001150Y1193071D03*
G01X10001150Y1293071D03*
G01X9901150Y2693071D03*
G01X9801150Y2693071D03*
G01X9701150Y2693071D03*
G01X9501150Y2693071D03*
G01X9401150Y2693071D03*
G01X9301150Y2693071D03*
G01X9101150Y2693071D03*
G01X9001150Y2693071D03*
G01X8901150Y2693071D03*
G01X8801150Y2693071D03*
G01X8801150Y2493071D03*
G01X8801150Y2393071D03*
G01X8801150Y2293071D03*
G01X8801150Y2193071D03*
G01X8801150Y2093071D03*
G01X8801150Y1993071D03*
G01X8801150Y1893071D03*
G01X8801150Y1793071D03*
G01X8801150Y1693071D03*
G01X10001150Y2693071D03*
G01X10001150Y2793071D03*
G01X9901150Y2793071D03*
G01X9801150Y2793071D03*
G01X9701150Y2793071D03*
G01X9601150Y2793071D03*
G01X9501150Y2793071D03*
G01X9401150Y2793071D03*
G01X9301150Y2793071D03*
G01X9201150Y2793071D03*
G01X9101150Y2793071D03*
G01X9001150Y2793071D03*
G01X8901150Y2793071D03*
G01X8801150Y2793071D03*
M02*
