G04 #@! TF.GenerationSoftware,KiCad,Pcbnew,5.1.9*
G04 #@! TF.CreationDate,2021-05-20T11:39:59+02:00*
G04 #@! TF.ProjectId,68040_68060_adapter,36383034-305f-4363-9830-36305f616461,0.2*
G04 #@! TF.SameCoordinates,Original*
G04 #@! TF.FileFunction,Legend,Bot*
G04 #@! TF.FilePolarity,Positive*
%FSLAX46Y46*%
G04 Gerber Fmt 4.6, Leading zero omitted, Abs format (unit mm)*
G04 Created by KiCad (PCBNEW 5.1.9) date 2021-05-20 11:39:59*
%MOMM*%
%LPD*%
G01*
G04 APERTURE LIST*
G04 #@! TA.AperFunction,Profile*
%ADD10C,0.050000*%
G04 #@! TD*
%ADD11C,0.127000*%
%ADD12C,1.500000*%
%ADD13C,2.012400*%
%ADD14O,1.700000X1.700000*%
%ADD15R,1.700000X1.700000*%
G04 APERTURE END LIST*
D10*
X161928800Y-90550000D02*
X162500000Y-90550000D01*
X161928800Y-90550000D02*
X161928800Y-92151000D01*
X158750000Y-135128000D02*
X170688000Y-135128000D01*
X158750000Y-139141200D02*
X158750000Y-135128000D01*
X157930000Y-92140000D02*
X138810000Y-92140000D01*
X138810000Y-90550000D02*
X157930000Y-90550000D01*
X157930000Y-90550000D02*
X157930000Y-92140000D01*
X138810000Y-90550000D02*
X138810000Y-92140000D01*
X111644200Y-43561000D02*
X111644200Y-139141000D01*
X134850000Y-92140000D02*
X115730000Y-92140000D01*
X115730000Y-90550000D02*
X134850000Y-90550000D01*
X134850000Y-90550000D02*
X134850000Y-92140000D01*
X162500000Y-90550000D02*
X162500000Y-43561000D01*
X170699200Y-92151000D02*
X161928800Y-92151000D01*
X115730000Y-90550000D02*
X115730000Y-92140000D01*
X162500000Y-43561000D02*
X111644200Y-43561000D01*
X111644200Y-139141000D02*
X158750000Y-139141200D01*
X170688000Y-135128000D02*
X170699200Y-92151000D01*
D11*
X124979200Y-96596000D02*
G75*
G03*
X124979200Y-96596000I-1270000J0D01*
G01*
X135139200Y-96596000D02*
G75*
G03*
X135139200Y-96596000I-1270000J0D01*
G01*
X117359200Y-121996000D02*
G75*
G03*
X117359200Y-121996000I-1270000J0D01*
G01*
X117359200Y-109296000D02*
G75*
G03*
X117359200Y-109296000I-1270000J0D01*
G01*
X132599200Y-137236000D02*
G75*
G03*
X132599200Y-137236000I-1270000J0D01*
G01*
X130059200Y-137236000D02*
G75*
G03*
X130059200Y-137236000I-1270000J0D01*
G01*
X127519200Y-137236000D02*
G75*
G03*
X127519200Y-137236000I-1270000J0D01*
G01*
X142759200Y-99136000D02*
G75*
G03*
X142759200Y-99136000I-1270000J0D01*
G01*
X137679200Y-99136000D02*
G75*
G03*
X137679200Y-99136000I-1270000J0D01*
G01*
X132599200Y-99136000D02*
G75*
G03*
X132599200Y-99136000I-1270000J0D01*
G01*
X124979200Y-99136000D02*
G75*
G03*
X124979200Y-99136000I-1270000J0D01*
G01*
X117359200Y-99136000D02*
G75*
G03*
X117359200Y-99136000I-1270000J0D01*
G01*
X119899200Y-121996000D02*
G75*
G03*
X119899200Y-121996000I-1270000J0D01*
G01*
X119899200Y-114376000D02*
G75*
G03*
X119899200Y-114376000I-1270000J0D01*
G01*
X119899200Y-111836000D02*
G75*
G03*
X119899200Y-111836000I-1270000J0D01*
G01*
X142759200Y-132156000D02*
G75*
G03*
X142759200Y-132156000I-1270000J0D01*
G01*
X132599200Y-134696000D02*
G75*
G03*
X132599200Y-134696000I-1270000J0D01*
G01*
X132599200Y-132156000D02*
G75*
G03*
X132599200Y-132156000I-1270000J0D01*
G01*
X124979200Y-132156000D02*
G75*
G03*
X124979200Y-132156000I-1270000J0D01*
G01*
X117359200Y-132156000D02*
G75*
G03*
X117359200Y-132156000I-1270000J0D01*
G01*
X147839200Y-96596000D02*
G75*
G03*
X147839200Y-96596000I-1270000J0D01*
G01*
X147839200Y-99136000D02*
G75*
G03*
X147839200Y-99136000I-1270000J0D01*
G01*
X155459200Y-99136000D02*
G75*
G03*
X155459200Y-99136000I-1270000J0D01*
G01*
X152919200Y-111836000D02*
G75*
G03*
X152919200Y-111836000I-1270000J0D01*
G01*
X152919200Y-114376000D02*
G75*
G03*
X152919200Y-114376000I-1270000J0D01*
G01*
X152919200Y-119456000D02*
G75*
G03*
X152919200Y-119456000I-1270000J0D01*
G01*
X152919200Y-134696000D02*
G75*
G03*
X152919200Y-134696000I-1270000J0D01*
G01*
X155459200Y-132156000D02*
G75*
G03*
X155459200Y-132156000I-1270000J0D01*
G01*
X155459200Y-121996000D02*
G75*
G03*
X155459200Y-121996000I-1270000J0D01*
G01*
X155459200Y-109296000D02*
G75*
G03*
X155459200Y-109296000I-1270000J0D01*
G01*
X132599200Y-101676000D02*
G75*
G03*
X132599200Y-101676000I-1270000J0D01*
G01*
X137679200Y-101676000D02*
G75*
G03*
X137679200Y-101676000I-1270000J0D01*
G01*
X142759200Y-101676000D02*
G75*
G03*
X142759200Y-101676000I-1270000J0D01*
G01*
X150379200Y-101676000D02*
G75*
G03*
X150379200Y-101676000I-1270000J0D01*
G01*
X122439200Y-104216000D02*
G75*
G03*
X122439200Y-104216000I-1270000J0D01*
G01*
X122439200Y-106756000D02*
G75*
G03*
X122439200Y-106756000I-1270000J0D01*
G01*
X122439200Y-109296000D02*
G75*
G03*
X122439200Y-109296000I-1270000J0D01*
G01*
X122439200Y-111836000D02*
G75*
G03*
X122439200Y-111836000I-1270000J0D01*
G01*
X122439200Y-114376000D02*
G75*
G03*
X122439200Y-114376000I-1270000J0D01*
G01*
X122439200Y-119456000D02*
G75*
G03*
X122439200Y-119456000I-1270000J0D01*
G01*
X122439200Y-129616000D02*
G75*
G03*
X122439200Y-129616000I-1270000J0D01*
G01*
X124979200Y-129616000D02*
G75*
G03*
X124979200Y-129616000I-1270000J0D01*
G01*
X127519200Y-129616000D02*
G75*
G03*
X127519200Y-129616000I-1270000J0D01*
G01*
X130059200Y-129616000D02*
G75*
G03*
X130059200Y-129616000I-1270000J0D01*
G01*
X132599200Y-129616000D02*
G75*
G03*
X132599200Y-129616000I-1270000J0D01*
G01*
X135139200Y-129616000D02*
G75*
G03*
X135139200Y-129616000I-1270000J0D01*
G01*
X137679200Y-129616000D02*
G75*
G03*
X137679200Y-129616000I-1270000J0D01*
G01*
X140219200Y-129616000D02*
G75*
G03*
X140219200Y-129616000I-1270000J0D01*
G01*
X142759200Y-129616000D02*
G75*
G03*
X142759200Y-129616000I-1270000J0D01*
G01*
X145299200Y-129616000D02*
G75*
G03*
X145299200Y-129616000I-1270000J0D01*
G01*
X147839200Y-129616000D02*
G75*
G03*
X147839200Y-129616000I-1270000J0D01*
G01*
X150379200Y-129616000D02*
G75*
G03*
X150379200Y-129616000I-1270000J0D01*
G01*
X150379200Y-104216000D02*
G75*
G03*
X150379200Y-104216000I-1270000J0D01*
G01*
X150379200Y-106756000D02*
G75*
G03*
X150379200Y-106756000I-1270000J0D01*
G01*
X150379200Y-109296000D02*
G75*
G03*
X150379200Y-109296000I-1270000J0D01*
G01*
X150379200Y-111836000D02*
G75*
G03*
X150379200Y-111836000I-1270000J0D01*
G01*
X150379200Y-114376000D02*
G75*
G03*
X150379200Y-114376000I-1270000J0D01*
G01*
X150379200Y-116916000D02*
G75*
G03*
X150379200Y-116916000I-1270000J0D01*
G01*
X150379200Y-119456000D02*
G75*
G03*
X150379200Y-119456000I-1270000J0D01*
G01*
X150379200Y-121996000D02*
G75*
G03*
X150379200Y-121996000I-1270000J0D01*
G01*
X150379200Y-124536000D02*
G75*
G03*
X150379200Y-124536000I-1270000J0D01*
G01*
X150379200Y-127076000D02*
G75*
G03*
X150379200Y-127076000I-1270000J0D01*
G01*
X122439200Y-127076000D02*
G75*
G03*
X122439200Y-127076000I-1270000J0D01*
G01*
%LPC*%
D12*
X159867600Y-91363800D03*
X136906000Y-91338400D03*
X113766600Y-91338400D03*
D13*
X138949200Y-127076000D03*
X141489200Y-127076000D03*
X144029200Y-127076000D03*
X146569200Y-127076000D03*
X160328000Y-110566000D03*
X160328000Y-108026000D03*
X160328000Y-105486000D03*
X160328000Y-102946000D03*
X160328000Y-100406000D03*
X160328000Y-97866000D03*
X138967200Y-78486000D03*
X141507200Y-78486000D03*
X144047200Y-78486000D03*
X146587200Y-78486000D03*
X160346000Y-49276000D03*
X160346000Y-51816000D03*
X160346000Y-54356000D03*
X160346000Y-56896000D03*
X160346000Y-59436000D03*
X160346000Y-61976000D03*
X113567200Y-45466000D03*
X116107200Y-45466000D03*
X118647200Y-45466000D03*
X121187200Y-45466000D03*
X123727200Y-45466000D03*
X126267200Y-45466000D03*
X128807200Y-45466000D03*
X131347200Y-45466000D03*
X133887200Y-45466000D03*
X136427200Y-45466000D03*
X138967200Y-45466000D03*
X141507200Y-45466000D03*
X144047200Y-45466000D03*
X144047200Y-48006000D03*
X113567200Y-73406000D03*
X113567200Y-70866000D03*
X113567200Y-68326000D03*
X113567200Y-65786000D03*
X113567200Y-63246000D03*
X113567200Y-60706000D03*
X113567200Y-58166000D03*
X113567200Y-55626000D03*
X113567200Y-53086000D03*
X113567200Y-48006000D03*
X116107200Y-48006000D03*
X118647200Y-48006000D03*
X121187200Y-48006000D03*
X123727200Y-48006000D03*
X126267200Y-48006000D03*
X128807200Y-48006000D03*
X131347200Y-48006000D03*
X133887200Y-48006000D03*
X136427200Y-48006000D03*
X138967200Y-48006000D03*
X141507200Y-48006000D03*
X144047200Y-83566000D03*
X144047200Y-86106000D03*
X116107200Y-73406000D03*
X116107200Y-70866000D03*
X116107200Y-68326000D03*
X116107200Y-65786000D03*
X116107200Y-63246000D03*
X116107200Y-60706000D03*
X116107200Y-58166000D03*
X116107200Y-55626000D03*
X116107200Y-53086000D03*
X116107200Y-75946000D03*
X144047200Y-88646000D03*
X141507200Y-88646000D03*
X138967200Y-88646000D03*
X136427200Y-88646000D03*
X133887200Y-88646000D03*
X131347200Y-88646000D03*
X128807200Y-88646000D03*
X126267200Y-88646000D03*
X123727200Y-88646000D03*
X121187200Y-88646000D03*
X118647200Y-75946000D03*
X144047200Y-50546000D03*
X113567200Y-50546000D03*
X141507200Y-50546000D03*
X138967200Y-50546000D03*
X136427200Y-50546000D03*
X133887200Y-50546000D03*
X131347200Y-50546000D03*
X128807200Y-50546000D03*
X126267200Y-50546000D03*
X123727200Y-50546000D03*
X121187200Y-50546000D03*
X118647200Y-50546000D03*
X116107200Y-50546000D03*
X113567200Y-75946000D03*
X118647200Y-73406000D03*
X118647200Y-70866000D03*
X118647200Y-68326000D03*
X118647200Y-65786000D03*
X118647200Y-63246000D03*
X118647200Y-60706000D03*
X118647200Y-58166000D03*
X118647200Y-55626000D03*
X118647200Y-53086000D03*
X141507200Y-86106000D03*
X141507200Y-83566000D03*
X121187200Y-86106000D03*
X123727200Y-86106000D03*
X126267200Y-86106000D03*
X128807200Y-86106000D03*
X131347200Y-86106000D03*
X133887200Y-86106000D03*
X136427200Y-86106000D03*
X138967200Y-86106000D03*
X138967200Y-83566000D03*
X136427200Y-83566000D03*
X133887200Y-83566000D03*
X131347200Y-83566000D03*
X128807200Y-83566000D03*
X126267200Y-83566000D03*
X123727200Y-83566000D03*
X121187200Y-83566000D03*
X113567200Y-78486000D03*
X113567200Y-81026000D03*
X113567200Y-83566000D03*
X113567200Y-86106000D03*
X146587200Y-45466000D03*
X149127200Y-45466000D03*
X151667200Y-45466000D03*
X154207200Y-45466000D03*
X116107200Y-78486000D03*
X118647200Y-78486000D03*
X116107200Y-81026000D03*
X118647200Y-81026000D03*
X118647200Y-83566000D03*
X118647200Y-86106000D03*
X118647200Y-88646000D03*
X116107200Y-88646000D03*
X116107200Y-86106000D03*
X116107200Y-83566000D03*
X146587200Y-48006000D03*
X146587200Y-50546000D03*
X149127200Y-48006000D03*
X149127200Y-50546000D03*
X151667200Y-48006000D03*
X151667200Y-50546000D03*
X154207200Y-48006000D03*
X154207200Y-50546000D03*
X156747200Y-48006000D03*
X156747200Y-50546000D03*
X151667200Y-53086000D03*
X154207200Y-53086000D03*
X156747200Y-53086000D03*
X151667200Y-55626000D03*
X154207200Y-55626000D03*
X156747200Y-55626000D03*
X151667200Y-58166000D03*
X154207200Y-58166000D03*
X156747200Y-58166000D03*
X151667200Y-60706000D03*
X151667200Y-63246000D03*
X151667200Y-65786000D03*
X151667200Y-68326000D03*
X151667200Y-70866000D03*
X151667200Y-73406000D03*
X151667200Y-75946000D03*
X151667200Y-78486000D03*
X151667200Y-81026000D03*
X151667200Y-83566000D03*
X151667200Y-86106000D03*
X151667200Y-88646000D03*
X154207200Y-88646000D03*
X154207200Y-86106000D03*
X154207200Y-83566000D03*
X154207200Y-81026000D03*
X154207200Y-78486000D03*
X154207200Y-75946000D03*
X154207200Y-73406000D03*
X154207200Y-70866000D03*
X154207200Y-68326000D03*
X154207200Y-65786000D03*
X154207200Y-63246000D03*
X154207200Y-60706000D03*
X156747200Y-60706000D03*
X156747200Y-63246000D03*
X156747200Y-65786000D03*
X156747200Y-68326000D03*
X156747200Y-70866000D03*
X156747200Y-73406000D03*
X156747200Y-75946000D03*
X156747200Y-78486000D03*
X156747200Y-81026000D03*
X156747200Y-83566000D03*
X156747200Y-86106000D03*
X146587200Y-83566000D03*
X149127200Y-83566000D03*
X149127200Y-86106000D03*
X149127200Y-88646000D03*
X146587200Y-88646000D03*
X146587200Y-86106000D03*
X156747200Y-88646000D03*
X156747200Y-45466000D03*
X121169200Y-127076000D03*
X149109200Y-127076000D03*
X149109200Y-124536000D03*
X149109200Y-121996000D03*
X149109200Y-119456000D03*
X149109200Y-116916000D03*
X149109200Y-114376000D03*
X149109200Y-111836000D03*
X149109200Y-109296000D03*
X149109200Y-106756000D03*
X149109200Y-104216000D03*
X149109200Y-129616000D03*
X146569200Y-129616000D03*
X144029200Y-129616000D03*
X141489200Y-129616000D03*
X138949200Y-129616000D03*
X136409200Y-129616000D03*
X133869200Y-129616000D03*
X131329200Y-129616000D03*
X128789200Y-129616000D03*
X126249200Y-129616000D03*
X123709200Y-129616000D03*
X121169200Y-129616000D03*
X121169200Y-119456000D03*
X121169200Y-114376000D03*
X121169200Y-111836000D03*
X121169200Y-109296000D03*
X121169200Y-106756000D03*
X121169200Y-104216000D03*
X149109200Y-101676000D03*
X141489200Y-101676000D03*
X136409200Y-101676000D03*
X131329200Y-101676000D03*
X156729200Y-94056000D03*
X156729200Y-137236000D03*
X146569200Y-134696000D03*
X146569200Y-137236000D03*
X149109200Y-137236000D03*
X149109200Y-134696000D03*
X149109200Y-132156000D03*
X146569200Y-132156000D03*
X156729200Y-134696000D03*
X156729200Y-132156000D03*
X156729200Y-129616000D03*
X156729200Y-127076000D03*
X156729200Y-124536000D03*
X156729200Y-121996000D03*
X156729200Y-119456000D03*
X156729200Y-116916000D03*
X156729200Y-114376000D03*
X156729200Y-111836000D03*
X156729200Y-109296000D03*
X154189200Y-109296000D03*
X154189200Y-111836000D03*
X154189200Y-114376000D03*
X154189200Y-116916000D03*
X154189200Y-119456000D03*
X154189200Y-121996000D03*
X154189200Y-124536000D03*
X154189200Y-127076000D03*
X154189200Y-129616000D03*
X154189200Y-132156000D03*
X154189200Y-134696000D03*
X154189200Y-137236000D03*
X151649200Y-137236000D03*
X151649200Y-134696000D03*
X151649200Y-132156000D03*
X151649200Y-127076000D03*
X151649200Y-124536000D03*
X151649200Y-121996000D03*
X151649200Y-119456000D03*
X151649200Y-116916000D03*
X151649200Y-114376000D03*
X151649200Y-111836000D03*
X151649200Y-109296000D03*
X156729200Y-106756000D03*
X154189200Y-106756000D03*
X151649200Y-106756000D03*
X156729200Y-104216000D03*
X154189200Y-104216000D03*
X151649200Y-104216000D03*
X156729200Y-101676000D03*
X154189200Y-101676000D03*
X151649200Y-101676000D03*
X156729200Y-99136000D03*
X156729200Y-96596000D03*
X154189200Y-99136000D03*
X154189200Y-96596000D03*
X151649200Y-99136000D03*
X151649200Y-96596000D03*
X149109200Y-99136000D03*
X149109200Y-96596000D03*
X146569200Y-99136000D03*
X146569200Y-96596000D03*
X116089200Y-132156000D03*
X116089200Y-134696000D03*
X116089200Y-137236000D03*
X118629200Y-137236000D03*
X118629200Y-134696000D03*
X118629200Y-132156000D03*
X118629200Y-129616000D03*
X116089200Y-129616000D03*
X118629200Y-127076000D03*
X116089200Y-127076000D03*
X154189200Y-94056000D03*
X151649200Y-94056000D03*
X149109200Y-94056000D03*
X146569200Y-94056000D03*
X113549200Y-134696000D03*
X113549200Y-132156000D03*
X113549200Y-129616000D03*
X113549200Y-127076000D03*
X121169200Y-132156000D03*
X123709200Y-132156000D03*
X126249200Y-132156000D03*
X131329200Y-132156000D03*
X133869200Y-132156000D03*
X138949200Y-132156000D03*
X138949200Y-134696000D03*
X136409200Y-134696000D03*
X133869200Y-134696000D03*
X131329200Y-134696000D03*
X128789200Y-134696000D03*
X126249200Y-134696000D03*
X123709200Y-134696000D03*
X121169200Y-134696000D03*
X141489200Y-132156000D03*
X118629200Y-101676000D03*
X118629200Y-104216000D03*
X118629200Y-106756000D03*
X118629200Y-109296000D03*
X118629200Y-111836000D03*
X118629200Y-114376000D03*
X118629200Y-116916000D03*
X118629200Y-119456000D03*
X118629200Y-121996000D03*
X113549200Y-124536000D03*
X116089200Y-99136000D03*
X118629200Y-99136000D03*
X121169200Y-99136000D03*
X123709200Y-99136000D03*
X126249200Y-99136000D03*
X128789200Y-99136000D03*
X131329200Y-99136000D03*
X133869200Y-99136000D03*
X136409200Y-99136000D03*
X138949200Y-99136000D03*
X141489200Y-99136000D03*
X113549200Y-99136000D03*
X144029200Y-99136000D03*
X118629200Y-124536000D03*
X121169200Y-137236000D03*
X123709200Y-137236000D03*
X126249200Y-137236000D03*
X128789200Y-137236000D03*
X131329200Y-137236000D03*
X136409200Y-137236000D03*
X138949200Y-137236000D03*
X144029200Y-137236000D03*
X116089200Y-124536000D03*
X116089200Y-101676000D03*
X116089200Y-104216000D03*
X116089200Y-106756000D03*
X116089200Y-109296000D03*
X116089200Y-111836000D03*
X116089200Y-114376000D03*
X116089200Y-116916000D03*
X116089200Y-119456000D03*
X116089200Y-121996000D03*
X144029200Y-134696000D03*
X144029200Y-132156000D03*
X141489200Y-96596000D03*
X138949200Y-96596000D03*
X136409200Y-96596000D03*
X133869200Y-96596000D03*
X131329200Y-96596000D03*
X128789200Y-96596000D03*
X126249200Y-96596000D03*
X123709200Y-96596000D03*
X121169200Y-96596000D03*
X118629200Y-96596000D03*
X116089200Y-96596000D03*
X113549200Y-96596000D03*
X113549200Y-101676000D03*
X113549200Y-104216000D03*
X113549200Y-106756000D03*
X113549200Y-109296000D03*
X113549200Y-111836000D03*
X113549200Y-114376000D03*
X113549200Y-116916000D03*
X113549200Y-119456000D03*
X113549200Y-121996000D03*
X144029200Y-96596000D03*
X144029200Y-94056000D03*
X141489200Y-94056000D03*
X138949200Y-94056000D03*
X136409200Y-94056000D03*
X133869200Y-94056000D03*
X131329200Y-94056000D03*
X128789200Y-94056000D03*
X126249200Y-94056000D03*
X123709200Y-94056000D03*
X121169200Y-94056000D03*
X118629200Y-94056000D03*
X116089200Y-94056000D03*
X113549200Y-94056000D03*
D14*
X163322000Y-133096000D03*
D15*
X160782000Y-133096000D03*
X163350000Y-102950000D03*
D14*
X163350000Y-100410000D03*
X163350000Y-97870000D03*
M02*
