G04 #@! TF.GenerationSoftware,KiCad,Pcbnew,5.1.9*
G04 #@! TF.CreationDate,2021-05-20T11:39:59+02:00*
G04 #@! TF.ProjectId,68040_68060_adapter,36383034-305f-4363-9830-36305f616461,0.2*
G04 #@! TF.SameCoordinates,Original*
G04 #@! TF.FileFunction,Soldermask,Top*
G04 #@! TF.FilePolarity,Negative*
%FSLAX46Y46*%
G04 Gerber Fmt 4.6, Leading zero omitted, Abs format (unit mm)*
G04 Created by KiCad (PCBNEW 5.1.9) date 2021-05-20 11:39:59*
%MOMM*%
%LPD*%
G01*
G04 APERTURE LIST*
G04 #@! TA.AperFunction,Profile*
%ADD10C,0.050000*%
G04 #@! TD*
%ADD11C,1.500000*%
%ADD12R,10.800000X9.400000*%
%ADD13R,1.100000X4.600000*%
%ADD14C,2.012400*%
%ADD15R,0.400000X0.900000*%
%ADD16R,1.100000X1.100000*%
%ADD17O,1.700000X1.700000*%
%ADD18R,1.700000X1.700000*%
G04 APERTURE END LIST*
D10*
X161928800Y-90550000D02*
X162500000Y-90550000D01*
X161928800Y-90550000D02*
X161928800Y-92151000D01*
X158750000Y-135128000D02*
X170688000Y-135128000D01*
X158750000Y-139141200D02*
X158750000Y-135128000D01*
X157930000Y-92140000D02*
X138810000Y-92140000D01*
X138810000Y-90550000D02*
X157930000Y-90550000D01*
X157930000Y-90550000D02*
X157930000Y-92140000D01*
X138810000Y-90550000D02*
X138810000Y-92140000D01*
X111644200Y-43561000D02*
X111644200Y-139141000D01*
X134850000Y-92140000D02*
X115730000Y-92140000D01*
X115730000Y-90550000D02*
X134850000Y-90550000D01*
X134850000Y-90550000D02*
X134850000Y-92140000D01*
X162500000Y-90550000D02*
X162500000Y-43561000D01*
X170699200Y-92151000D02*
X161928800Y-92151000D01*
X115730000Y-90550000D02*
X115730000Y-92140000D01*
X162500000Y-43561000D02*
X111644200Y-43561000D01*
X111644200Y-139141000D02*
X158750000Y-139141200D01*
X170688000Y-135128000D02*
X170699200Y-92151000D01*
D11*
X159867600Y-91363800D03*
X136906000Y-91338400D03*
X113766600Y-91338400D03*
D12*
X164592000Y-124533000D03*
D13*
X162052000Y-115383000D03*
X164592000Y-115383000D03*
X167132000Y-115383000D03*
G36*
G01*
X159752000Y-67376000D02*
X160702000Y-67376000D01*
G75*
G02*
X160952000Y-67626000I0J-250000D01*
G01*
X160952000Y-68301000D01*
G75*
G02*
X160702000Y-68551000I-250000J0D01*
G01*
X159752000Y-68551000D01*
G75*
G02*
X159502000Y-68301000I0J250000D01*
G01*
X159502000Y-67626000D01*
G75*
G02*
X159752000Y-67376000I250000J0D01*
G01*
G37*
G36*
G01*
X159752000Y-65301000D02*
X160702000Y-65301000D01*
G75*
G02*
X160952000Y-65551000I0J-250000D01*
G01*
X160952000Y-66226000D01*
G75*
G02*
X160702000Y-66476000I-250000J0D01*
G01*
X159752000Y-66476000D01*
G75*
G02*
X159502000Y-66226000I0J250000D01*
G01*
X159502000Y-65551000D01*
G75*
G02*
X159752000Y-65301000I250000J0D01*
G01*
G37*
G36*
G01*
X162590000Y-94085000D02*
X162590000Y-93135000D01*
G75*
G02*
X162840000Y-92885000I250000J0D01*
G01*
X163515000Y-92885000D01*
G75*
G02*
X163765000Y-93135000I0J-250000D01*
G01*
X163765000Y-94085000D01*
G75*
G02*
X163515000Y-94335000I-250000J0D01*
G01*
X162840000Y-94335000D01*
G75*
G02*
X162590000Y-94085000I0J250000D01*
G01*
G37*
G36*
G01*
X160515000Y-94085000D02*
X160515000Y-93135000D01*
G75*
G02*
X160765000Y-92885000I250000J0D01*
G01*
X161440000Y-92885000D01*
G75*
G02*
X161690000Y-93135000I0J-250000D01*
G01*
X161690000Y-94085000D01*
G75*
G02*
X161440000Y-94335000I-250000J0D01*
G01*
X160765000Y-94335000D01*
G75*
G02*
X160515000Y-94085000I0J250000D01*
G01*
G37*
G36*
G01*
X166312000Y-111981000D02*
X166312000Y-111031000D01*
G75*
G02*
X166562000Y-110781000I250000J0D01*
G01*
X167237000Y-110781000D01*
G75*
G02*
X167487000Y-111031000I0J-250000D01*
G01*
X167487000Y-111981000D01*
G75*
G02*
X167237000Y-112231000I-250000J0D01*
G01*
X166562000Y-112231000D01*
G75*
G02*
X166312000Y-111981000I0J250000D01*
G01*
G37*
G36*
G01*
X164237000Y-111981000D02*
X164237000Y-111031000D01*
G75*
G02*
X164487000Y-110781000I250000J0D01*
G01*
X165162000Y-110781000D01*
G75*
G02*
X165412000Y-111031000I0J-250000D01*
G01*
X165412000Y-111981000D01*
G75*
G02*
X165162000Y-112231000I-250000J0D01*
G01*
X164487000Y-112231000D01*
G75*
G02*
X164237000Y-111981000I0J250000D01*
G01*
G37*
G36*
G01*
X163445880Y-107661520D02*
X162495880Y-107661520D01*
G75*
G02*
X162245880Y-107411520I0J250000D01*
G01*
X162245880Y-106736520D01*
G75*
G02*
X162495880Y-106486520I250000J0D01*
G01*
X163445880Y-106486520D01*
G75*
G02*
X163695880Y-106736520I0J-250000D01*
G01*
X163695880Y-107411520D01*
G75*
G02*
X163445880Y-107661520I-250000J0D01*
G01*
G37*
G36*
G01*
X163445880Y-109736520D02*
X162495880Y-109736520D01*
G75*
G02*
X162245880Y-109486520I0J250000D01*
G01*
X162245880Y-108811520D01*
G75*
G02*
X162495880Y-108561520I250000J0D01*
G01*
X163445880Y-108561520D01*
G75*
G02*
X163695880Y-108811520I0J-250000D01*
G01*
X163695880Y-109486520D01*
G75*
G02*
X163445880Y-109736520I-250000J0D01*
G01*
G37*
G36*
G01*
X127988450Y-65971000D02*
X127038450Y-65971000D01*
G75*
G02*
X126788450Y-65721000I0J250000D01*
G01*
X126788450Y-65046000D01*
G75*
G02*
X127038450Y-64796000I250000J0D01*
G01*
X127988450Y-64796000D01*
G75*
G02*
X128238450Y-65046000I0J-250000D01*
G01*
X128238450Y-65721000D01*
G75*
G02*
X127988450Y-65971000I-250000J0D01*
G01*
G37*
G36*
G01*
X127988450Y-68046000D02*
X127038450Y-68046000D01*
G75*
G02*
X126788450Y-67796000I0J250000D01*
G01*
X126788450Y-67121000D01*
G75*
G02*
X127038450Y-66871000I250000J0D01*
G01*
X127988450Y-66871000D01*
G75*
G02*
X128238450Y-67121000I0J-250000D01*
G01*
X128238450Y-67796000D01*
G75*
G02*
X127988450Y-68046000I-250000J0D01*
G01*
G37*
G36*
G01*
X137600200Y-59827200D02*
X137600200Y-58877200D01*
G75*
G02*
X137850200Y-58627200I250000J0D01*
G01*
X138525200Y-58627200D01*
G75*
G02*
X138775200Y-58877200I0J-250000D01*
G01*
X138775200Y-59827200D01*
G75*
G02*
X138525200Y-60077200I-250000J0D01*
G01*
X137850200Y-60077200D01*
G75*
G02*
X137600200Y-59827200I0J250000D01*
G01*
G37*
G36*
G01*
X135525200Y-59827200D02*
X135525200Y-58877200D01*
G75*
G02*
X135775200Y-58627200I250000J0D01*
G01*
X136450200Y-58627200D01*
G75*
G02*
X136700200Y-58877200I0J-250000D01*
G01*
X136700200Y-59827200D01*
G75*
G02*
X136450200Y-60077200I-250000J0D01*
G01*
X135775200Y-60077200D01*
G75*
G02*
X135525200Y-59827200I0J250000D01*
G01*
G37*
G36*
G01*
X127221000Y-117914000D02*
X126271000Y-117914000D01*
G75*
G02*
X126021000Y-117664000I0J250000D01*
G01*
X126021000Y-116989000D01*
G75*
G02*
X126271000Y-116739000I250000J0D01*
G01*
X127221000Y-116739000D01*
G75*
G02*
X127471000Y-116989000I0J-250000D01*
G01*
X127471000Y-117664000D01*
G75*
G02*
X127221000Y-117914000I-250000J0D01*
G01*
G37*
G36*
G01*
X127221000Y-119989000D02*
X126271000Y-119989000D01*
G75*
G02*
X126021000Y-119739000I0J250000D01*
G01*
X126021000Y-119064000D01*
G75*
G02*
X126271000Y-118814000I250000J0D01*
G01*
X127221000Y-118814000D01*
G75*
G02*
X127471000Y-119064000I0J-250000D01*
G01*
X127471000Y-119739000D01*
G75*
G02*
X127221000Y-119989000I-250000J0D01*
G01*
G37*
G36*
G01*
X143281800Y-110940000D02*
X144231800Y-110940000D01*
G75*
G02*
X144481800Y-111190000I0J-250000D01*
G01*
X144481800Y-111865000D01*
G75*
G02*
X144231800Y-112115000I-250000J0D01*
G01*
X143281800Y-112115000D01*
G75*
G02*
X143031800Y-111865000I0J250000D01*
G01*
X143031800Y-111190000D01*
G75*
G02*
X143281800Y-110940000I250000J0D01*
G01*
G37*
G36*
G01*
X143281800Y-108865000D02*
X144231800Y-108865000D01*
G75*
G02*
X144481800Y-109115000I0J-250000D01*
G01*
X144481800Y-109790000D01*
G75*
G02*
X144231800Y-110040000I-250000J0D01*
G01*
X143281800Y-110040000D01*
G75*
G02*
X143031800Y-109790000I0J250000D01*
G01*
X143031800Y-109115000D01*
G75*
G02*
X143281800Y-108865000I250000J0D01*
G01*
G37*
G36*
G01*
X126271000Y-110940000D02*
X127221000Y-110940000D01*
G75*
G02*
X127471000Y-111190000I0J-250000D01*
G01*
X127471000Y-111865000D01*
G75*
G02*
X127221000Y-112115000I-250000J0D01*
G01*
X126271000Y-112115000D01*
G75*
G02*
X126021000Y-111865000I0J250000D01*
G01*
X126021000Y-111190000D01*
G75*
G02*
X126271000Y-110940000I250000J0D01*
G01*
G37*
G36*
G01*
X126271000Y-108865000D02*
X127221000Y-108865000D01*
G75*
G02*
X127471000Y-109115000I0J-250000D01*
G01*
X127471000Y-109790000D01*
G75*
G02*
X127221000Y-110040000I-250000J0D01*
G01*
X126271000Y-110040000D01*
G75*
G02*
X126021000Y-109790000I0J250000D01*
G01*
X126021000Y-109115000D01*
G75*
G02*
X126271000Y-108865000I250000J0D01*
G01*
G37*
G36*
G01*
X144235400Y-117406000D02*
X143285400Y-117406000D01*
G75*
G02*
X143035400Y-117156000I0J250000D01*
G01*
X143035400Y-116481000D01*
G75*
G02*
X143285400Y-116231000I250000J0D01*
G01*
X144235400Y-116231000D01*
G75*
G02*
X144485400Y-116481000I0J-250000D01*
G01*
X144485400Y-117156000D01*
G75*
G02*
X144235400Y-117406000I-250000J0D01*
G01*
G37*
G36*
G01*
X144235400Y-119481000D02*
X143285400Y-119481000D01*
G75*
G02*
X143035400Y-119231000I0J250000D01*
G01*
X143035400Y-118556000D01*
G75*
G02*
X143285400Y-118306000I250000J0D01*
G01*
X144235400Y-118306000D01*
G75*
G02*
X144485400Y-118556000I0J-250000D01*
G01*
X144485400Y-119231000D01*
G75*
G02*
X144235400Y-119481000I-250000J0D01*
G01*
G37*
D14*
X138949200Y-127076000D03*
X141489200Y-127076000D03*
X144029200Y-127076000D03*
X146569200Y-127076000D03*
X160328000Y-110566000D03*
X160328000Y-108026000D03*
X160328000Y-105486000D03*
X160328000Y-102946000D03*
X160328000Y-100406000D03*
X160328000Y-97866000D03*
X138967200Y-78486000D03*
X141507200Y-78486000D03*
X144047200Y-78486000D03*
X146587200Y-78486000D03*
X160346000Y-49276000D03*
X160346000Y-51816000D03*
X160346000Y-54356000D03*
X160346000Y-56896000D03*
X160346000Y-59436000D03*
X160346000Y-61976000D03*
X113567200Y-45466000D03*
X116107200Y-45466000D03*
X118647200Y-45466000D03*
X121187200Y-45466000D03*
X123727200Y-45466000D03*
X126267200Y-45466000D03*
X128807200Y-45466000D03*
X131347200Y-45466000D03*
X133887200Y-45466000D03*
X136427200Y-45466000D03*
X138967200Y-45466000D03*
X141507200Y-45466000D03*
X144047200Y-45466000D03*
X144047200Y-48006000D03*
X113567200Y-73406000D03*
X113567200Y-70866000D03*
X113567200Y-68326000D03*
X113567200Y-65786000D03*
X113567200Y-63246000D03*
X113567200Y-60706000D03*
X113567200Y-58166000D03*
X113567200Y-55626000D03*
X113567200Y-53086000D03*
X113567200Y-48006000D03*
X116107200Y-48006000D03*
X118647200Y-48006000D03*
X121187200Y-48006000D03*
X123727200Y-48006000D03*
X126267200Y-48006000D03*
X128807200Y-48006000D03*
X131347200Y-48006000D03*
X133887200Y-48006000D03*
X136427200Y-48006000D03*
X138967200Y-48006000D03*
X141507200Y-48006000D03*
X144047200Y-83566000D03*
X144047200Y-86106000D03*
X116107200Y-73406000D03*
X116107200Y-70866000D03*
X116107200Y-68326000D03*
X116107200Y-65786000D03*
X116107200Y-63246000D03*
X116107200Y-60706000D03*
X116107200Y-58166000D03*
X116107200Y-55626000D03*
X116107200Y-53086000D03*
X116107200Y-75946000D03*
X144047200Y-88646000D03*
X141507200Y-88646000D03*
X138967200Y-88646000D03*
X136427200Y-88646000D03*
X133887200Y-88646000D03*
X131347200Y-88646000D03*
X128807200Y-88646000D03*
X126267200Y-88646000D03*
X123727200Y-88646000D03*
X121187200Y-88646000D03*
X118647200Y-75946000D03*
X144047200Y-50546000D03*
X113567200Y-50546000D03*
X141507200Y-50546000D03*
X138967200Y-50546000D03*
X136427200Y-50546000D03*
X133887200Y-50546000D03*
X131347200Y-50546000D03*
X128807200Y-50546000D03*
X126267200Y-50546000D03*
X123727200Y-50546000D03*
X121187200Y-50546000D03*
X118647200Y-50546000D03*
X116107200Y-50546000D03*
X113567200Y-75946000D03*
X118647200Y-73406000D03*
X118647200Y-70866000D03*
X118647200Y-68326000D03*
X118647200Y-65786000D03*
X118647200Y-63246000D03*
X118647200Y-60706000D03*
X118647200Y-58166000D03*
X118647200Y-55626000D03*
X118647200Y-53086000D03*
X141507200Y-86106000D03*
X141507200Y-83566000D03*
X121187200Y-86106000D03*
X123727200Y-86106000D03*
X126267200Y-86106000D03*
X128807200Y-86106000D03*
X131347200Y-86106000D03*
X133887200Y-86106000D03*
X136427200Y-86106000D03*
X138967200Y-86106000D03*
X138967200Y-83566000D03*
X136427200Y-83566000D03*
X133887200Y-83566000D03*
X131347200Y-83566000D03*
X128807200Y-83566000D03*
X126267200Y-83566000D03*
X123727200Y-83566000D03*
X121187200Y-83566000D03*
X113567200Y-78486000D03*
X113567200Y-81026000D03*
X113567200Y-83566000D03*
X113567200Y-86106000D03*
X146587200Y-45466000D03*
X149127200Y-45466000D03*
X151667200Y-45466000D03*
X154207200Y-45466000D03*
X116107200Y-78486000D03*
X118647200Y-78486000D03*
X116107200Y-81026000D03*
X118647200Y-81026000D03*
X118647200Y-83566000D03*
X118647200Y-86106000D03*
X118647200Y-88646000D03*
X116107200Y-88646000D03*
X116107200Y-86106000D03*
X116107200Y-83566000D03*
X146587200Y-48006000D03*
X146587200Y-50546000D03*
X149127200Y-48006000D03*
X149127200Y-50546000D03*
X151667200Y-48006000D03*
X151667200Y-50546000D03*
X154207200Y-48006000D03*
X154207200Y-50546000D03*
X156747200Y-48006000D03*
X156747200Y-50546000D03*
X151667200Y-53086000D03*
X154207200Y-53086000D03*
X156747200Y-53086000D03*
X151667200Y-55626000D03*
X154207200Y-55626000D03*
X156747200Y-55626000D03*
X151667200Y-58166000D03*
X154207200Y-58166000D03*
X156747200Y-58166000D03*
X151667200Y-60706000D03*
X151667200Y-63246000D03*
X151667200Y-65786000D03*
X151667200Y-68326000D03*
X151667200Y-70866000D03*
X151667200Y-73406000D03*
X151667200Y-75946000D03*
X151667200Y-78486000D03*
X151667200Y-81026000D03*
X151667200Y-83566000D03*
X151667200Y-86106000D03*
X151667200Y-88646000D03*
X154207200Y-88646000D03*
X154207200Y-86106000D03*
X154207200Y-83566000D03*
X154207200Y-81026000D03*
X154207200Y-78486000D03*
X154207200Y-75946000D03*
X154207200Y-73406000D03*
X154207200Y-70866000D03*
X154207200Y-68326000D03*
X154207200Y-65786000D03*
X154207200Y-63246000D03*
X154207200Y-60706000D03*
X156747200Y-60706000D03*
X156747200Y-63246000D03*
X156747200Y-65786000D03*
X156747200Y-68326000D03*
X156747200Y-70866000D03*
X156747200Y-73406000D03*
X156747200Y-75946000D03*
X156747200Y-78486000D03*
X156747200Y-81026000D03*
X156747200Y-83566000D03*
X156747200Y-86106000D03*
X146587200Y-83566000D03*
X149127200Y-83566000D03*
X149127200Y-86106000D03*
X149127200Y-88646000D03*
X146587200Y-88646000D03*
X146587200Y-86106000D03*
X156747200Y-88646000D03*
X156747200Y-45466000D03*
X121169200Y-127076000D03*
X149109200Y-127076000D03*
X149109200Y-124536000D03*
X149109200Y-121996000D03*
X149109200Y-119456000D03*
X149109200Y-116916000D03*
X149109200Y-114376000D03*
X149109200Y-111836000D03*
X149109200Y-109296000D03*
X149109200Y-106756000D03*
X149109200Y-104216000D03*
X149109200Y-129616000D03*
X146569200Y-129616000D03*
X144029200Y-129616000D03*
X141489200Y-129616000D03*
X138949200Y-129616000D03*
X136409200Y-129616000D03*
X133869200Y-129616000D03*
X131329200Y-129616000D03*
X128789200Y-129616000D03*
X126249200Y-129616000D03*
X123709200Y-129616000D03*
X121169200Y-129616000D03*
X121169200Y-119456000D03*
X121169200Y-114376000D03*
X121169200Y-111836000D03*
X121169200Y-109296000D03*
X121169200Y-106756000D03*
X121169200Y-104216000D03*
X149109200Y-101676000D03*
X141489200Y-101676000D03*
X136409200Y-101676000D03*
X131329200Y-101676000D03*
X156729200Y-94056000D03*
X156729200Y-137236000D03*
X146569200Y-134696000D03*
X146569200Y-137236000D03*
X149109200Y-137236000D03*
X149109200Y-134696000D03*
X149109200Y-132156000D03*
X146569200Y-132156000D03*
X156729200Y-134696000D03*
X156729200Y-132156000D03*
X156729200Y-129616000D03*
X156729200Y-127076000D03*
X156729200Y-124536000D03*
X156729200Y-121996000D03*
X156729200Y-119456000D03*
X156729200Y-116916000D03*
X156729200Y-114376000D03*
X156729200Y-111836000D03*
X156729200Y-109296000D03*
X154189200Y-109296000D03*
X154189200Y-111836000D03*
X154189200Y-114376000D03*
X154189200Y-116916000D03*
X154189200Y-119456000D03*
X154189200Y-121996000D03*
X154189200Y-124536000D03*
X154189200Y-127076000D03*
X154189200Y-129616000D03*
X154189200Y-132156000D03*
X154189200Y-134696000D03*
X154189200Y-137236000D03*
X151649200Y-137236000D03*
X151649200Y-134696000D03*
X151649200Y-132156000D03*
X151649200Y-127076000D03*
X151649200Y-124536000D03*
X151649200Y-121996000D03*
X151649200Y-119456000D03*
X151649200Y-116916000D03*
X151649200Y-114376000D03*
X151649200Y-111836000D03*
X151649200Y-109296000D03*
X156729200Y-106756000D03*
X154189200Y-106756000D03*
X151649200Y-106756000D03*
X156729200Y-104216000D03*
X154189200Y-104216000D03*
X151649200Y-104216000D03*
X156729200Y-101676000D03*
X154189200Y-101676000D03*
X151649200Y-101676000D03*
X156729200Y-99136000D03*
X156729200Y-96596000D03*
X154189200Y-99136000D03*
X154189200Y-96596000D03*
X151649200Y-99136000D03*
X151649200Y-96596000D03*
X149109200Y-99136000D03*
X149109200Y-96596000D03*
X146569200Y-99136000D03*
X146569200Y-96596000D03*
X116089200Y-132156000D03*
X116089200Y-134696000D03*
X116089200Y-137236000D03*
X118629200Y-137236000D03*
X118629200Y-134696000D03*
X118629200Y-132156000D03*
X118629200Y-129616000D03*
X116089200Y-129616000D03*
X118629200Y-127076000D03*
X116089200Y-127076000D03*
X154189200Y-94056000D03*
X151649200Y-94056000D03*
X149109200Y-94056000D03*
X146569200Y-94056000D03*
X113549200Y-134696000D03*
X113549200Y-132156000D03*
X113549200Y-129616000D03*
X113549200Y-127076000D03*
X121169200Y-132156000D03*
X123709200Y-132156000D03*
X126249200Y-132156000D03*
X131329200Y-132156000D03*
X133869200Y-132156000D03*
X138949200Y-132156000D03*
X138949200Y-134696000D03*
X136409200Y-134696000D03*
X133869200Y-134696000D03*
X131329200Y-134696000D03*
X128789200Y-134696000D03*
X126249200Y-134696000D03*
X123709200Y-134696000D03*
X121169200Y-134696000D03*
X141489200Y-132156000D03*
X118629200Y-101676000D03*
X118629200Y-104216000D03*
X118629200Y-106756000D03*
X118629200Y-109296000D03*
X118629200Y-111836000D03*
X118629200Y-114376000D03*
X118629200Y-116916000D03*
X118629200Y-119456000D03*
X118629200Y-121996000D03*
X113549200Y-124536000D03*
X116089200Y-99136000D03*
X118629200Y-99136000D03*
X121169200Y-99136000D03*
X123709200Y-99136000D03*
X126249200Y-99136000D03*
X128789200Y-99136000D03*
X131329200Y-99136000D03*
X133869200Y-99136000D03*
X136409200Y-99136000D03*
X138949200Y-99136000D03*
X141489200Y-99136000D03*
X113549200Y-99136000D03*
X144029200Y-99136000D03*
X118629200Y-124536000D03*
X121169200Y-137236000D03*
X123709200Y-137236000D03*
X126249200Y-137236000D03*
X128789200Y-137236000D03*
X131329200Y-137236000D03*
X136409200Y-137236000D03*
X138949200Y-137236000D03*
X144029200Y-137236000D03*
X116089200Y-124536000D03*
X116089200Y-101676000D03*
X116089200Y-104216000D03*
X116089200Y-106756000D03*
X116089200Y-109296000D03*
X116089200Y-111836000D03*
X116089200Y-114376000D03*
X116089200Y-116916000D03*
X116089200Y-119456000D03*
X116089200Y-121996000D03*
X144029200Y-134696000D03*
X144029200Y-132156000D03*
X141489200Y-96596000D03*
X138949200Y-96596000D03*
X136409200Y-96596000D03*
X133869200Y-96596000D03*
X131329200Y-96596000D03*
X128789200Y-96596000D03*
X126249200Y-96596000D03*
X123709200Y-96596000D03*
X121169200Y-96596000D03*
X118629200Y-96596000D03*
X116089200Y-96596000D03*
X113549200Y-96596000D03*
X113549200Y-101676000D03*
X113549200Y-104216000D03*
X113549200Y-106756000D03*
X113549200Y-109296000D03*
X113549200Y-111836000D03*
X113549200Y-114376000D03*
X113549200Y-116916000D03*
X113549200Y-119456000D03*
X113549200Y-121996000D03*
X144029200Y-96596000D03*
X144029200Y-94056000D03*
X141489200Y-94056000D03*
X138949200Y-94056000D03*
X136409200Y-94056000D03*
X133869200Y-94056000D03*
X131329200Y-94056000D03*
X128789200Y-94056000D03*
X126249200Y-94056000D03*
X123709200Y-94056000D03*
X121169200Y-94056000D03*
X118629200Y-94056000D03*
X116089200Y-94056000D03*
X113549200Y-94056000D03*
D15*
X133675000Y-64575000D03*
X134475000Y-64575000D03*
X135275000Y-64575000D03*
X136075000Y-64575000D03*
X133675000Y-62875000D03*
X136075000Y-62875000D03*
X134475000Y-62875000D03*
X135275000Y-62875000D03*
X139175000Y-120625000D03*
X138375000Y-120625000D03*
X139975000Y-120625000D03*
X137575000Y-120625000D03*
X139975000Y-122325000D03*
X139175000Y-122325000D03*
X138375000Y-122325000D03*
X137575000Y-122325000D03*
X130400000Y-122325000D03*
X131200000Y-122325000D03*
X132000000Y-122325000D03*
X132800000Y-122325000D03*
X130400000Y-120625000D03*
X132800000Y-120625000D03*
X131200000Y-120625000D03*
X132000000Y-120625000D03*
D16*
X166400000Y-99450000D03*
X166400000Y-96650000D03*
X166400000Y-101150000D03*
X166400000Y-103950000D03*
X166400000Y-108475000D03*
X166400000Y-105675000D03*
D17*
X163322000Y-133096000D03*
D18*
X160782000Y-133096000D03*
X163350000Y-102950000D03*
D17*
X163350000Y-100410000D03*
X163350000Y-97870000D03*
G36*
G01*
X139195800Y-68808600D02*
X139195800Y-66776600D01*
G75*
G02*
X139272000Y-66700400I76200J0D01*
G01*
X139932400Y-66700400D01*
G75*
G02*
X140008600Y-66776600I0J-76200D01*
G01*
X140008600Y-68808600D01*
G75*
G02*
X139932400Y-68884800I-76200J0D01*
G01*
X139272000Y-68884800D01*
G75*
G02*
X139195800Y-68808600I0J76200D01*
G01*
G37*
G36*
G01*
X139195800Y-74955400D02*
X139195800Y-72923400D01*
G75*
G02*
X139272000Y-72847200I76200J0D01*
G01*
X139932400Y-72847200D01*
G75*
G02*
X140008600Y-72923400I0J-76200D01*
G01*
X140008600Y-74955400D01*
G75*
G02*
X139932400Y-75031600I-76200J0D01*
G01*
X139272000Y-75031600D01*
G75*
G02*
X139195800Y-74955400I0J76200D01*
G01*
G37*
G36*
G01*
X137925800Y-68808600D02*
X137925800Y-66776600D01*
G75*
G02*
X138002000Y-66700400I76200J0D01*
G01*
X138662400Y-66700400D01*
G75*
G02*
X138738600Y-66776600I0J-76200D01*
G01*
X138738600Y-68808600D01*
G75*
G02*
X138662400Y-68884800I-76200J0D01*
G01*
X138002000Y-68884800D01*
G75*
G02*
X137925800Y-68808600I0J76200D01*
G01*
G37*
G36*
G01*
X136655800Y-68808600D02*
X136655800Y-66776600D01*
G75*
G02*
X136732000Y-66700400I76200J0D01*
G01*
X137392400Y-66700400D01*
G75*
G02*
X137468600Y-66776600I0J-76200D01*
G01*
X137468600Y-68808600D01*
G75*
G02*
X137392400Y-68884800I-76200J0D01*
G01*
X136732000Y-68884800D01*
G75*
G02*
X136655800Y-68808600I0J76200D01*
G01*
G37*
G36*
G01*
X137925800Y-74955400D02*
X137925800Y-72923400D01*
G75*
G02*
X138002000Y-72847200I76200J0D01*
G01*
X138662400Y-72847200D01*
G75*
G02*
X138738600Y-72923400I0J-76200D01*
G01*
X138738600Y-74955400D01*
G75*
G02*
X138662400Y-75031600I-76200J0D01*
G01*
X138002000Y-75031600D01*
G75*
G02*
X137925800Y-74955400I0J76200D01*
G01*
G37*
G36*
G01*
X136655800Y-74955400D02*
X136655800Y-72923400D01*
G75*
G02*
X136732000Y-72847200I76200J0D01*
G01*
X137392400Y-72847200D01*
G75*
G02*
X137468600Y-72923400I0J-76200D01*
G01*
X137468600Y-74955400D01*
G75*
G02*
X137392400Y-75031600I-76200J0D01*
G01*
X136732000Y-75031600D01*
G75*
G02*
X136655800Y-74955400I0J76200D01*
G01*
G37*
G36*
G01*
X135385800Y-68808600D02*
X135385800Y-66776600D01*
G75*
G02*
X135462000Y-66700400I76200J0D01*
G01*
X136122400Y-66700400D01*
G75*
G02*
X136198600Y-66776600I0J-76200D01*
G01*
X136198600Y-68808600D01*
G75*
G02*
X136122400Y-68884800I-76200J0D01*
G01*
X135462000Y-68884800D01*
G75*
G02*
X135385800Y-68808600I0J76200D01*
G01*
G37*
G36*
G01*
X135385800Y-74955400D02*
X135385800Y-72923400D01*
G75*
G02*
X135462000Y-72847200I76200J0D01*
G01*
X136122400Y-72847200D01*
G75*
G02*
X136198600Y-72923400I0J-76200D01*
G01*
X136198600Y-74955400D01*
G75*
G02*
X136122400Y-75031600I-76200J0D01*
G01*
X135462000Y-75031600D01*
G75*
G02*
X135385800Y-74955400I0J76200D01*
G01*
G37*
G36*
G01*
X134115800Y-68808600D02*
X134115800Y-66776600D01*
G75*
G02*
X134192000Y-66700400I76200J0D01*
G01*
X134852400Y-66700400D01*
G75*
G02*
X134928600Y-66776600I0J-76200D01*
G01*
X134928600Y-68808600D01*
G75*
G02*
X134852400Y-68884800I-76200J0D01*
G01*
X134192000Y-68884800D01*
G75*
G02*
X134115800Y-68808600I0J76200D01*
G01*
G37*
G36*
G01*
X134115800Y-74955400D02*
X134115800Y-72923400D01*
G75*
G02*
X134192000Y-72847200I76200J0D01*
G01*
X134852400Y-72847200D01*
G75*
G02*
X134928600Y-72923400I0J-76200D01*
G01*
X134928600Y-74955400D01*
G75*
G02*
X134852400Y-75031600I-76200J0D01*
G01*
X134192000Y-75031600D01*
G75*
G02*
X134115800Y-74955400I0J76200D01*
G01*
G37*
G36*
G01*
X132845800Y-68808600D02*
X132845800Y-66776600D01*
G75*
G02*
X132922000Y-66700400I76200J0D01*
G01*
X133582400Y-66700400D01*
G75*
G02*
X133658600Y-66776600I0J-76200D01*
G01*
X133658600Y-68808600D01*
G75*
G02*
X133582400Y-68884800I-76200J0D01*
G01*
X132922000Y-68884800D01*
G75*
G02*
X132845800Y-68808600I0J76200D01*
G01*
G37*
G36*
G01*
X131575800Y-68808600D02*
X131575800Y-66776600D01*
G75*
G02*
X131652000Y-66700400I76200J0D01*
G01*
X132312400Y-66700400D01*
G75*
G02*
X132388600Y-66776600I0J-76200D01*
G01*
X132388600Y-68808600D01*
G75*
G02*
X132312400Y-68884800I-76200J0D01*
G01*
X131652000Y-68884800D01*
G75*
G02*
X131575800Y-68808600I0J76200D01*
G01*
G37*
G36*
G01*
X132845800Y-74955400D02*
X132845800Y-72923400D01*
G75*
G02*
X132922000Y-72847200I76200J0D01*
G01*
X133582400Y-72847200D01*
G75*
G02*
X133658600Y-72923400I0J-76200D01*
G01*
X133658600Y-74955400D01*
G75*
G02*
X133582400Y-75031600I-76200J0D01*
G01*
X132922000Y-75031600D01*
G75*
G02*
X132845800Y-74955400I0J76200D01*
G01*
G37*
G36*
G01*
X131575800Y-74955400D02*
X131575800Y-72923400D01*
G75*
G02*
X131652000Y-72847200I76200J0D01*
G01*
X132312400Y-72847200D01*
G75*
G02*
X132388600Y-72923400I0J-76200D01*
G01*
X132388600Y-74955400D01*
G75*
G02*
X132312400Y-75031600I-76200J0D01*
G01*
X131652000Y-75031600D01*
G75*
G02*
X131575800Y-74955400I0J76200D01*
G01*
G37*
G36*
G01*
X130305800Y-68808600D02*
X130305800Y-66776600D01*
G75*
G02*
X130382000Y-66700400I76200J0D01*
G01*
X131042400Y-66700400D01*
G75*
G02*
X131118600Y-66776600I0J-76200D01*
G01*
X131118600Y-68808600D01*
G75*
G02*
X131042400Y-68884800I-76200J0D01*
G01*
X130382000Y-68884800D01*
G75*
G02*
X130305800Y-68808600I0J76200D01*
G01*
G37*
G36*
G01*
X130305800Y-74955400D02*
X130305800Y-72923400D01*
G75*
G02*
X130382000Y-72847200I76200J0D01*
G01*
X131042400Y-72847200D01*
G75*
G02*
X131118600Y-72923400I0J-76200D01*
G01*
X131118600Y-74955400D01*
G75*
G02*
X131042400Y-75031600I-76200J0D01*
G01*
X130382000Y-75031600D01*
G75*
G02*
X130305800Y-74955400I0J76200D01*
G01*
G37*
M02*
