%TF.GenerationSoftware,KiCad,Pcbnew,5.1.9*%
%TF.CreationDate,2021-04-08T00:50:33+02:00*%
%TF.ProjectId,68040_68060_adapter,36383034-305f-4363-9830-36305f616461,rev?*%
%TF.SameCoordinates,Original*%
%TF.FileFunction,Paste,Top*%
%TF.FilePolarity,Positive*%
%FSLAX46Y46*%
G04 Gerber Fmt 4.6, Leading zero omitted, Abs format (unit mm)*
G04 Created by KiCad (PCBNEW 5.1.9) date 2021-04-08 00:50:33*
%MOMM*%
%LPD*%
G01*
G04 APERTURE LIST*
%TA.AperFunction,Profile*%
%ADD10C,0.050000*%
%TD*%
%ADD11R,5.250000X4.550000*%
%ADD12R,1.100000X4.600000*%
%ADD13R,0.400000X0.900000*%
%ADD14R,1.100000X1.100000*%
%ADD15R,0.660400X2.032000*%
G04 APERTURE END LIST*
D10*
X158750000Y-135128000D02*
X170688000Y-135128000D01*
X158750000Y-139141200D02*
X158750000Y-135128000D01*
X157930000Y-92140000D02*
X138810000Y-92140000D01*
X138810000Y-90550000D02*
X157930000Y-90550000D01*
X157930000Y-90550000D02*
X157930000Y-92140000D01*
X138810000Y-90550000D02*
X138810000Y-92140000D01*
X111644200Y-43561000D02*
X111644200Y-139141000D01*
X134850000Y-92140000D02*
X115730000Y-92140000D01*
X115730000Y-90550000D02*
X134850000Y-90550000D01*
X134850000Y-90550000D02*
X134850000Y-92140000D01*
X161928800Y-92151000D02*
X161928800Y-43561000D01*
X170699200Y-92151000D02*
X161928800Y-92151000D01*
X115730000Y-90550000D02*
X115730000Y-92140000D01*
X161928800Y-43561000D02*
X111644200Y-43561000D01*
X111644200Y-139141000D02*
X158750000Y-139141200D01*
X170688000Y-135128000D02*
X170699200Y-92151000D01*
D11*
X161817000Y-122108000D03*
X167367000Y-126958000D03*
X167367000Y-122108000D03*
X161817000Y-126958000D03*
D12*
X162052000Y-115383000D03*
X164592000Y-115383000D03*
X167132000Y-115383000D03*
G36*
G01*
X159752000Y-67376000D02*
X160702000Y-67376000D01*
G75*
G02*
X160952000Y-67626000I0J-250000D01*
G01*
X160952000Y-68301000D01*
G75*
G02*
X160702000Y-68551000I-250000J0D01*
G01*
X159752000Y-68551000D01*
G75*
G02*
X159502000Y-68301000I0J250000D01*
G01*
X159502000Y-67626000D01*
G75*
G02*
X159752000Y-67376000I250000J0D01*
G01*
G37*
G36*
G01*
X159752000Y-65301000D02*
X160702000Y-65301000D01*
G75*
G02*
X160952000Y-65551000I0J-250000D01*
G01*
X160952000Y-66226000D01*
G75*
G02*
X160702000Y-66476000I-250000J0D01*
G01*
X159752000Y-66476000D01*
G75*
G02*
X159502000Y-66226000I0J250000D01*
G01*
X159502000Y-65551000D01*
G75*
G02*
X159752000Y-65301000I250000J0D01*
G01*
G37*
G36*
G01*
X162590000Y-94085000D02*
X162590000Y-93135000D01*
G75*
G02*
X162840000Y-92885000I250000J0D01*
G01*
X163515000Y-92885000D01*
G75*
G02*
X163765000Y-93135000I0J-250000D01*
G01*
X163765000Y-94085000D01*
G75*
G02*
X163515000Y-94335000I-250000J0D01*
G01*
X162840000Y-94335000D01*
G75*
G02*
X162590000Y-94085000I0J250000D01*
G01*
G37*
G36*
G01*
X160515000Y-94085000D02*
X160515000Y-93135000D01*
G75*
G02*
X160765000Y-92885000I250000J0D01*
G01*
X161440000Y-92885000D01*
G75*
G02*
X161690000Y-93135000I0J-250000D01*
G01*
X161690000Y-94085000D01*
G75*
G02*
X161440000Y-94335000I-250000J0D01*
G01*
X160765000Y-94335000D01*
G75*
G02*
X160515000Y-94085000I0J250000D01*
G01*
G37*
G36*
G01*
X166312000Y-111981000D02*
X166312000Y-111031000D01*
G75*
G02*
X166562000Y-110781000I250000J0D01*
G01*
X167237000Y-110781000D01*
G75*
G02*
X167487000Y-111031000I0J-250000D01*
G01*
X167487000Y-111981000D01*
G75*
G02*
X167237000Y-112231000I-250000J0D01*
G01*
X166562000Y-112231000D01*
G75*
G02*
X166312000Y-111981000I0J250000D01*
G01*
G37*
G36*
G01*
X164237000Y-111981000D02*
X164237000Y-111031000D01*
G75*
G02*
X164487000Y-110781000I250000J0D01*
G01*
X165162000Y-110781000D01*
G75*
G02*
X165412000Y-111031000I0J-250000D01*
G01*
X165412000Y-111981000D01*
G75*
G02*
X165162000Y-112231000I-250000J0D01*
G01*
X164487000Y-112231000D01*
G75*
G02*
X164237000Y-111981000I0J250000D01*
G01*
G37*
G36*
G01*
X163445880Y-107661520D02*
X162495880Y-107661520D01*
G75*
G02*
X162245880Y-107411520I0J250000D01*
G01*
X162245880Y-106736520D01*
G75*
G02*
X162495880Y-106486520I250000J0D01*
G01*
X163445880Y-106486520D01*
G75*
G02*
X163695880Y-106736520I0J-250000D01*
G01*
X163695880Y-107411520D01*
G75*
G02*
X163445880Y-107661520I-250000J0D01*
G01*
G37*
G36*
G01*
X163445880Y-109736520D02*
X162495880Y-109736520D01*
G75*
G02*
X162245880Y-109486520I0J250000D01*
G01*
X162245880Y-108811520D01*
G75*
G02*
X162495880Y-108561520I250000J0D01*
G01*
X163445880Y-108561520D01*
G75*
G02*
X163695880Y-108811520I0J-250000D01*
G01*
X163695880Y-109486520D01*
G75*
G02*
X163445880Y-109736520I-250000J0D01*
G01*
G37*
G36*
G01*
X127988450Y-65971000D02*
X127038450Y-65971000D01*
G75*
G02*
X126788450Y-65721000I0J250000D01*
G01*
X126788450Y-65046000D01*
G75*
G02*
X127038450Y-64796000I250000J0D01*
G01*
X127988450Y-64796000D01*
G75*
G02*
X128238450Y-65046000I0J-250000D01*
G01*
X128238450Y-65721000D01*
G75*
G02*
X127988450Y-65971000I-250000J0D01*
G01*
G37*
G36*
G01*
X127988450Y-68046000D02*
X127038450Y-68046000D01*
G75*
G02*
X126788450Y-67796000I0J250000D01*
G01*
X126788450Y-67121000D01*
G75*
G02*
X127038450Y-66871000I250000J0D01*
G01*
X127988450Y-66871000D01*
G75*
G02*
X128238450Y-67121000I0J-250000D01*
G01*
X128238450Y-67796000D01*
G75*
G02*
X127988450Y-68046000I-250000J0D01*
G01*
G37*
G36*
G01*
X137600200Y-59827200D02*
X137600200Y-58877200D01*
G75*
G02*
X137850200Y-58627200I250000J0D01*
G01*
X138525200Y-58627200D01*
G75*
G02*
X138775200Y-58877200I0J-250000D01*
G01*
X138775200Y-59827200D01*
G75*
G02*
X138525200Y-60077200I-250000J0D01*
G01*
X137850200Y-60077200D01*
G75*
G02*
X137600200Y-59827200I0J250000D01*
G01*
G37*
G36*
G01*
X135525200Y-59827200D02*
X135525200Y-58877200D01*
G75*
G02*
X135775200Y-58627200I250000J0D01*
G01*
X136450200Y-58627200D01*
G75*
G02*
X136700200Y-58877200I0J-250000D01*
G01*
X136700200Y-59827200D01*
G75*
G02*
X136450200Y-60077200I-250000J0D01*
G01*
X135775200Y-60077200D01*
G75*
G02*
X135525200Y-59827200I0J250000D01*
G01*
G37*
G36*
G01*
X127221000Y-117914000D02*
X126271000Y-117914000D01*
G75*
G02*
X126021000Y-117664000I0J250000D01*
G01*
X126021000Y-116989000D01*
G75*
G02*
X126271000Y-116739000I250000J0D01*
G01*
X127221000Y-116739000D01*
G75*
G02*
X127471000Y-116989000I0J-250000D01*
G01*
X127471000Y-117664000D01*
G75*
G02*
X127221000Y-117914000I-250000J0D01*
G01*
G37*
G36*
G01*
X127221000Y-119989000D02*
X126271000Y-119989000D01*
G75*
G02*
X126021000Y-119739000I0J250000D01*
G01*
X126021000Y-119064000D01*
G75*
G02*
X126271000Y-118814000I250000J0D01*
G01*
X127221000Y-118814000D01*
G75*
G02*
X127471000Y-119064000I0J-250000D01*
G01*
X127471000Y-119739000D01*
G75*
G02*
X127221000Y-119989000I-250000J0D01*
G01*
G37*
G36*
G01*
X143281800Y-110940000D02*
X144231800Y-110940000D01*
G75*
G02*
X144481800Y-111190000I0J-250000D01*
G01*
X144481800Y-111865000D01*
G75*
G02*
X144231800Y-112115000I-250000J0D01*
G01*
X143281800Y-112115000D01*
G75*
G02*
X143031800Y-111865000I0J250000D01*
G01*
X143031800Y-111190000D01*
G75*
G02*
X143281800Y-110940000I250000J0D01*
G01*
G37*
G36*
G01*
X143281800Y-108865000D02*
X144231800Y-108865000D01*
G75*
G02*
X144481800Y-109115000I0J-250000D01*
G01*
X144481800Y-109790000D01*
G75*
G02*
X144231800Y-110040000I-250000J0D01*
G01*
X143281800Y-110040000D01*
G75*
G02*
X143031800Y-109790000I0J250000D01*
G01*
X143031800Y-109115000D01*
G75*
G02*
X143281800Y-108865000I250000J0D01*
G01*
G37*
G36*
G01*
X126271000Y-110940000D02*
X127221000Y-110940000D01*
G75*
G02*
X127471000Y-111190000I0J-250000D01*
G01*
X127471000Y-111865000D01*
G75*
G02*
X127221000Y-112115000I-250000J0D01*
G01*
X126271000Y-112115000D01*
G75*
G02*
X126021000Y-111865000I0J250000D01*
G01*
X126021000Y-111190000D01*
G75*
G02*
X126271000Y-110940000I250000J0D01*
G01*
G37*
G36*
G01*
X126271000Y-108865000D02*
X127221000Y-108865000D01*
G75*
G02*
X127471000Y-109115000I0J-250000D01*
G01*
X127471000Y-109790000D01*
G75*
G02*
X127221000Y-110040000I-250000J0D01*
G01*
X126271000Y-110040000D01*
G75*
G02*
X126021000Y-109790000I0J250000D01*
G01*
X126021000Y-109115000D01*
G75*
G02*
X126271000Y-108865000I250000J0D01*
G01*
G37*
G36*
G01*
X144235400Y-117406000D02*
X143285400Y-117406000D01*
G75*
G02*
X143035400Y-117156000I0J250000D01*
G01*
X143035400Y-116481000D01*
G75*
G02*
X143285400Y-116231000I250000J0D01*
G01*
X144235400Y-116231000D01*
G75*
G02*
X144485400Y-116481000I0J-250000D01*
G01*
X144485400Y-117156000D01*
G75*
G02*
X144235400Y-117406000I-250000J0D01*
G01*
G37*
G36*
G01*
X144235400Y-119481000D02*
X143285400Y-119481000D01*
G75*
G02*
X143035400Y-119231000I0J250000D01*
G01*
X143035400Y-118556000D01*
G75*
G02*
X143285400Y-118306000I250000J0D01*
G01*
X144235400Y-118306000D01*
G75*
G02*
X144485400Y-118556000I0J-250000D01*
G01*
X144485400Y-119231000D01*
G75*
G02*
X144235400Y-119481000I-250000J0D01*
G01*
G37*
D13*
X133675000Y-64575000D03*
X134475000Y-64575000D03*
X135275000Y-64575000D03*
X136075000Y-64575000D03*
X133675000Y-62875000D03*
X136075000Y-62875000D03*
X134475000Y-62875000D03*
X135275000Y-62875000D03*
X139175000Y-120625000D03*
X138375000Y-120625000D03*
X139975000Y-120625000D03*
X137575000Y-120625000D03*
X139975000Y-122325000D03*
X139175000Y-122325000D03*
X138375000Y-122325000D03*
X137575000Y-122325000D03*
X130400000Y-122325000D03*
X131200000Y-122325000D03*
X132000000Y-122325000D03*
X132800000Y-122325000D03*
X130400000Y-120625000D03*
X132800000Y-120625000D03*
X131200000Y-120625000D03*
X132000000Y-120625000D03*
D14*
X166400000Y-99450000D03*
X166400000Y-96650000D03*
X166400000Y-101150000D03*
X166400000Y-103950000D03*
X166400000Y-108475000D03*
X166400000Y-105675000D03*
D15*
X139602200Y-67792600D03*
X139602200Y-73939400D03*
X138332200Y-67792600D03*
X137062200Y-67792600D03*
X138332200Y-73939400D03*
X137062200Y-73939400D03*
X135792200Y-67792600D03*
X135792200Y-73939400D03*
X134522200Y-67792600D03*
X134522200Y-73939400D03*
X133252200Y-67792600D03*
X131982200Y-67792600D03*
X133252200Y-73939400D03*
X131982200Y-73939400D03*
X130712200Y-67792600D03*
X130712200Y-73939400D03*
M02*
