%FSLAX45Y45*%
G04 Gerber Fmt 4.5, Leading zero omitted, Abs format (unit mm)*
G04 Created by KiCad (PCBNEW 5.1.9) date 2021-05-20 11:39:52*
%MOMM*%
%LPD*%
G01*
G04 APERTURE LIST*
%TA.AperFunction,Profile*%
%ADD10C,0.050000*%
%TD*%
%ADD11C,0.200000*%
%ADD12C,0.300000*%
G04 APERTURE END LIST*
D10*
X16192880Y-9055000D02*
X16250000Y-9055000D01*
X16192880Y-9055000D02*
X16192880Y-9215100D01*
X15875000Y-13512800D02*
X17068800Y-13512800D01*
X15875000Y-13914120D02*
X15875000Y-13512800D01*
X15793000Y-9214000D02*
X13881000Y-9214000D01*
X13881000Y-9055000D02*
X15793000Y-9055000D01*
X15793000Y-9055000D02*
X15793000Y-9214000D01*
X13881000Y-9055000D02*
X13881000Y-9214000D01*
X11164420Y-4356100D02*
X11164420Y-13914100D01*
X13485000Y-9214000D02*
X11573000Y-9214000D01*
X11573000Y-9055000D02*
X13485000Y-9055000D01*
X13485000Y-9055000D02*
X13485000Y-9214000D01*
X16250000Y-9055000D02*
X16250000Y-4356100D01*
X17069920Y-9215100D02*
X16192880Y-9215100D01*
X11573000Y-9055000D02*
X11573000Y-9214000D01*
X16250000Y-4356100D02*
X11164420Y-4356100D01*
X11164420Y-13914100D02*
X15875000Y-13914120D01*
X17068800Y-13512800D02*
X17069920Y-9215100D01*
D11*
X13051220Y-7765100D02*
X13091220Y-7805100D01*
X13091220Y-7765100D02*
X13051220Y-7805100D01*
X13180000Y-6519000D02*
X13220000Y-6559000D01*
X13220000Y-6519000D02*
X13180000Y-6559000D01*
X13180000Y-7068000D02*
X13220000Y-7108000D01*
X13220000Y-7068000D02*
X13180000Y-7108000D01*
X13305220Y-7130100D02*
X13345220Y-7170100D01*
X13345220Y-7130100D02*
X13305220Y-7170100D01*
X13425000Y-12585000D02*
X13465000Y-12625000D01*
X13465000Y-12585000D02*
X13425000Y-12625000D01*
X13432220Y-7574600D02*
X13472220Y-7614600D01*
X13472220Y-7574600D02*
X13432220Y-7614600D01*
X13467500Y-12210000D02*
X13507500Y-12250000D01*
X13507500Y-12210000D02*
X13467500Y-12250000D01*
X13482500Y-12440000D02*
X13522500Y-12480000D01*
X13522500Y-12440000D02*
X13482500Y-12480000D01*
X13552500Y-12347500D02*
X13592500Y-12387500D01*
X13592500Y-12347500D02*
X13552500Y-12387500D01*
X13559220Y-7066600D02*
X13599220Y-7106600D01*
X13599220Y-7066600D02*
X13559220Y-7106600D01*
X13907200Y-7142800D02*
X13947200Y-7182800D01*
X13947200Y-7142800D02*
X13907200Y-7182800D01*
X12448450Y-11940150D02*
G75*
G03*
X12448450Y-11940150I-30000J0D01*
G01*
X12468400Y-10929600D02*
G75*
G03*
X12468400Y-10929600I-30000J0D01*
G01*
X12781345Y-6959600D02*
G75*
G03*
X12781345Y-6959600I-30000J0D01*
G01*
X13160000Y-6167500D02*
G75*
G03*
X13160000Y-6167500I-30000J0D01*
G01*
X14637150Y-10945250D02*
G75*
G03*
X14637150Y-10945250I-30000J0D01*
G01*
X16032000Y-12827000D02*
G75*
G03*
X16032000Y-12827000I-30000J0D01*
G01*
X16192200Y-9532800D02*
G75*
G03*
X16192200Y-9532800I-30000J0D01*
G01*
X16489200Y-11277600D02*
G75*
G03*
X16489200Y-11277600I-30000J0D01*
G01*
X16489200Y-11734800D02*
G75*
G03*
X16489200Y-11734800I-30000J0D01*
G01*
X16516000Y-9665000D02*
G75*
G03*
X16516000Y-9665000I-30000J0D01*
G01*
X16946400Y-12827000D02*
G75*
G03*
X16946400Y-12827000I-30000J0D01*
G01*
X13367040Y-5912360D02*
X13367040Y-5973320D01*
X13336560Y-5942840D02*
X13397520Y-5942840D01*
X16113556Y-13344956D02*
X16113556Y-13274244D01*
X16042844Y-13274244D01*
X16042844Y-13344956D01*
X16113556Y-13344956D01*
X16367556Y-13344956D02*
X16367556Y-13274244D01*
X16296844Y-13274244D01*
X16296844Y-13344956D01*
X16367556Y-13344956D01*
X16370356Y-9822356D02*
X16370356Y-9751644D01*
X16299644Y-9751644D01*
X16299644Y-9822356D01*
X16370356Y-9822356D01*
X16370356Y-10076356D02*
X16370356Y-10005644D01*
X16299644Y-10005644D01*
X16299644Y-10076356D01*
X16370356Y-10076356D01*
X16370356Y-10330356D02*
X16370356Y-10259644D01*
X16299644Y-10259644D01*
X16299644Y-10330356D01*
X16370356Y-10330356D01*
X11354920Y-9480600D02*
X11429920Y-9405600D01*
X11354920Y-9330600D01*
X11279920Y-9405600D01*
X11354920Y-9480600D01*
X11354920Y-9734600D02*
X11429920Y-9659600D01*
X11354920Y-9584600D01*
X11279920Y-9659600D01*
X11354920Y-9734600D01*
X11354920Y-9988600D02*
X11429920Y-9913600D01*
X11354920Y-9838600D01*
X11279920Y-9913600D01*
X11354920Y-9988600D01*
X11354920Y-10242600D02*
X11429920Y-10167600D01*
X11354920Y-10092600D01*
X11279920Y-10167600D01*
X11354920Y-10242600D01*
X11354920Y-10496600D02*
X11429920Y-10421600D01*
X11354920Y-10346600D01*
X11279920Y-10421600D01*
X11354920Y-10496600D01*
X11354920Y-10750600D02*
X11429920Y-10675600D01*
X11354920Y-10600600D01*
X11279920Y-10675600D01*
X11354920Y-10750600D01*
X11354920Y-11004600D02*
X11429920Y-10929600D01*
X11354920Y-10854600D01*
X11279920Y-10929600D01*
X11354920Y-11004600D01*
X11354920Y-11258600D02*
X11429920Y-11183600D01*
X11354920Y-11108600D01*
X11279920Y-11183600D01*
X11354920Y-11258600D01*
X11354920Y-11512600D02*
X11429920Y-11437600D01*
X11354920Y-11362600D01*
X11279920Y-11437600D01*
X11354920Y-11512600D01*
X11354920Y-11766600D02*
X11429920Y-11691600D01*
X11354920Y-11616600D01*
X11279920Y-11691600D01*
X11354920Y-11766600D01*
X11354920Y-12020600D02*
X11429920Y-11945600D01*
X11354920Y-11870600D01*
X11279920Y-11945600D01*
X11354920Y-12020600D01*
X11354920Y-12274600D02*
X11429920Y-12199600D01*
X11354920Y-12124600D01*
X11279920Y-12199600D01*
X11354920Y-12274600D01*
X11354920Y-12528600D02*
X11429920Y-12453600D01*
X11354920Y-12378600D01*
X11279920Y-12453600D01*
X11354920Y-12528600D01*
X11354920Y-12782600D02*
X11429920Y-12707600D01*
X11354920Y-12632600D01*
X11279920Y-12707600D01*
X11354920Y-12782600D01*
X11354920Y-13036600D02*
X11429920Y-12961600D01*
X11354920Y-12886600D01*
X11279920Y-12961600D01*
X11354920Y-13036600D01*
X11354920Y-13290600D02*
X11429920Y-13215600D01*
X11354920Y-13140600D01*
X11279920Y-13215600D01*
X11354920Y-13290600D01*
X11354920Y-13544600D02*
X11429920Y-13469600D01*
X11354920Y-13394600D01*
X11279920Y-13469600D01*
X11354920Y-13544600D01*
X11356720Y-4621600D02*
X11431720Y-4546600D01*
X11356720Y-4471600D01*
X11281720Y-4546600D01*
X11356720Y-4621600D01*
X11356720Y-4875600D02*
X11431720Y-4800600D01*
X11356720Y-4725600D01*
X11281720Y-4800600D01*
X11356720Y-4875600D01*
X11356720Y-5129600D02*
X11431720Y-5054600D01*
X11356720Y-4979600D01*
X11281720Y-5054600D01*
X11356720Y-5129600D01*
X11356720Y-5383600D02*
X11431720Y-5308600D01*
X11356720Y-5233600D01*
X11281720Y-5308600D01*
X11356720Y-5383600D01*
X11356720Y-5637600D02*
X11431720Y-5562600D01*
X11356720Y-5487600D01*
X11281720Y-5562600D01*
X11356720Y-5637600D01*
X11356720Y-5891600D02*
X11431720Y-5816600D01*
X11356720Y-5741600D01*
X11281720Y-5816600D01*
X11356720Y-5891600D01*
X11356720Y-6145600D02*
X11431720Y-6070600D01*
X11356720Y-5995600D01*
X11281720Y-6070600D01*
X11356720Y-6145600D01*
X11356720Y-6399600D02*
X11431720Y-6324600D01*
X11356720Y-6249600D01*
X11281720Y-6324600D01*
X11356720Y-6399600D01*
X11356720Y-6653600D02*
X11431720Y-6578600D01*
X11356720Y-6503600D01*
X11281720Y-6578600D01*
X11356720Y-6653600D01*
X11356720Y-6907600D02*
X11431720Y-6832600D01*
X11356720Y-6757600D01*
X11281720Y-6832600D01*
X11356720Y-6907600D01*
X11356720Y-7161600D02*
X11431720Y-7086600D01*
X11356720Y-7011600D01*
X11281720Y-7086600D01*
X11356720Y-7161600D01*
X11356720Y-7415600D02*
X11431720Y-7340600D01*
X11356720Y-7265600D01*
X11281720Y-7340600D01*
X11356720Y-7415600D01*
X11356720Y-7669600D02*
X11431720Y-7594600D01*
X11356720Y-7519600D01*
X11281720Y-7594600D01*
X11356720Y-7669600D01*
X11356720Y-7923600D02*
X11431720Y-7848600D01*
X11356720Y-7773600D01*
X11281720Y-7848600D01*
X11356720Y-7923600D01*
X11356720Y-8177600D02*
X11431720Y-8102600D01*
X11356720Y-8027600D01*
X11281720Y-8102600D01*
X11356720Y-8177600D01*
X11356720Y-8431600D02*
X11431720Y-8356600D01*
X11356720Y-8281600D01*
X11281720Y-8356600D01*
X11356720Y-8431600D01*
X11356720Y-8685600D02*
X11431720Y-8610600D01*
X11356720Y-8535600D01*
X11281720Y-8610600D01*
X11356720Y-8685600D01*
X11608920Y-9480600D02*
X11683920Y-9405600D01*
X11608920Y-9330600D01*
X11533920Y-9405600D01*
X11608920Y-9480600D01*
X11608920Y-9734600D02*
X11683920Y-9659600D01*
X11608920Y-9584600D01*
X11533920Y-9659600D01*
X11608920Y-9734600D01*
X11608920Y-9988600D02*
X11683920Y-9913600D01*
X11608920Y-9838600D01*
X11533920Y-9913600D01*
X11608920Y-9988600D01*
X11608920Y-10242600D02*
X11683920Y-10167600D01*
X11608920Y-10092600D01*
X11533920Y-10167600D01*
X11608920Y-10242600D01*
X11608920Y-10496600D02*
X11683920Y-10421600D01*
X11608920Y-10346600D01*
X11533920Y-10421600D01*
X11608920Y-10496600D01*
X11608920Y-10750600D02*
X11683920Y-10675600D01*
X11608920Y-10600600D01*
X11533920Y-10675600D01*
X11608920Y-10750600D01*
X11608920Y-11004600D02*
X11683920Y-10929600D01*
X11608920Y-10854600D01*
X11533920Y-10929600D01*
X11608920Y-11004600D01*
X11608920Y-11258600D02*
X11683920Y-11183600D01*
X11608920Y-11108600D01*
X11533920Y-11183600D01*
X11608920Y-11258600D01*
X11608920Y-11512600D02*
X11683920Y-11437600D01*
X11608920Y-11362600D01*
X11533920Y-11437600D01*
X11608920Y-11512600D01*
X11608920Y-11766600D02*
X11683920Y-11691600D01*
X11608920Y-11616600D01*
X11533920Y-11691600D01*
X11608920Y-11766600D01*
X11608920Y-12020600D02*
X11683920Y-11945600D01*
X11608920Y-11870600D01*
X11533920Y-11945600D01*
X11608920Y-12020600D01*
X11608920Y-12274600D02*
X11683920Y-12199600D01*
X11608920Y-12124600D01*
X11533920Y-12199600D01*
X11608920Y-12274600D01*
X11608920Y-12528600D02*
X11683920Y-12453600D01*
X11608920Y-12378600D01*
X11533920Y-12453600D01*
X11608920Y-12528600D01*
X11608920Y-12782600D02*
X11683920Y-12707600D01*
X11608920Y-12632600D01*
X11533920Y-12707600D01*
X11608920Y-12782600D01*
X11608920Y-13036600D02*
X11683920Y-12961600D01*
X11608920Y-12886600D01*
X11533920Y-12961600D01*
X11608920Y-13036600D01*
X11608920Y-13290600D02*
X11683920Y-13215600D01*
X11608920Y-13140600D01*
X11533920Y-13215600D01*
X11608920Y-13290600D01*
X11608920Y-13544600D02*
X11683920Y-13469600D01*
X11608920Y-13394600D01*
X11533920Y-13469600D01*
X11608920Y-13544600D01*
X11608920Y-13798600D02*
X11683920Y-13723600D01*
X11608920Y-13648600D01*
X11533920Y-13723600D01*
X11608920Y-13798600D01*
X11610720Y-4621600D02*
X11685720Y-4546600D01*
X11610720Y-4471600D01*
X11535720Y-4546600D01*
X11610720Y-4621600D01*
X11610720Y-4875600D02*
X11685720Y-4800600D01*
X11610720Y-4725600D01*
X11535720Y-4800600D01*
X11610720Y-4875600D01*
X11610720Y-5129600D02*
X11685720Y-5054600D01*
X11610720Y-4979600D01*
X11535720Y-5054600D01*
X11610720Y-5129600D01*
X11610720Y-5383600D02*
X11685720Y-5308600D01*
X11610720Y-5233600D01*
X11535720Y-5308600D01*
X11610720Y-5383600D01*
X11610720Y-5637600D02*
X11685720Y-5562600D01*
X11610720Y-5487600D01*
X11535720Y-5562600D01*
X11610720Y-5637600D01*
X11610720Y-5891600D02*
X11685720Y-5816600D01*
X11610720Y-5741600D01*
X11535720Y-5816600D01*
X11610720Y-5891600D01*
X11610720Y-6145600D02*
X11685720Y-6070600D01*
X11610720Y-5995600D01*
X11535720Y-6070600D01*
X11610720Y-6145600D01*
X11610720Y-6399600D02*
X11685720Y-6324600D01*
X11610720Y-6249600D01*
X11535720Y-6324600D01*
X11610720Y-6399600D01*
X11610720Y-6653600D02*
X11685720Y-6578600D01*
X11610720Y-6503600D01*
X11535720Y-6578600D01*
X11610720Y-6653600D01*
X11610720Y-6907600D02*
X11685720Y-6832600D01*
X11610720Y-6757600D01*
X11535720Y-6832600D01*
X11610720Y-6907600D01*
X11610720Y-7161600D02*
X11685720Y-7086600D01*
X11610720Y-7011600D01*
X11535720Y-7086600D01*
X11610720Y-7161600D01*
X11610720Y-7415600D02*
X11685720Y-7340600D01*
X11610720Y-7265600D01*
X11535720Y-7340600D01*
X11610720Y-7415600D01*
X11610720Y-7669600D02*
X11685720Y-7594600D01*
X11610720Y-7519600D01*
X11535720Y-7594600D01*
X11610720Y-7669600D01*
X11610720Y-7923600D02*
X11685720Y-7848600D01*
X11610720Y-7773600D01*
X11535720Y-7848600D01*
X11610720Y-7923600D01*
X11610720Y-8177600D02*
X11685720Y-8102600D01*
X11610720Y-8027600D01*
X11535720Y-8102600D01*
X11610720Y-8177600D01*
X11610720Y-8431600D02*
X11685720Y-8356600D01*
X11610720Y-8281600D01*
X11535720Y-8356600D01*
X11610720Y-8431600D01*
X11610720Y-8685600D02*
X11685720Y-8610600D01*
X11610720Y-8535600D01*
X11535720Y-8610600D01*
X11610720Y-8685600D01*
X11610720Y-8939600D02*
X11685720Y-8864600D01*
X11610720Y-8789600D01*
X11535720Y-8864600D01*
X11610720Y-8939600D01*
X11862920Y-9480600D02*
X11937920Y-9405600D01*
X11862920Y-9330600D01*
X11787920Y-9405600D01*
X11862920Y-9480600D01*
X11862920Y-9734600D02*
X11937920Y-9659600D01*
X11862920Y-9584600D01*
X11787920Y-9659600D01*
X11862920Y-9734600D01*
X11862920Y-9988600D02*
X11937920Y-9913600D01*
X11862920Y-9838600D01*
X11787920Y-9913600D01*
X11862920Y-9988600D01*
X11862920Y-10242600D02*
X11937920Y-10167600D01*
X11862920Y-10092600D01*
X11787920Y-10167600D01*
X11862920Y-10242600D01*
X11862920Y-10496600D02*
X11937920Y-10421600D01*
X11862920Y-10346600D01*
X11787920Y-10421600D01*
X11862920Y-10496600D01*
X11862920Y-10750600D02*
X11937920Y-10675600D01*
X11862920Y-10600600D01*
X11787920Y-10675600D01*
X11862920Y-10750600D01*
X11862920Y-11004600D02*
X11937920Y-10929600D01*
X11862920Y-10854600D01*
X11787920Y-10929600D01*
X11862920Y-11004600D01*
X11862920Y-11258600D02*
X11937920Y-11183600D01*
X11862920Y-11108600D01*
X11787920Y-11183600D01*
X11862920Y-11258600D01*
X11862920Y-11512600D02*
X11937920Y-11437600D01*
X11862920Y-11362600D01*
X11787920Y-11437600D01*
X11862920Y-11512600D01*
X11862920Y-11766600D02*
X11937920Y-11691600D01*
X11862920Y-11616600D01*
X11787920Y-11691600D01*
X11862920Y-11766600D01*
X11862920Y-12020600D02*
X11937920Y-11945600D01*
X11862920Y-11870600D01*
X11787920Y-11945600D01*
X11862920Y-12020600D01*
X11862920Y-12274600D02*
X11937920Y-12199600D01*
X11862920Y-12124600D01*
X11787920Y-12199600D01*
X11862920Y-12274600D01*
X11862920Y-12528600D02*
X11937920Y-12453600D01*
X11862920Y-12378600D01*
X11787920Y-12453600D01*
X11862920Y-12528600D01*
X11862920Y-12782600D02*
X11937920Y-12707600D01*
X11862920Y-12632600D01*
X11787920Y-12707600D01*
X11862920Y-12782600D01*
X11862920Y-13036600D02*
X11937920Y-12961600D01*
X11862920Y-12886600D01*
X11787920Y-12961600D01*
X11862920Y-13036600D01*
X11862920Y-13290600D02*
X11937920Y-13215600D01*
X11862920Y-13140600D01*
X11787920Y-13215600D01*
X11862920Y-13290600D01*
X11862920Y-13544600D02*
X11937920Y-13469600D01*
X11862920Y-13394600D01*
X11787920Y-13469600D01*
X11862920Y-13544600D01*
X11862920Y-13798600D02*
X11937920Y-13723600D01*
X11862920Y-13648600D01*
X11787920Y-13723600D01*
X11862920Y-13798600D01*
X11864720Y-4621600D02*
X11939720Y-4546600D01*
X11864720Y-4471600D01*
X11789720Y-4546600D01*
X11864720Y-4621600D01*
X11864720Y-4875600D02*
X11939720Y-4800600D01*
X11864720Y-4725600D01*
X11789720Y-4800600D01*
X11864720Y-4875600D01*
X11864720Y-5129600D02*
X11939720Y-5054600D01*
X11864720Y-4979600D01*
X11789720Y-5054600D01*
X11864720Y-5129600D01*
X11864720Y-5383600D02*
X11939720Y-5308600D01*
X11864720Y-5233600D01*
X11789720Y-5308600D01*
X11864720Y-5383600D01*
X11864720Y-5637600D02*
X11939720Y-5562600D01*
X11864720Y-5487600D01*
X11789720Y-5562600D01*
X11864720Y-5637600D01*
X11864720Y-5891600D02*
X11939720Y-5816600D01*
X11864720Y-5741600D01*
X11789720Y-5816600D01*
X11864720Y-5891600D01*
X11864720Y-6145600D02*
X11939720Y-6070600D01*
X11864720Y-5995600D01*
X11789720Y-6070600D01*
X11864720Y-6145600D01*
X11864720Y-6399600D02*
X11939720Y-6324600D01*
X11864720Y-6249600D01*
X11789720Y-6324600D01*
X11864720Y-6399600D01*
X11864720Y-6653600D02*
X11939720Y-6578600D01*
X11864720Y-6503600D01*
X11789720Y-6578600D01*
X11864720Y-6653600D01*
X11864720Y-6907600D02*
X11939720Y-6832600D01*
X11864720Y-6757600D01*
X11789720Y-6832600D01*
X11864720Y-6907600D01*
X11864720Y-7161600D02*
X11939720Y-7086600D01*
X11864720Y-7011600D01*
X11789720Y-7086600D01*
X11864720Y-7161600D01*
X11864720Y-7415600D02*
X11939720Y-7340600D01*
X11864720Y-7265600D01*
X11789720Y-7340600D01*
X11864720Y-7415600D01*
X11864720Y-7669600D02*
X11939720Y-7594600D01*
X11864720Y-7519600D01*
X11789720Y-7594600D01*
X11864720Y-7669600D01*
X11864720Y-7923600D02*
X11939720Y-7848600D01*
X11864720Y-7773600D01*
X11789720Y-7848600D01*
X11864720Y-7923600D01*
X11864720Y-8177600D02*
X11939720Y-8102600D01*
X11864720Y-8027600D01*
X11789720Y-8102600D01*
X11864720Y-8177600D01*
X11864720Y-8431600D02*
X11939720Y-8356600D01*
X11864720Y-8281600D01*
X11789720Y-8356600D01*
X11864720Y-8431600D01*
X11864720Y-8685600D02*
X11939720Y-8610600D01*
X11864720Y-8535600D01*
X11789720Y-8610600D01*
X11864720Y-8685600D01*
X11864720Y-8939600D02*
X11939720Y-8864600D01*
X11864720Y-8789600D01*
X11789720Y-8864600D01*
X11864720Y-8939600D01*
X12116920Y-9480600D02*
X12191920Y-9405600D01*
X12116920Y-9330600D01*
X12041920Y-9405600D01*
X12116920Y-9480600D01*
X12116920Y-9734600D02*
X12191920Y-9659600D01*
X12116920Y-9584600D01*
X12041920Y-9659600D01*
X12116920Y-9734600D01*
X12116920Y-9988600D02*
X12191920Y-9913600D01*
X12116920Y-9838600D01*
X12041920Y-9913600D01*
X12116920Y-9988600D01*
X12116920Y-10496600D02*
X12191920Y-10421600D01*
X12116920Y-10346600D01*
X12041920Y-10421600D01*
X12116920Y-10496600D01*
X12116920Y-10750600D02*
X12191920Y-10675600D01*
X12116920Y-10600600D01*
X12041920Y-10675600D01*
X12116920Y-10750600D01*
X12116920Y-11004600D02*
X12191920Y-10929600D01*
X12116920Y-10854600D01*
X12041920Y-10929600D01*
X12116920Y-11004600D01*
X12116920Y-11258600D02*
X12191920Y-11183600D01*
X12116920Y-11108600D01*
X12041920Y-11183600D01*
X12116920Y-11258600D01*
X12116920Y-11512600D02*
X12191920Y-11437600D01*
X12116920Y-11362600D01*
X12041920Y-11437600D01*
X12116920Y-11512600D01*
X12116920Y-12020600D02*
X12191920Y-11945600D01*
X12116920Y-11870600D01*
X12041920Y-11945600D01*
X12116920Y-12020600D01*
X12116920Y-12782600D02*
X12191920Y-12707600D01*
X12116920Y-12632600D01*
X12041920Y-12707600D01*
X12116920Y-12782600D01*
X12116920Y-13036600D02*
X12191920Y-12961600D01*
X12116920Y-12886600D01*
X12041920Y-12961600D01*
X12116920Y-13036600D01*
X12116920Y-13290600D02*
X12191920Y-13215600D01*
X12116920Y-13140600D01*
X12041920Y-13215600D01*
X12116920Y-13290600D01*
X12116920Y-13544600D02*
X12191920Y-13469600D01*
X12116920Y-13394600D01*
X12041920Y-13469600D01*
X12116920Y-13544600D01*
X12116920Y-13798600D02*
X12191920Y-13723600D01*
X12116920Y-13648600D01*
X12041920Y-13723600D01*
X12116920Y-13798600D01*
X12118720Y-4621600D02*
X12193720Y-4546600D01*
X12118720Y-4471600D01*
X12043720Y-4546600D01*
X12118720Y-4621600D01*
X12118720Y-4875600D02*
X12193720Y-4800600D01*
X12118720Y-4725600D01*
X12043720Y-4800600D01*
X12118720Y-4875600D01*
X12118720Y-5129600D02*
X12193720Y-5054600D01*
X12118720Y-4979600D01*
X12043720Y-5054600D01*
X12118720Y-5129600D01*
X12118720Y-8431600D02*
X12193720Y-8356600D01*
X12118720Y-8281600D01*
X12043720Y-8356600D01*
X12118720Y-8431600D01*
X12118720Y-8685600D02*
X12193720Y-8610600D01*
X12118720Y-8535600D01*
X12043720Y-8610600D01*
X12118720Y-8685600D01*
X12118720Y-8939600D02*
X12193720Y-8864600D01*
X12118720Y-8789600D01*
X12043720Y-8864600D01*
X12118720Y-8939600D01*
X12370920Y-9480600D02*
X12445920Y-9405600D01*
X12370920Y-9330600D01*
X12295920Y-9405600D01*
X12370920Y-9480600D01*
X12370920Y-9734600D02*
X12445920Y-9659600D01*
X12370920Y-9584600D01*
X12295920Y-9659600D01*
X12370920Y-9734600D01*
X12370920Y-9988600D02*
X12445920Y-9913600D01*
X12370920Y-9838600D01*
X12295920Y-9913600D01*
X12370920Y-9988600D01*
X12370920Y-13036600D02*
X12445920Y-12961600D01*
X12370920Y-12886600D01*
X12295920Y-12961600D01*
X12370920Y-13036600D01*
X12370920Y-13290600D02*
X12445920Y-13215600D01*
X12370920Y-13140600D01*
X12295920Y-13215600D01*
X12370920Y-13290600D01*
X12370920Y-13544600D02*
X12445920Y-13469600D01*
X12370920Y-13394600D01*
X12295920Y-13469600D01*
X12370920Y-13544600D01*
X12370920Y-13798600D02*
X12445920Y-13723600D01*
X12370920Y-13648600D01*
X12295920Y-13723600D01*
X12370920Y-13798600D01*
X12372720Y-4621600D02*
X12447720Y-4546600D01*
X12372720Y-4471600D01*
X12297720Y-4546600D01*
X12372720Y-4621600D01*
X12372720Y-4875600D02*
X12447720Y-4800600D01*
X12372720Y-4725600D01*
X12297720Y-4800600D01*
X12372720Y-4875600D01*
X12372720Y-5129600D02*
X12447720Y-5054600D01*
X12372720Y-4979600D01*
X12297720Y-5054600D01*
X12372720Y-5129600D01*
X12372720Y-8431600D02*
X12447720Y-8356600D01*
X12372720Y-8281600D01*
X12297720Y-8356600D01*
X12372720Y-8431600D01*
X12372720Y-8685600D02*
X12447720Y-8610600D01*
X12372720Y-8535600D01*
X12297720Y-8610600D01*
X12372720Y-8685600D01*
X12372720Y-8939600D02*
X12447720Y-8864600D01*
X12372720Y-8789600D01*
X12297720Y-8864600D01*
X12372720Y-8939600D01*
X12624920Y-9480600D02*
X12699920Y-9405600D01*
X12624920Y-9330600D01*
X12549920Y-9405600D01*
X12624920Y-9480600D01*
X12624920Y-9734600D02*
X12699920Y-9659600D01*
X12624920Y-9584600D01*
X12549920Y-9659600D01*
X12624920Y-9734600D01*
X12624920Y-9988600D02*
X12699920Y-9913600D01*
X12624920Y-9838600D01*
X12549920Y-9913600D01*
X12624920Y-9988600D01*
X12624920Y-13036600D02*
X12699920Y-12961600D01*
X12624920Y-12886600D01*
X12549920Y-12961600D01*
X12624920Y-13036600D01*
X12624920Y-13290600D02*
X12699920Y-13215600D01*
X12624920Y-13140600D01*
X12549920Y-13215600D01*
X12624920Y-13290600D01*
X12624920Y-13544600D02*
X12699920Y-13469600D01*
X12624920Y-13394600D01*
X12549920Y-13469600D01*
X12624920Y-13544600D01*
X12624920Y-13798600D02*
X12699920Y-13723600D01*
X12624920Y-13648600D01*
X12549920Y-13723600D01*
X12624920Y-13798600D01*
X12626720Y-4621600D02*
X12701720Y-4546600D01*
X12626720Y-4471600D01*
X12551720Y-4546600D01*
X12626720Y-4621600D01*
X12626720Y-4875600D02*
X12701720Y-4800600D01*
X12626720Y-4725600D01*
X12551720Y-4800600D01*
X12626720Y-4875600D01*
X12626720Y-5129600D02*
X12701720Y-5054600D01*
X12626720Y-4979600D01*
X12551720Y-5054600D01*
X12626720Y-5129600D01*
X12626720Y-8431600D02*
X12701720Y-8356600D01*
X12626720Y-8281600D01*
X12551720Y-8356600D01*
X12626720Y-8431600D01*
X12626720Y-8685600D02*
X12701720Y-8610600D01*
X12626720Y-8535600D01*
X12551720Y-8610600D01*
X12626720Y-8685600D01*
X12626720Y-8939600D02*
X12701720Y-8864600D01*
X12626720Y-8789600D01*
X12551720Y-8864600D01*
X12626720Y-8939600D01*
X12878920Y-9480600D02*
X12953920Y-9405600D01*
X12878920Y-9330600D01*
X12803920Y-9405600D01*
X12878920Y-9480600D01*
X12878920Y-9734600D02*
X12953920Y-9659600D01*
X12878920Y-9584600D01*
X12803920Y-9659600D01*
X12878920Y-9734600D01*
X12878920Y-9988600D02*
X12953920Y-9913600D01*
X12878920Y-9838600D01*
X12803920Y-9913600D01*
X12878920Y-9988600D01*
X12878920Y-13036600D02*
X12953920Y-12961600D01*
X12878920Y-12886600D01*
X12803920Y-12961600D01*
X12878920Y-13036600D01*
X12878920Y-13544600D02*
X12953920Y-13469600D01*
X12878920Y-13394600D01*
X12803920Y-13469600D01*
X12878920Y-13544600D01*
X12878920Y-13798600D02*
X12953920Y-13723600D01*
X12878920Y-13648600D01*
X12803920Y-13723600D01*
X12878920Y-13798600D01*
X12880720Y-4621600D02*
X12955720Y-4546600D01*
X12880720Y-4471600D01*
X12805720Y-4546600D01*
X12880720Y-4621600D01*
X12880720Y-4875600D02*
X12955720Y-4800600D01*
X12880720Y-4725600D01*
X12805720Y-4800600D01*
X12880720Y-4875600D01*
X12880720Y-5129600D02*
X12955720Y-5054600D01*
X12880720Y-4979600D01*
X12805720Y-5054600D01*
X12880720Y-5129600D01*
X12880720Y-8431600D02*
X12955720Y-8356600D01*
X12880720Y-8281600D01*
X12805720Y-8356600D01*
X12880720Y-8431600D01*
X12880720Y-8685600D02*
X12955720Y-8610600D01*
X12880720Y-8535600D01*
X12805720Y-8610600D01*
X12880720Y-8685600D01*
X12880720Y-8939600D02*
X12955720Y-8864600D01*
X12880720Y-8789600D01*
X12805720Y-8864600D01*
X12880720Y-8939600D01*
X13132920Y-9480600D02*
X13207920Y-9405600D01*
X13132920Y-9330600D01*
X13057920Y-9405600D01*
X13132920Y-9480600D01*
X13132920Y-9734600D02*
X13207920Y-9659600D01*
X13132920Y-9584600D01*
X13057920Y-9659600D01*
X13132920Y-9734600D01*
X13132920Y-9988600D02*
X13207920Y-9913600D01*
X13132920Y-9838600D01*
X13057920Y-9913600D01*
X13132920Y-9988600D01*
X13132920Y-10242600D02*
X13207920Y-10167600D01*
X13132920Y-10092600D01*
X13057920Y-10167600D01*
X13132920Y-10242600D01*
X13132920Y-13036600D02*
X13207920Y-12961600D01*
X13132920Y-12886600D01*
X13057920Y-12961600D01*
X13132920Y-13036600D01*
X13132920Y-13290600D02*
X13207920Y-13215600D01*
X13132920Y-13140600D01*
X13057920Y-13215600D01*
X13132920Y-13290600D01*
X13132920Y-13544600D02*
X13207920Y-13469600D01*
X13132920Y-13394600D01*
X13057920Y-13469600D01*
X13132920Y-13544600D01*
X13132920Y-13798600D02*
X13207920Y-13723600D01*
X13132920Y-13648600D01*
X13057920Y-13723600D01*
X13132920Y-13798600D01*
X13134720Y-4621600D02*
X13209720Y-4546600D01*
X13134720Y-4471600D01*
X13059720Y-4546600D01*
X13134720Y-4621600D01*
X13134720Y-4875600D02*
X13209720Y-4800600D01*
X13134720Y-4725600D01*
X13059720Y-4800600D01*
X13134720Y-4875600D01*
X13134720Y-5129600D02*
X13209720Y-5054600D01*
X13134720Y-4979600D01*
X13059720Y-5054600D01*
X13134720Y-5129600D01*
X13134720Y-8431600D02*
X13209720Y-8356600D01*
X13134720Y-8281600D01*
X13059720Y-8356600D01*
X13134720Y-8431600D01*
X13134720Y-8685600D02*
X13209720Y-8610600D01*
X13134720Y-8535600D01*
X13059720Y-8610600D01*
X13134720Y-8685600D01*
X13134720Y-8939600D02*
X13209720Y-8864600D01*
X13134720Y-8789600D01*
X13059720Y-8864600D01*
X13134720Y-8939600D01*
X13386920Y-9480600D02*
X13461920Y-9405600D01*
X13386920Y-9330600D01*
X13311920Y-9405600D01*
X13386920Y-9480600D01*
X13386920Y-9734600D02*
X13461920Y-9659600D01*
X13386920Y-9584600D01*
X13311920Y-9659600D01*
X13386920Y-9734600D01*
X13386920Y-9988600D02*
X13461920Y-9913600D01*
X13386920Y-9838600D01*
X13311920Y-9913600D01*
X13386920Y-9988600D01*
X13386920Y-13036600D02*
X13461920Y-12961600D01*
X13386920Y-12886600D01*
X13311920Y-12961600D01*
X13386920Y-13036600D01*
X13386920Y-13290600D02*
X13461920Y-13215600D01*
X13386920Y-13140600D01*
X13311920Y-13215600D01*
X13386920Y-13290600D01*
X13386920Y-13544600D02*
X13461920Y-13469600D01*
X13386920Y-13394600D01*
X13311920Y-13469600D01*
X13386920Y-13544600D01*
X13388720Y-4621600D02*
X13463720Y-4546600D01*
X13388720Y-4471600D01*
X13313720Y-4546600D01*
X13388720Y-4621600D01*
X13388720Y-4875600D02*
X13463720Y-4800600D01*
X13388720Y-4725600D01*
X13313720Y-4800600D01*
X13388720Y-4875600D01*
X13388720Y-5129600D02*
X13463720Y-5054600D01*
X13388720Y-4979600D01*
X13313720Y-5054600D01*
X13388720Y-5129600D01*
X13388720Y-8431600D02*
X13463720Y-8356600D01*
X13388720Y-8281600D01*
X13313720Y-8356600D01*
X13388720Y-8431600D01*
X13388720Y-8685600D02*
X13463720Y-8610600D01*
X13388720Y-8535600D01*
X13313720Y-8610600D01*
X13388720Y-8685600D01*
X13388720Y-8939600D02*
X13463720Y-8864600D01*
X13388720Y-8789600D01*
X13313720Y-8864600D01*
X13388720Y-8939600D01*
X13640920Y-9480600D02*
X13715920Y-9405600D01*
X13640920Y-9330600D01*
X13565920Y-9405600D01*
X13640920Y-9480600D01*
X13640920Y-9734600D02*
X13715920Y-9659600D01*
X13640920Y-9584600D01*
X13565920Y-9659600D01*
X13640920Y-9734600D01*
X13640920Y-9988600D02*
X13715920Y-9913600D01*
X13640920Y-9838600D01*
X13565920Y-9913600D01*
X13640920Y-9988600D01*
X13640920Y-10242600D02*
X13715920Y-10167600D01*
X13640920Y-10092600D01*
X13565920Y-10167600D01*
X13640920Y-10242600D01*
X13640920Y-13036600D02*
X13715920Y-12961600D01*
X13640920Y-12886600D01*
X13565920Y-12961600D01*
X13640920Y-13036600D01*
X13640920Y-13544600D02*
X13715920Y-13469600D01*
X13640920Y-13394600D01*
X13565920Y-13469600D01*
X13640920Y-13544600D01*
X13640920Y-13798600D02*
X13715920Y-13723600D01*
X13640920Y-13648600D01*
X13565920Y-13723600D01*
X13640920Y-13798600D01*
X13642720Y-4621600D02*
X13717720Y-4546600D01*
X13642720Y-4471600D01*
X13567720Y-4546600D01*
X13642720Y-4621600D01*
X13642720Y-4875600D02*
X13717720Y-4800600D01*
X13642720Y-4725600D01*
X13567720Y-4800600D01*
X13642720Y-4875600D01*
X13642720Y-5129600D02*
X13717720Y-5054600D01*
X13642720Y-4979600D01*
X13567720Y-5054600D01*
X13642720Y-5129600D01*
X13642720Y-8431600D02*
X13717720Y-8356600D01*
X13642720Y-8281600D01*
X13567720Y-8356600D01*
X13642720Y-8431600D01*
X13642720Y-8685600D02*
X13717720Y-8610600D01*
X13642720Y-8535600D01*
X13567720Y-8610600D01*
X13642720Y-8685600D01*
X13642720Y-8939600D02*
X13717720Y-8864600D01*
X13642720Y-8789600D01*
X13567720Y-8864600D01*
X13642720Y-8939600D01*
X13894920Y-9480600D02*
X13969920Y-9405600D01*
X13894920Y-9330600D01*
X13819920Y-9405600D01*
X13894920Y-9480600D01*
X13894920Y-9734600D02*
X13969920Y-9659600D01*
X13894920Y-9584600D01*
X13819920Y-9659600D01*
X13894920Y-9734600D01*
X13894920Y-9988600D02*
X13969920Y-9913600D01*
X13894920Y-9838600D01*
X13819920Y-9913600D01*
X13894920Y-9988600D01*
X13894920Y-12782600D02*
X13969920Y-12707600D01*
X13894920Y-12632600D01*
X13819920Y-12707600D01*
X13894920Y-12782600D01*
X13894920Y-13036600D02*
X13969920Y-12961600D01*
X13894920Y-12886600D01*
X13819920Y-12961600D01*
X13894920Y-13036600D01*
X13894920Y-13290600D02*
X13969920Y-13215600D01*
X13894920Y-13140600D01*
X13819920Y-13215600D01*
X13894920Y-13290600D01*
X13894920Y-13544600D02*
X13969920Y-13469600D01*
X13894920Y-13394600D01*
X13819920Y-13469600D01*
X13894920Y-13544600D01*
X13894920Y-13798600D02*
X13969920Y-13723600D01*
X13894920Y-13648600D01*
X13819920Y-13723600D01*
X13894920Y-13798600D01*
X13896720Y-4621600D02*
X13971720Y-4546600D01*
X13896720Y-4471600D01*
X13821720Y-4546600D01*
X13896720Y-4621600D01*
X13896720Y-4875600D02*
X13971720Y-4800600D01*
X13896720Y-4725600D01*
X13821720Y-4800600D01*
X13896720Y-4875600D01*
X13896720Y-5129600D02*
X13971720Y-5054600D01*
X13896720Y-4979600D01*
X13821720Y-5054600D01*
X13896720Y-5129600D01*
X13896720Y-7923600D02*
X13971720Y-7848600D01*
X13896720Y-7773600D01*
X13821720Y-7848600D01*
X13896720Y-7923600D01*
X13896720Y-8431600D02*
X13971720Y-8356600D01*
X13896720Y-8281600D01*
X13821720Y-8356600D01*
X13896720Y-8431600D01*
X13896720Y-8685600D02*
X13971720Y-8610600D01*
X13896720Y-8535600D01*
X13821720Y-8610600D01*
X13896720Y-8685600D01*
X13896720Y-8939600D02*
X13971720Y-8864600D01*
X13896720Y-8789600D01*
X13821720Y-8864600D01*
X13896720Y-8939600D01*
X14148920Y-9480600D02*
X14223920Y-9405600D01*
X14148920Y-9330600D01*
X14073920Y-9405600D01*
X14148920Y-9480600D01*
X14148920Y-9734600D02*
X14223920Y-9659600D01*
X14148920Y-9584600D01*
X14073920Y-9659600D01*
X14148920Y-9734600D01*
X14148920Y-9988600D02*
X14223920Y-9913600D01*
X14148920Y-9838600D01*
X14073920Y-9913600D01*
X14148920Y-9988600D01*
X14148920Y-10242600D02*
X14223920Y-10167600D01*
X14148920Y-10092600D01*
X14073920Y-10167600D01*
X14148920Y-10242600D01*
X14148920Y-12782600D02*
X14223920Y-12707600D01*
X14148920Y-12632600D01*
X14073920Y-12707600D01*
X14148920Y-12782600D01*
X14148920Y-13036600D02*
X14223920Y-12961600D01*
X14148920Y-12886600D01*
X14073920Y-12961600D01*
X14148920Y-13036600D01*
X14148920Y-13290600D02*
X14223920Y-13215600D01*
X14148920Y-13140600D01*
X14073920Y-13215600D01*
X14148920Y-13290600D01*
X14150720Y-4621600D02*
X14225720Y-4546600D01*
X14150720Y-4471600D01*
X14075720Y-4546600D01*
X14150720Y-4621600D01*
X14150720Y-4875600D02*
X14225720Y-4800600D01*
X14150720Y-4725600D01*
X14075720Y-4800600D01*
X14150720Y-4875600D01*
X14150720Y-5129600D02*
X14225720Y-5054600D01*
X14150720Y-4979600D01*
X14075720Y-5054600D01*
X14150720Y-5129600D01*
X14150720Y-7923600D02*
X14225720Y-7848600D01*
X14150720Y-7773600D01*
X14075720Y-7848600D01*
X14150720Y-7923600D01*
X14150720Y-8431600D02*
X14225720Y-8356600D01*
X14150720Y-8281600D01*
X14075720Y-8356600D01*
X14150720Y-8431600D01*
X14150720Y-8685600D02*
X14225720Y-8610600D01*
X14150720Y-8535600D01*
X14075720Y-8610600D01*
X14150720Y-8685600D01*
X14150720Y-8939600D02*
X14225720Y-8864600D01*
X14150720Y-8789600D01*
X14075720Y-8864600D01*
X14150720Y-8939600D01*
X14402920Y-9480600D02*
X14477920Y-9405600D01*
X14402920Y-9330600D01*
X14327920Y-9405600D01*
X14402920Y-9480600D01*
X14402920Y-9734600D02*
X14477920Y-9659600D01*
X14402920Y-9584600D01*
X14327920Y-9659600D01*
X14402920Y-9734600D01*
X14402920Y-9988600D02*
X14477920Y-9913600D01*
X14402920Y-9838600D01*
X14327920Y-9913600D01*
X14402920Y-9988600D01*
X14402920Y-12782600D02*
X14477920Y-12707600D01*
X14402920Y-12632600D01*
X14327920Y-12707600D01*
X14402920Y-12782600D01*
X14402920Y-13036600D02*
X14477920Y-12961600D01*
X14402920Y-12886600D01*
X14327920Y-12961600D01*
X14402920Y-13036600D01*
X14402920Y-13290600D02*
X14477920Y-13215600D01*
X14402920Y-13140600D01*
X14327920Y-13215600D01*
X14402920Y-13290600D01*
X14402920Y-13544600D02*
X14477920Y-13469600D01*
X14402920Y-13394600D01*
X14327920Y-13469600D01*
X14402920Y-13544600D01*
X14402920Y-13798600D02*
X14477920Y-13723600D01*
X14402920Y-13648600D01*
X14327920Y-13723600D01*
X14402920Y-13798600D01*
X14404720Y-4621600D02*
X14479720Y-4546600D01*
X14404720Y-4471600D01*
X14329720Y-4546600D01*
X14404720Y-4621600D01*
X14404720Y-4875600D02*
X14479720Y-4800600D01*
X14404720Y-4725600D01*
X14329720Y-4800600D01*
X14404720Y-4875600D01*
X14404720Y-5129600D02*
X14479720Y-5054600D01*
X14404720Y-4979600D01*
X14329720Y-5054600D01*
X14404720Y-5129600D01*
X14404720Y-7923600D02*
X14479720Y-7848600D01*
X14404720Y-7773600D01*
X14329720Y-7848600D01*
X14404720Y-7923600D01*
X14404720Y-8431600D02*
X14479720Y-8356600D01*
X14404720Y-8281600D01*
X14329720Y-8356600D01*
X14404720Y-8431600D01*
X14404720Y-8685600D02*
X14479720Y-8610600D01*
X14404720Y-8535600D01*
X14329720Y-8610600D01*
X14404720Y-8685600D01*
X14404720Y-8939600D02*
X14479720Y-8864600D01*
X14404720Y-8789600D01*
X14329720Y-8864600D01*
X14404720Y-8939600D01*
X14656920Y-9480600D02*
X14731920Y-9405600D01*
X14656920Y-9330600D01*
X14581920Y-9405600D01*
X14656920Y-9480600D01*
X14656920Y-9734600D02*
X14731920Y-9659600D01*
X14656920Y-9584600D01*
X14581920Y-9659600D01*
X14656920Y-9734600D01*
X14656920Y-9988600D02*
X14731920Y-9913600D01*
X14656920Y-9838600D01*
X14581920Y-9913600D01*
X14656920Y-9988600D01*
X14656920Y-12782600D02*
X14731920Y-12707600D01*
X14656920Y-12632600D01*
X14581920Y-12707600D01*
X14656920Y-12782600D01*
X14656920Y-13036600D02*
X14731920Y-12961600D01*
X14656920Y-12886600D01*
X14581920Y-12961600D01*
X14656920Y-13036600D01*
X14656920Y-13290600D02*
X14731920Y-13215600D01*
X14656920Y-13140600D01*
X14581920Y-13215600D01*
X14656920Y-13290600D01*
X14656920Y-13544600D02*
X14731920Y-13469600D01*
X14656920Y-13394600D01*
X14581920Y-13469600D01*
X14656920Y-13544600D01*
X14656920Y-13798600D02*
X14731920Y-13723600D01*
X14656920Y-13648600D01*
X14581920Y-13723600D01*
X14656920Y-13798600D01*
X14658720Y-4621600D02*
X14733720Y-4546600D01*
X14658720Y-4471600D01*
X14583720Y-4546600D01*
X14658720Y-4621600D01*
X14658720Y-4875600D02*
X14733720Y-4800600D01*
X14658720Y-4725600D01*
X14583720Y-4800600D01*
X14658720Y-4875600D01*
X14658720Y-5129600D02*
X14733720Y-5054600D01*
X14658720Y-4979600D01*
X14583720Y-5054600D01*
X14658720Y-5129600D01*
X14658720Y-7923600D02*
X14733720Y-7848600D01*
X14658720Y-7773600D01*
X14583720Y-7848600D01*
X14658720Y-7923600D01*
X14658720Y-8431600D02*
X14733720Y-8356600D01*
X14658720Y-8281600D01*
X14583720Y-8356600D01*
X14658720Y-8431600D01*
X14658720Y-8685600D02*
X14733720Y-8610600D01*
X14658720Y-8535600D01*
X14583720Y-8610600D01*
X14658720Y-8685600D01*
X14658720Y-8939600D02*
X14733720Y-8864600D01*
X14658720Y-8789600D01*
X14583720Y-8864600D01*
X14658720Y-8939600D01*
X14910920Y-9480600D02*
X14985920Y-9405600D01*
X14910920Y-9330600D01*
X14835920Y-9405600D01*
X14910920Y-9480600D01*
X14910920Y-9734600D02*
X14985920Y-9659600D01*
X14910920Y-9584600D01*
X14835920Y-9659600D01*
X14910920Y-9734600D01*
X14910920Y-9988600D02*
X14985920Y-9913600D01*
X14910920Y-9838600D01*
X14835920Y-9913600D01*
X14910920Y-9988600D01*
X14910920Y-10242600D02*
X14985920Y-10167600D01*
X14910920Y-10092600D01*
X14835920Y-10167600D01*
X14910920Y-10242600D01*
X14910920Y-10496600D02*
X14985920Y-10421600D01*
X14910920Y-10346600D01*
X14835920Y-10421600D01*
X14910920Y-10496600D01*
X14910920Y-10750600D02*
X14985920Y-10675600D01*
X14910920Y-10600600D01*
X14835920Y-10675600D01*
X14910920Y-10750600D01*
X14910920Y-11004600D02*
X14985920Y-10929600D01*
X14910920Y-10854600D01*
X14835920Y-10929600D01*
X14910920Y-11004600D01*
X14910920Y-11258600D02*
X14985920Y-11183600D01*
X14910920Y-11108600D01*
X14835920Y-11183600D01*
X14910920Y-11258600D01*
X14910920Y-11512600D02*
X14985920Y-11437600D01*
X14910920Y-11362600D01*
X14835920Y-11437600D01*
X14910920Y-11512600D01*
X14910920Y-11766600D02*
X14985920Y-11691600D01*
X14910920Y-11616600D01*
X14835920Y-11691600D01*
X14910920Y-11766600D01*
X14910920Y-12020600D02*
X14985920Y-11945600D01*
X14910920Y-11870600D01*
X14835920Y-11945600D01*
X14910920Y-12020600D01*
X14910920Y-12274600D02*
X14985920Y-12199600D01*
X14910920Y-12124600D01*
X14835920Y-12199600D01*
X14910920Y-12274600D01*
X14910920Y-12528600D02*
X14985920Y-12453600D01*
X14910920Y-12378600D01*
X14835920Y-12453600D01*
X14910920Y-12528600D01*
X14910920Y-12782600D02*
X14985920Y-12707600D01*
X14910920Y-12632600D01*
X14835920Y-12707600D01*
X14910920Y-12782600D01*
X14910920Y-13036600D02*
X14985920Y-12961600D01*
X14910920Y-12886600D01*
X14835920Y-12961600D01*
X14910920Y-13036600D01*
X14910920Y-13290600D02*
X14985920Y-13215600D01*
X14910920Y-13140600D01*
X14835920Y-13215600D01*
X14910920Y-13290600D01*
X14910920Y-13544600D02*
X14985920Y-13469600D01*
X14910920Y-13394600D01*
X14835920Y-13469600D01*
X14910920Y-13544600D01*
X14910920Y-13798600D02*
X14985920Y-13723600D01*
X14910920Y-13648600D01*
X14835920Y-13723600D01*
X14910920Y-13798600D01*
X14912720Y-4621600D02*
X14987720Y-4546600D01*
X14912720Y-4471600D01*
X14837720Y-4546600D01*
X14912720Y-4621600D01*
X14912720Y-4875600D02*
X14987720Y-4800600D01*
X14912720Y-4725600D01*
X14837720Y-4800600D01*
X14912720Y-4875600D01*
X14912720Y-5129600D02*
X14987720Y-5054600D01*
X14912720Y-4979600D01*
X14837720Y-5054600D01*
X14912720Y-5129600D01*
X14912720Y-8431600D02*
X14987720Y-8356600D01*
X14912720Y-8281600D01*
X14837720Y-8356600D01*
X14912720Y-8431600D01*
X14912720Y-8685600D02*
X14987720Y-8610600D01*
X14912720Y-8535600D01*
X14837720Y-8610600D01*
X14912720Y-8685600D01*
X14912720Y-8939600D02*
X14987720Y-8864600D01*
X14912720Y-8789600D01*
X14837720Y-8864600D01*
X14912720Y-8939600D01*
X15164920Y-9480600D02*
X15239920Y-9405600D01*
X15164920Y-9330600D01*
X15089920Y-9405600D01*
X15164920Y-9480600D01*
X15164920Y-9734600D02*
X15239920Y-9659600D01*
X15164920Y-9584600D01*
X15089920Y-9659600D01*
X15164920Y-9734600D01*
X15164920Y-9988600D02*
X15239920Y-9913600D01*
X15164920Y-9838600D01*
X15089920Y-9913600D01*
X15164920Y-9988600D01*
X15164920Y-10242600D02*
X15239920Y-10167600D01*
X15164920Y-10092600D01*
X15089920Y-10167600D01*
X15164920Y-10242600D01*
X15164920Y-10496600D02*
X15239920Y-10421600D01*
X15164920Y-10346600D01*
X15089920Y-10421600D01*
X15164920Y-10496600D01*
X15164920Y-10750600D02*
X15239920Y-10675600D01*
X15164920Y-10600600D01*
X15089920Y-10675600D01*
X15164920Y-10750600D01*
X15164920Y-11004600D02*
X15239920Y-10929600D01*
X15164920Y-10854600D01*
X15089920Y-10929600D01*
X15164920Y-11004600D01*
X15164920Y-11258600D02*
X15239920Y-11183600D01*
X15164920Y-11108600D01*
X15089920Y-11183600D01*
X15164920Y-11258600D01*
X15164920Y-11512600D02*
X15239920Y-11437600D01*
X15164920Y-11362600D01*
X15089920Y-11437600D01*
X15164920Y-11512600D01*
X15164920Y-11766600D02*
X15239920Y-11691600D01*
X15164920Y-11616600D01*
X15089920Y-11691600D01*
X15164920Y-11766600D01*
X15164920Y-12020600D02*
X15239920Y-11945600D01*
X15164920Y-11870600D01*
X15089920Y-11945600D01*
X15164920Y-12020600D01*
X15164920Y-12274600D02*
X15239920Y-12199600D01*
X15164920Y-12124600D01*
X15089920Y-12199600D01*
X15164920Y-12274600D01*
X15164920Y-12528600D02*
X15239920Y-12453600D01*
X15164920Y-12378600D01*
X15089920Y-12453600D01*
X15164920Y-12528600D01*
X15164920Y-12782600D02*
X15239920Y-12707600D01*
X15164920Y-12632600D01*
X15089920Y-12707600D01*
X15164920Y-12782600D01*
X15164920Y-13290600D02*
X15239920Y-13215600D01*
X15164920Y-13140600D01*
X15089920Y-13215600D01*
X15164920Y-13290600D01*
X15164920Y-13544600D02*
X15239920Y-13469600D01*
X15164920Y-13394600D01*
X15089920Y-13469600D01*
X15164920Y-13544600D01*
X15164920Y-13798600D02*
X15239920Y-13723600D01*
X15164920Y-13648600D01*
X15089920Y-13723600D01*
X15164920Y-13798600D01*
X15166720Y-4621600D02*
X15241720Y-4546600D01*
X15166720Y-4471600D01*
X15091720Y-4546600D01*
X15166720Y-4621600D01*
X15166720Y-4875600D02*
X15241720Y-4800600D01*
X15166720Y-4725600D01*
X15091720Y-4800600D01*
X15166720Y-4875600D01*
X15166720Y-5129600D02*
X15241720Y-5054600D01*
X15166720Y-4979600D01*
X15091720Y-5054600D01*
X15166720Y-5129600D01*
X15166720Y-5383600D02*
X15241720Y-5308600D01*
X15166720Y-5233600D01*
X15091720Y-5308600D01*
X15166720Y-5383600D01*
X15166720Y-5637600D02*
X15241720Y-5562600D01*
X15166720Y-5487600D01*
X15091720Y-5562600D01*
X15166720Y-5637600D01*
X15166720Y-5891600D02*
X15241720Y-5816600D01*
X15166720Y-5741600D01*
X15091720Y-5816600D01*
X15166720Y-5891600D01*
X15166720Y-6145600D02*
X15241720Y-6070600D01*
X15166720Y-5995600D01*
X15091720Y-6070600D01*
X15166720Y-6145600D01*
X15166720Y-6399600D02*
X15241720Y-6324600D01*
X15166720Y-6249600D01*
X15091720Y-6324600D01*
X15166720Y-6399600D01*
X15166720Y-6653600D02*
X15241720Y-6578600D01*
X15166720Y-6503600D01*
X15091720Y-6578600D01*
X15166720Y-6653600D01*
X15166720Y-6907600D02*
X15241720Y-6832600D01*
X15166720Y-6757600D01*
X15091720Y-6832600D01*
X15166720Y-6907600D01*
X15166720Y-7161600D02*
X15241720Y-7086600D01*
X15166720Y-7011600D01*
X15091720Y-7086600D01*
X15166720Y-7161600D01*
X15166720Y-7415600D02*
X15241720Y-7340600D01*
X15166720Y-7265600D01*
X15091720Y-7340600D01*
X15166720Y-7415600D01*
X15166720Y-7669600D02*
X15241720Y-7594600D01*
X15166720Y-7519600D01*
X15091720Y-7594600D01*
X15166720Y-7669600D01*
X15166720Y-7923600D02*
X15241720Y-7848600D01*
X15166720Y-7773600D01*
X15091720Y-7848600D01*
X15166720Y-7923600D01*
X15166720Y-8177600D02*
X15241720Y-8102600D01*
X15166720Y-8027600D01*
X15091720Y-8102600D01*
X15166720Y-8177600D01*
X15166720Y-8431600D02*
X15241720Y-8356600D01*
X15166720Y-8281600D01*
X15091720Y-8356600D01*
X15166720Y-8431600D01*
X15166720Y-8685600D02*
X15241720Y-8610600D01*
X15166720Y-8535600D01*
X15091720Y-8610600D01*
X15166720Y-8685600D01*
X15166720Y-8939600D02*
X15241720Y-8864600D01*
X15166720Y-8789600D01*
X15091720Y-8864600D01*
X15166720Y-8939600D01*
X15418920Y-9480600D02*
X15493920Y-9405600D01*
X15418920Y-9330600D01*
X15343920Y-9405600D01*
X15418920Y-9480600D01*
X15418920Y-9734600D02*
X15493920Y-9659600D01*
X15418920Y-9584600D01*
X15343920Y-9659600D01*
X15418920Y-9734600D01*
X15418920Y-9988600D02*
X15493920Y-9913600D01*
X15418920Y-9838600D01*
X15343920Y-9913600D01*
X15418920Y-9988600D01*
X15418920Y-10242600D02*
X15493920Y-10167600D01*
X15418920Y-10092600D01*
X15343920Y-10167600D01*
X15418920Y-10242600D01*
X15418920Y-10496600D02*
X15493920Y-10421600D01*
X15418920Y-10346600D01*
X15343920Y-10421600D01*
X15418920Y-10496600D01*
X15418920Y-10750600D02*
X15493920Y-10675600D01*
X15418920Y-10600600D01*
X15343920Y-10675600D01*
X15418920Y-10750600D01*
X15418920Y-11004600D02*
X15493920Y-10929600D01*
X15418920Y-10854600D01*
X15343920Y-10929600D01*
X15418920Y-11004600D01*
X15418920Y-11258600D02*
X15493920Y-11183600D01*
X15418920Y-11108600D01*
X15343920Y-11183600D01*
X15418920Y-11258600D01*
X15418920Y-11512600D02*
X15493920Y-11437600D01*
X15418920Y-11362600D01*
X15343920Y-11437600D01*
X15418920Y-11512600D01*
X15418920Y-11766600D02*
X15493920Y-11691600D01*
X15418920Y-11616600D01*
X15343920Y-11691600D01*
X15418920Y-11766600D01*
X15418920Y-12020600D02*
X15493920Y-11945600D01*
X15418920Y-11870600D01*
X15343920Y-11945600D01*
X15418920Y-12020600D01*
X15418920Y-12274600D02*
X15493920Y-12199600D01*
X15418920Y-12124600D01*
X15343920Y-12199600D01*
X15418920Y-12274600D01*
X15418920Y-12528600D02*
X15493920Y-12453600D01*
X15418920Y-12378600D01*
X15343920Y-12453600D01*
X15418920Y-12528600D01*
X15418920Y-12782600D02*
X15493920Y-12707600D01*
X15418920Y-12632600D01*
X15343920Y-12707600D01*
X15418920Y-12782600D01*
X15418920Y-13036600D02*
X15493920Y-12961600D01*
X15418920Y-12886600D01*
X15343920Y-12961600D01*
X15418920Y-13036600D01*
X15418920Y-13290600D02*
X15493920Y-13215600D01*
X15418920Y-13140600D01*
X15343920Y-13215600D01*
X15418920Y-13290600D01*
X15418920Y-13544600D02*
X15493920Y-13469600D01*
X15418920Y-13394600D01*
X15343920Y-13469600D01*
X15418920Y-13544600D01*
X15418920Y-13798600D02*
X15493920Y-13723600D01*
X15418920Y-13648600D01*
X15343920Y-13723600D01*
X15418920Y-13798600D01*
X15420720Y-4621600D02*
X15495720Y-4546600D01*
X15420720Y-4471600D01*
X15345720Y-4546600D01*
X15420720Y-4621600D01*
X15420720Y-4875600D02*
X15495720Y-4800600D01*
X15420720Y-4725600D01*
X15345720Y-4800600D01*
X15420720Y-4875600D01*
X15420720Y-5129600D02*
X15495720Y-5054600D01*
X15420720Y-4979600D01*
X15345720Y-5054600D01*
X15420720Y-5129600D01*
X15420720Y-5383600D02*
X15495720Y-5308600D01*
X15420720Y-5233600D01*
X15345720Y-5308600D01*
X15420720Y-5383600D01*
X15420720Y-5637600D02*
X15495720Y-5562600D01*
X15420720Y-5487600D01*
X15345720Y-5562600D01*
X15420720Y-5637600D01*
X15420720Y-5891600D02*
X15495720Y-5816600D01*
X15420720Y-5741600D01*
X15345720Y-5816600D01*
X15420720Y-5891600D01*
X15420720Y-6145600D02*
X15495720Y-6070600D01*
X15420720Y-5995600D01*
X15345720Y-6070600D01*
X15420720Y-6145600D01*
X15420720Y-6399600D02*
X15495720Y-6324600D01*
X15420720Y-6249600D01*
X15345720Y-6324600D01*
X15420720Y-6399600D01*
X15420720Y-6653600D02*
X15495720Y-6578600D01*
X15420720Y-6503600D01*
X15345720Y-6578600D01*
X15420720Y-6653600D01*
X15420720Y-6907600D02*
X15495720Y-6832600D01*
X15420720Y-6757600D01*
X15345720Y-6832600D01*
X15420720Y-6907600D01*
X15420720Y-7161600D02*
X15495720Y-7086600D01*
X15420720Y-7011600D01*
X15345720Y-7086600D01*
X15420720Y-7161600D01*
X15420720Y-7415600D02*
X15495720Y-7340600D01*
X15420720Y-7265600D01*
X15345720Y-7340600D01*
X15420720Y-7415600D01*
X15420720Y-7669600D02*
X15495720Y-7594600D01*
X15420720Y-7519600D01*
X15345720Y-7594600D01*
X15420720Y-7669600D01*
X15420720Y-7923600D02*
X15495720Y-7848600D01*
X15420720Y-7773600D01*
X15345720Y-7848600D01*
X15420720Y-7923600D01*
X15420720Y-8177600D02*
X15495720Y-8102600D01*
X15420720Y-8027600D01*
X15345720Y-8102600D01*
X15420720Y-8177600D01*
X15420720Y-8431600D02*
X15495720Y-8356600D01*
X15420720Y-8281600D01*
X15345720Y-8356600D01*
X15420720Y-8431600D01*
X15420720Y-8685600D02*
X15495720Y-8610600D01*
X15420720Y-8535600D01*
X15345720Y-8610600D01*
X15420720Y-8685600D01*
X15420720Y-8939600D02*
X15495720Y-8864600D01*
X15420720Y-8789600D01*
X15345720Y-8864600D01*
X15420720Y-8939600D01*
X15672920Y-9480600D02*
X15747920Y-9405600D01*
X15672920Y-9330600D01*
X15597920Y-9405600D01*
X15672920Y-9480600D01*
X15672920Y-9734600D02*
X15747920Y-9659600D01*
X15672920Y-9584600D01*
X15597920Y-9659600D01*
X15672920Y-9734600D01*
X15672920Y-9988600D02*
X15747920Y-9913600D01*
X15672920Y-9838600D01*
X15597920Y-9913600D01*
X15672920Y-9988600D01*
X15672920Y-10242600D02*
X15747920Y-10167600D01*
X15672920Y-10092600D01*
X15597920Y-10167600D01*
X15672920Y-10242600D01*
X15672920Y-10496600D02*
X15747920Y-10421600D01*
X15672920Y-10346600D01*
X15597920Y-10421600D01*
X15672920Y-10496600D01*
X15672920Y-10750600D02*
X15747920Y-10675600D01*
X15672920Y-10600600D01*
X15597920Y-10675600D01*
X15672920Y-10750600D01*
X15672920Y-11004600D02*
X15747920Y-10929600D01*
X15672920Y-10854600D01*
X15597920Y-10929600D01*
X15672920Y-11004600D01*
X15672920Y-11258600D02*
X15747920Y-11183600D01*
X15672920Y-11108600D01*
X15597920Y-11183600D01*
X15672920Y-11258600D01*
X15672920Y-11512600D02*
X15747920Y-11437600D01*
X15672920Y-11362600D01*
X15597920Y-11437600D01*
X15672920Y-11512600D01*
X15672920Y-11766600D02*
X15747920Y-11691600D01*
X15672920Y-11616600D01*
X15597920Y-11691600D01*
X15672920Y-11766600D01*
X15672920Y-12020600D02*
X15747920Y-11945600D01*
X15672920Y-11870600D01*
X15597920Y-11945600D01*
X15672920Y-12020600D01*
X15672920Y-12274600D02*
X15747920Y-12199600D01*
X15672920Y-12124600D01*
X15597920Y-12199600D01*
X15672920Y-12274600D01*
X15672920Y-12528600D02*
X15747920Y-12453600D01*
X15672920Y-12378600D01*
X15597920Y-12453600D01*
X15672920Y-12528600D01*
X15672920Y-12782600D02*
X15747920Y-12707600D01*
X15672920Y-12632600D01*
X15597920Y-12707600D01*
X15672920Y-12782600D01*
X15672920Y-13036600D02*
X15747920Y-12961600D01*
X15672920Y-12886600D01*
X15597920Y-12961600D01*
X15672920Y-13036600D01*
X15672920Y-13290600D02*
X15747920Y-13215600D01*
X15672920Y-13140600D01*
X15597920Y-13215600D01*
X15672920Y-13290600D01*
X15672920Y-13544600D02*
X15747920Y-13469600D01*
X15672920Y-13394600D01*
X15597920Y-13469600D01*
X15672920Y-13544600D01*
X15672920Y-13798600D02*
X15747920Y-13723600D01*
X15672920Y-13648600D01*
X15597920Y-13723600D01*
X15672920Y-13798600D01*
X15674720Y-4621600D02*
X15749720Y-4546600D01*
X15674720Y-4471600D01*
X15599720Y-4546600D01*
X15674720Y-4621600D01*
X15674720Y-4875600D02*
X15749720Y-4800600D01*
X15674720Y-4725600D01*
X15599720Y-4800600D01*
X15674720Y-4875600D01*
X15674720Y-5129600D02*
X15749720Y-5054600D01*
X15674720Y-4979600D01*
X15599720Y-5054600D01*
X15674720Y-5129600D01*
X15674720Y-5383600D02*
X15749720Y-5308600D01*
X15674720Y-5233600D01*
X15599720Y-5308600D01*
X15674720Y-5383600D01*
X15674720Y-5637600D02*
X15749720Y-5562600D01*
X15674720Y-5487600D01*
X15599720Y-5562600D01*
X15674720Y-5637600D01*
X15674720Y-5891600D02*
X15749720Y-5816600D01*
X15674720Y-5741600D01*
X15599720Y-5816600D01*
X15674720Y-5891600D01*
X15674720Y-6145600D02*
X15749720Y-6070600D01*
X15674720Y-5995600D01*
X15599720Y-6070600D01*
X15674720Y-6145600D01*
X15674720Y-6399600D02*
X15749720Y-6324600D01*
X15674720Y-6249600D01*
X15599720Y-6324600D01*
X15674720Y-6399600D01*
X15674720Y-6653600D02*
X15749720Y-6578600D01*
X15674720Y-6503600D01*
X15599720Y-6578600D01*
X15674720Y-6653600D01*
X15674720Y-6907600D02*
X15749720Y-6832600D01*
X15674720Y-6757600D01*
X15599720Y-6832600D01*
X15674720Y-6907600D01*
X15674720Y-7161600D02*
X15749720Y-7086600D01*
X15674720Y-7011600D01*
X15599720Y-7086600D01*
X15674720Y-7161600D01*
X15674720Y-7415600D02*
X15749720Y-7340600D01*
X15674720Y-7265600D01*
X15599720Y-7340600D01*
X15674720Y-7415600D01*
X15674720Y-7669600D02*
X15749720Y-7594600D01*
X15674720Y-7519600D01*
X15599720Y-7594600D01*
X15674720Y-7669600D01*
X15674720Y-7923600D02*
X15749720Y-7848600D01*
X15674720Y-7773600D01*
X15599720Y-7848600D01*
X15674720Y-7923600D01*
X15674720Y-8177600D02*
X15749720Y-8102600D01*
X15674720Y-8027600D01*
X15599720Y-8102600D01*
X15674720Y-8177600D01*
X15674720Y-8431600D02*
X15749720Y-8356600D01*
X15674720Y-8281600D01*
X15599720Y-8356600D01*
X15674720Y-8431600D01*
X15674720Y-8685600D02*
X15749720Y-8610600D01*
X15674720Y-8535600D01*
X15599720Y-8610600D01*
X15674720Y-8685600D01*
X15674720Y-8939600D02*
X15749720Y-8864600D01*
X15674720Y-8789600D01*
X15599720Y-8864600D01*
X15674720Y-8939600D01*
X16032800Y-9861600D02*
X16107800Y-9786600D01*
X16032800Y-9711600D01*
X15957800Y-9786600D01*
X16032800Y-9861600D01*
X16032800Y-10115600D02*
X16107800Y-10040600D01*
X16032800Y-9965600D01*
X15957800Y-10040600D01*
X16032800Y-10115600D01*
X16032800Y-10369600D02*
X16107800Y-10294600D01*
X16032800Y-10219600D01*
X15957800Y-10294600D01*
X16032800Y-10369600D01*
X16032800Y-10623600D02*
X16107800Y-10548600D01*
X16032800Y-10473600D01*
X15957800Y-10548600D01*
X16032800Y-10623600D01*
X16032800Y-10877600D02*
X16107800Y-10802600D01*
X16032800Y-10727600D01*
X15957800Y-10802600D01*
X16032800Y-10877600D01*
X16032800Y-11131600D02*
X16107800Y-11056600D01*
X16032800Y-10981600D01*
X15957800Y-11056600D01*
X16032800Y-11131600D01*
X16034600Y-5002600D02*
X16109600Y-4927600D01*
X16034600Y-4852600D01*
X15959600Y-4927600D01*
X16034600Y-5002600D01*
X16034600Y-5256600D02*
X16109600Y-5181600D01*
X16034600Y-5106600D01*
X15959600Y-5181600D01*
X16034600Y-5256600D01*
X16034600Y-5510600D02*
X16109600Y-5435600D01*
X16034600Y-5360600D01*
X15959600Y-5435600D01*
X16034600Y-5510600D01*
X16034600Y-5764600D02*
X16109600Y-5689600D01*
X16034600Y-5614600D01*
X15959600Y-5689600D01*
X16034600Y-5764600D01*
X16034600Y-6018600D02*
X16109600Y-5943600D01*
X16034600Y-5868600D01*
X15959600Y-5943600D01*
X16034600Y-6018600D01*
X16034600Y-6272600D02*
X16109600Y-6197600D01*
X16034600Y-6122600D01*
X15959600Y-6197600D01*
X16034600Y-6272600D01*
D12*
X11448348Y-14382334D02*
X11448348Y-14082334D01*
X11519777Y-14082334D01*
X11562634Y-14096620D01*
X11591206Y-14125191D01*
X11605491Y-14153763D01*
X11619777Y-14210906D01*
X11619777Y-14253763D01*
X11605491Y-14310906D01*
X11591206Y-14339477D01*
X11562634Y-14368049D01*
X11519777Y-14382334D01*
X11448348Y-14382334D01*
X11748348Y-14382334D02*
X11748348Y-14182334D01*
X11748348Y-14239477D02*
X11762634Y-14210906D01*
X11776920Y-14196620D01*
X11805491Y-14182334D01*
X11834063Y-14182334D01*
X11934063Y-14382334D02*
X11934063Y-14182334D01*
X11934063Y-14082334D02*
X11919777Y-14096620D01*
X11934063Y-14110906D01*
X11948348Y-14096620D01*
X11934063Y-14082334D01*
X11934063Y-14110906D01*
X12119777Y-14382334D02*
X12091206Y-14368049D01*
X12076920Y-14339477D01*
X12076920Y-14082334D01*
X12276920Y-14382334D02*
X12248348Y-14368049D01*
X12234063Y-14339477D01*
X12234063Y-14082334D01*
X12619777Y-14382334D02*
X12619777Y-14082334D01*
X12719777Y-14296620D01*
X12819777Y-14082334D01*
X12819777Y-14382334D01*
X13091206Y-14382334D02*
X13091206Y-14225191D01*
X13076920Y-14196620D01*
X13048348Y-14182334D01*
X12991206Y-14182334D01*
X12962634Y-14196620D01*
X13091206Y-14368049D02*
X13062634Y-14382334D01*
X12991206Y-14382334D01*
X12962634Y-14368049D01*
X12948348Y-14339477D01*
X12948348Y-14310906D01*
X12962634Y-14282334D01*
X12991206Y-14268049D01*
X13062634Y-14268049D01*
X13091206Y-14253763D01*
X13234063Y-14182334D02*
X13234063Y-14482334D01*
X13234063Y-14196620D02*
X13262634Y-14182334D01*
X13319777Y-14182334D01*
X13348348Y-14196620D01*
X13362634Y-14210906D01*
X13376920Y-14239477D01*
X13376920Y-14325191D01*
X13362634Y-14353763D01*
X13348348Y-14368049D01*
X13319777Y-14382334D01*
X13262634Y-14382334D01*
X13234063Y-14368049D01*
X13505491Y-14353763D02*
X13519777Y-14368049D01*
X13505491Y-14382334D01*
X13491206Y-14368049D01*
X13505491Y-14353763D01*
X13505491Y-14382334D01*
X13505491Y-14196620D02*
X13519777Y-14210906D01*
X13505491Y-14225191D01*
X13491206Y-14210906D01*
X13505491Y-14196620D01*
X13505491Y-14225191D01*
X11121920Y-14856620D02*
X11161920Y-14896620D01*
X11161920Y-14856620D02*
X11121920Y-14896620D01*
X11505491Y-14712334D02*
X11534063Y-14712334D01*
X11562634Y-14726620D01*
X11576920Y-14740906D01*
X11591206Y-14769477D01*
X11605491Y-14826620D01*
X11605491Y-14898049D01*
X11591206Y-14955191D01*
X11576920Y-14983763D01*
X11562634Y-14998049D01*
X11534063Y-15012334D01*
X11505491Y-15012334D01*
X11476920Y-14998049D01*
X11462634Y-14983763D01*
X11448348Y-14955191D01*
X11434063Y-14898049D01*
X11434063Y-14826620D01*
X11448348Y-14769477D01*
X11462634Y-14740906D01*
X11476920Y-14726620D01*
X11505491Y-14712334D01*
X11734063Y-14983763D02*
X11748348Y-14998049D01*
X11734063Y-15012334D01*
X11719777Y-14998049D01*
X11734063Y-14983763D01*
X11734063Y-15012334D01*
X12005491Y-14812334D02*
X12005491Y-15012334D01*
X11934063Y-14698049D02*
X11862634Y-14912334D01*
X12048348Y-14912334D01*
X12219777Y-14712334D02*
X12248348Y-14712334D01*
X12276920Y-14726620D01*
X12291206Y-14740906D01*
X12305491Y-14769477D01*
X12319777Y-14826620D01*
X12319777Y-14898049D01*
X12305491Y-14955191D01*
X12291206Y-14983763D01*
X12276920Y-14998049D01*
X12248348Y-15012334D01*
X12219777Y-15012334D01*
X12191206Y-14998049D01*
X12176920Y-14983763D01*
X12162634Y-14955191D01*
X12148348Y-14898049D01*
X12148348Y-14826620D01*
X12162634Y-14769477D01*
X12176920Y-14740906D01*
X12191206Y-14726620D01*
X12219777Y-14712334D01*
X12448348Y-15012334D02*
X12448348Y-14812334D01*
X12448348Y-14840906D02*
X12462634Y-14826620D01*
X12491206Y-14812334D01*
X12534063Y-14812334D01*
X12562634Y-14826620D01*
X12576920Y-14855191D01*
X12576920Y-15012334D01*
X12576920Y-14855191D02*
X12591206Y-14826620D01*
X12619777Y-14812334D01*
X12662634Y-14812334D01*
X12691206Y-14826620D01*
X12705491Y-14855191D01*
X12705491Y-15012334D01*
X12848348Y-15012334D02*
X12848348Y-14812334D01*
X12848348Y-14840906D02*
X12862634Y-14826620D01*
X12891206Y-14812334D01*
X12934063Y-14812334D01*
X12962634Y-14826620D01*
X12976920Y-14855191D01*
X12976920Y-15012334D01*
X12976920Y-14855191D02*
X12991206Y-14826620D01*
X13019777Y-14812334D01*
X13062634Y-14812334D01*
X13091206Y-14826620D01*
X13105491Y-14855191D01*
X13105491Y-15012334D01*
X13691206Y-14698049D02*
X13434063Y-15083763D01*
X14076920Y-14712334D02*
X14105491Y-14712334D01*
X14134063Y-14726620D01*
X14148348Y-14740906D01*
X14162634Y-14769477D01*
X14176920Y-14826620D01*
X14176920Y-14898049D01*
X14162634Y-14955191D01*
X14148348Y-14983763D01*
X14134063Y-14998049D01*
X14105491Y-15012334D01*
X14076920Y-15012334D01*
X14048348Y-14998049D01*
X14034063Y-14983763D01*
X14019777Y-14955191D01*
X14005491Y-14898049D01*
X14005491Y-14826620D01*
X14019777Y-14769477D01*
X14034063Y-14740906D01*
X14048348Y-14726620D01*
X14076920Y-14712334D01*
X14305491Y-14983763D02*
X14319777Y-14998049D01*
X14305491Y-15012334D01*
X14291206Y-14998049D01*
X14305491Y-14983763D01*
X14305491Y-15012334D01*
X14505491Y-14712334D02*
X14534063Y-14712334D01*
X14562634Y-14726620D01*
X14576920Y-14740906D01*
X14591206Y-14769477D01*
X14605491Y-14826620D01*
X14605491Y-14898049D01*
X14591206Y-14955191D01*
X14576920Y-14983763D01*
X14562634Y-14998049D01*
X14534063Y-15012334D01*
X14505491Y-15012334D01*
X14476920Y-14998049D01*
X14462634Y-14983763D01*
X14448348Y-14955191D01*
X14434063Y-14898049D01*
X14434063Y-14826620D01*
X14448348Y-14769477D01*
X14462634Y-14740906D01*
X14476920Y-14726620D01*
X14505491Y-14712334D01*
X14891206Y-15012334D02*
X14719777Y-15012334D01*
X14805491Y-15012334D02*
X14805491Y-14712334D01*
X14776920Y-14755191D01*
X14748348Y-14783763D01*
X14719777Y-14798049D01*
X15148348Y-14712334D02*
X15091206Y-14712334D01*
X15062634Y-14726620D01*
X15048348Y-14740906D01*
X15019777Y-14783763D01*
X15005491Y-14840906D01*
X15005491Y-14955191D01*
X15019777Y-14983763D01*
X15034063Y-14998049D01*
X15062634Y-15012334D01*
X15119777Y-15012334D01*
X15148348Y-14998049D01*
X15162634Y-14983763D01*
X15176920Y-14955191D01*
X15176920Y-14883763D01*
X15162634Y-14855191D01*
X15148348Y-14840906D01*
X15119777Y-14826620D01*
X15062634Y-14826620D01*
X15034063Y-14840906D01*
X15019777Y-14855191D01*
X15005491Y-14883763D01*
X15291206Y-14712334D02*
X15291206Y-14769477D01*
X15405491Y-14712334D02*
X15405491Y-14769477D01*
X15848348Y-15126620D02*
X15834063Y-15112334D01*
X15805491Y-15069477D01*
X15791206Y-15040906D01*
X15776920Y-14998049D01*
X15762634Y-14926620D01*
X15762634Y-14869477D01*
X15776920Y-14798049D01*
X15791206Y-14755191D01*
X15805491Y-14726620D01*
X15834063Y-14683763D01*
X15848348Y-14669477D01*
X16119777Y-15012334D02*
X15948348Y-15012334D01*
X16034063Y-15012334D02*
X16034063Y-14712334D01*
X16005491Y-14755191D01*
X15976920Y-14783763D01*
X15948348Y-14798049D01*
X16405491Y-15012334D02*
X16234063Y-15012334D01*
X16319777Y-15012334D02*
X16319777Y-14712334D01*
X16291206Y-14755191D01*
X16262634Y-14783763D01*
X16234063Y-14798049D01*
X16762634Y-15012334D02*
X16762634Y-14712334D01*
X16891206Y-15012334D02*
X16891206Y-14855191D01*
X16876920Y-14826620D01*
X16848348Y-14812334D01*
X16805491Y-14812334D01*
X16776920Y-14826620D01*
X16762634Y-14840906D01*
X17076920Y-15012334D02*
X17048348Y-14998049D01*
X17034063Y-14983763D01*
X17019777Y-14955191D01*
X17019777Y-14869477D01*
X17034063Y-14840906D01*
X17048348Y-14826620D01*
X17076920Y-14812334D01*
X17119777Y-14812334D01*
X17148348Y-14826620D01*
X17162634Y-14840906D01*
X17176920Y-14869477D01*
X17176920Y-14955191D01*
X17162634Y-14983763D01*
X17148348Y-14998049D01*
X17119777Y-15012334D01*
X17076920Y-15012334D01*
X17348348Y-15012334D02*
X17319777Y-14998049D01*
X17305491Y-14969477D01*
X17305491Y-14712334D01*
X17576920Y-14998049D02*
X17548348Y-15012334D01*
X17491206Y-15012334D01*
X17462634Y-14998049D01*
X17448348Y-14969477D01*
X17448348Y-14855191D01*
X17462634Y-14826620D01*
X17491206Y-14812334D01*
X17548348Y-14812334D01*
X17576920Y-14826620D01*
X17591206Y-14855191D01*
X17591206Y-14883763D01*
X17448348Y-14912334D01*
X17705491Y-14998049D02*
X17734063Y-15012334D01*
X17791206Y-15012334D01*
X17819777Y-14998049D01*
X17834063Y-14969477D01*
X17834063Y-14955191D01*
X17819777Y-14926620D01*
X17791206Y-14912334D01*
X17748348Y-14912334D01*
X17719777Y-14898049D01*
X17705491Y-14869477D01*
X17705491Y-14855191D01*
X17719777Y-14826620D01*
X17748348Y-14812334D01*
X17791206Y-14812334D01*
X17819777Y-14826620D01*
X17934063Y-15126620D02*
X17948348Y-15112334D01*
X17976920Y-15069477D01*
X17991206Y-15040906D01*
X18005491Y-14998049D01*
X18019777Y-14926620D01*
X18019777Y-14869477D01*
X18005491Y-14798049D01*
X17991206Y-14755191D01*
X17976920Y-14726620D01*
X17948348Y-14683763D01*
X17934063Y-14669477D01*
X11161920Y-15272620D02*
G75*
G03*
X11161920Y-15272620I-30000J0D01*
G01*
X11505491Y-15108334D02*
X11534063Y-15108334D01*
X11562634Y-15122620D01*
X11576920Y-15136906D01*
X11591206Y-15165477D01*
X11605491Y-15222620D01*
X11605491Y-15294049D01*
X11591206Y-15351191D01*
X11576920Y-15379763D01*
X11562634Y-15394049D01*
X11534063Y-15408334D01*
X11505491Y-15408334D01*
X11476920Y-15394049D01*
X11462634Y-15379763D01*
X11448348Y-15351191D01*
X11434063Y-15294049D01*
X11434063Y-15222620D01*
X11448348Y-15165477D01*
X11462634Y-15136906D01*
X11476920Y-15122620D01*
X11505491Y-15108334D01*
X11734063Y-15379763D02*
X11748348Y-15394049D01*
X11734063Y-15408334D01*
X11719777Y-15394049D01*
X11734063Y-15379763D01*
X11734063Y-15408334D01*
X12005491Y-15108334D02*
X11948348Y-15108334D01*
X11919777Y-15122620D01*
X11905491Y-15136906D01*
X11876920Y-15179763D01*
X11862634Y-15236906D01*
X11862634Y-15351191D01*
X11876920Y-15379763D01*
X11891206Y-15394049D01*
X11919777Y-15408334D01*
X11976920Y-15408334D01*
X12005491Y-15394049D01*
X12019777Y-15379763D01*
X12034063Y-15351191D01*
X12034063Y-15279763D01*
X12019777Y-15251191D01*
X12005491Y-15236906D01*
X11976920Y-15222620D01*
X11919777Y-15222620D01*
X11891206Y-15236906D01*
X11876920Y-15251191D01*
X11862634Y-15279763D01*
X12219777Y-15108334D02*
X12248348Y-15108334D01*
X12276920Y-15122620D01*
X12291206Y-15136906D01*
X12305491Y-15165477D01*
X12319777Y-15222620D01*
X12319777Y-15294049D01*
X12305491Y-15351191D01*
X12291206Y-15379763D01*
X12276920Y-15394049D01*
X12248348Y-15408334D01*
X12219777Y-15408334D01*
X12191206Y-15394049D01*
X12176920Y-15379763D01*
X12162634Y-15351191D01*
X12148348Y-15294049D01*
X12148348Y-15222620D01*
X12162634Y-15165477D01*
X12176920Y-15136906D01*
X12191206Y-15122620D01*
X12219777Y-15108334D01*
X12448348Y-15408334D02*
X12448348Y-15208334D01*
X12448348Y-15236906D02*
X12462634Y-15222620D01*
X12491206Y-15208334D01*
X12534063Y-15208334D01*
X12562634Y-15222620D01*
X12576920Y-15251191D01*
X12576920Y-15408334D01*
X12576920Y-15251191D02*
X12591206Y-15222620D01*
X12619777Y-15208334D01*
X12662634Y-15208334D01*
X12691206Y-15222620D01*
X12705491Y-15251191D01*
X12705491Y-15408334D01*
X12848348Y-15408334D02*
X12848348Y-15208334D01*
X12848348Y-15236906D02*
X12862634Y-15222620D01*
X12891206Y-15208334D01*
X12934063Y-15208334D01*
X12962634Y-15222620D01*
X12976920Y-15251191D01*
X12976920Y-15408334D01*
X12976920Y-15251191D02*
X12991206Y-15222620D01*
X13019777Y-15208334D01*
X13062634Y-15208334D01*
X13091206Y-15222620D01*
X13105491Y-15251191D01*
X13105491Y-15408334D01*
X13691206Y-15094049D02*
X13434063Y-15479763D01*
X14076920Y-15108334D02*
X14105491Y-15108334D01*
X14134063Y-15122620D01*
X14148348Y-15136906D01*
X14162634Y-15165477D01*
X14176920Y-15222620D01*
X14176920Y-15294049D01*
X14162634Y-15351191D01*
X14148348Y-15379763D01*
X14134063Y-15394049D01*
X14105491Y-15408334D01*
X14076920Y-15408334D01*
X14048348Y-15394049D01*
X14034063Y-15379763D01*
X14019777Y-15351191D01*
X14005491Y-15294049D01*
X14005491Y-15222620D01*
X14019777Y-15165477D01*
X14034063Y-15136906D01*
X14048348Y-15122620D01*
X14076920Y-15108334D01*
X14305491Y-15379763D02*
X14319777Y-15394049D01*
X14305491Y-15408334D01*
X14291206Y-15394049D01*
X14305491Y-15379763D01*
X14305491Y-15408334D01*
X14505491Y-15108334D02*
X14534063Y-15108334D01*
X14562634Y-15122620D01*
X14576920Y-15136906D01*
X14591206Y-15165477D01*
X14605491Y-15222620D01*
X14605491Y-15294049D01*
X14591206Y-15351191D01*
X14576920Y-15379763D01*
X14562634Y-15394049D01*
X14534063Y-15408334D01*
X14505491Y-15408334D01*
X14476920Y-15394049D01*
X14462634Y-15379763D01*
X14448348Y-15351191D01*
X14434063Y-15294049D01*
X14434063Y-15222620D01*
X14448348Y-15165477D01*
X14462634Y-15136906D01*
X14476920Y-15122620D01*
X14505491Y-15108334D01*
X14719777Y-15136906D02*
X14734063Y-15122620D01*
X14762634Y-15108334D01*
X14834063Y-15108334D01*
X14862634Y-15122620D01*
X14876920Y-15136906D01*
X14891206Y-15165477D01*
X14891206Y-15194049D01*
X14876920Y-15236906D01*
X14705491Y-15408334D01*
X14891206Y-15408334D01*
X15148348Y-15208334D02*
X15148348Y-15408334D01*
X15076920Y-15094049D02*
X15005491Y-15308334D01*
X15191206Y-15308334D01*
X15291206Y-15108334D02*
X15291206Y-15165477D01*
X15405491Y-15108334D02*
X15405491Y-15165477D01*
X15848348Y-15522620D02*
X15834063Y-15508334D01*
X15805491Y-15465477D01*
X15791206Y-15436906D01*
X15776920Y-15394049D01*
X15762634Y-15322620D01*
X15762634Y-15265477D01*
X15776920Y-15194049D01*
X15791206Y-15151191D01*
X15805491Y-15122620D01*
X15834063Y-15079763D01*
X15848348Y-15065477D01*
X16119777Y-15408334D02*
X15948348Y-15408334D01*
X16034063Y-15408334D02*
X16034063Y-15108334D01*
X16005491Y-15151191D01*
X15976920Y-15179763D01*
X15948348Y-15194049D01*
X16405491Y-15408334D02*
X16234063Y-15408334D01*
X16319777Y-15408334D02*
X16319777Y-15108334D01*
X16291206Y-15151191D01*
X16262634Y-15179763D01*
X16234063Y-15194049D01*
X16762634Y-15408334D02*
X16762634Y-15108334D01*
X16891206Y-15408334D02*
X16891206Y-15251191D01*
X16876920Y-15222620D01*
X16848348Y-15208334D01*
X16805491Y-15208334D01*
X16776920Y-15222620D01*
X16762634Y-15236906D01*
X17076920Y-15408334D02*
X17048348Y-15394049D01*
X17034063Y-15379763D01*
X17019777Y-15351191D01*
X17019777Y-15265477D01*
X17034063Y-15236906D01*
X17048348Y-15222620D01*
X17076920Y-15208334D01*
X17119777Y-15208334D01*
X17148348Y-15222620D01*
X17162634Y-15236906D01*
X17176920Y-15265477D01*
X17176920Y-15351191D01*
X17162634Y-15379763D01*
X17148348Y-15394049D01*
X17119777Y-15408334D01*
X17076920Y-15408334D01*
X17348348Y-15408334D02*
X17319777Y-15394049D01*
X17305491Y-15365477D01*
X17305491Y-15108334D01*
X17576920Y-15394049D02*
X17548348Y-15408334D01*
X17491206Y-15408334D01*
X17462634Y-15394049D01*
X17448348Y-15365477D01*
X17448348Y-15251191D01*
X17462634Y-15222620D01*
X17491206Y-15208334D01*
X17548348Y-15208334D01*
X17576920Y-15222620D01*
X17591206Y-15251191D01*
X17591206Y-15279763D01*
X17448348Y-15308334D01*
X17705491Y-15394049D02*
X17734063Y-15408334D01*
X17791206Y-15408334D01*
X17819777Y-15394049D01*
X17834063Y-15365477D01*
X17834063Y-15351191D01*
X17819777Y-15322620D01*
X17791206Y-15308334D01*
X17748348Y-15308334D01*
X17719777Y-15294049D01*
X17705491Y-15265477D01*
X17705491Y-15251191D01*
X17719777Y-15222620D01*
X17748348Y-15208334D01*
X17791206Y-15208334D01*
X17819777Y-15222620D01*
X17934063Y-15522620D02*
X17948348Y-15508334D01*
X17976920Y-15465477D01*
X17991206Y-15436906D01*
X18005491Y-15394049D01*
X18019777Y-15322620D01*
X18019777Y-15265477D01*
X18005491Y-15194049D01*
X17991206Y-15151191D01*
X17976920Y-15122620D01*
X17948348Y-15079763D01*
X17934063Y-15065477D01*
X11131440Y-15638140D02*
X11131440Y-15699100D01*
X11100960Y-15668620D02*
X11161920Y-15668620D01*
X11505491Y-15504334D02*
X11534063Y-15504334D01*
X11562634Y-15518620D01*
X11576920Y-15532906D01*
X11591206Y-15561477D01*
X11605491Y-15618620D01*
X11605491Y-15690049D01*
X11591206Y-15747191D01*
X11576920Y-15775763D01*
X11562634Y-15790049D01*
X11534063Y-15804334D01*
X11505491Y-15804334D01*
X11476920Y-15790049D01*
X11462634Y-15775763D01*
X11448348Y-15747191D01*
X11434063Y-15690049D01*
X11434063Y-15618620D01*
X11448348Y-15561477D01*
X11462634Y-15532906D01*
X11476920Y-15518620D01*
X11505491Y-15504334D01*
X11734063Y-15775763D02*
X11748348Y-15790049D01*
X11734063Y-15804334D01*
X11719777Y-15790049D01*
X11734063Y-15775763D01*
X11734063Y-15804334D01*
X12005491Y-15504334D02*
X11948348Y-15504334D01*
X11919777Y-15518620D01*
X11905491Y-15532906D01*
X11876920Y-15575763D01*
X11862634Y-15632906D01*
X11862634Y-15747191D01*
X11876920Y-15775763D01*
X11891206Y-15790049D01*
X11919777Y-15804334D01*
X11976920Y-15804334D01*
X12005491Y-15790049D01*
X12019777Y-15775763D01*
X12034063Y-15747191D01*
X12034063Y-15675763D01*
X12019777Y-15647191D01*
X12005491Y-15632906D01*
X11976920Y-15618620D01*
X11919777Y-15618620D01*
X11891206Y-15632906D01*
X11876920Y-15647191D01*
X11862634Y-15675763D01*
X12319777Y-15804334D02*
X12148348Y-15804334D01*
X12234063Y-15804334D02*
X12234063Y-15504334D01*
X12205491Y-15547191D01*
X12176920Y-15575763D01*
X12148348Y-15590049D01*
X12448348Y-15804334D02*
X12448348Y-15604334D01*
X12448348Y-15632906D02*
X12462634Y-15618620D01*
X12491206Y-15604334D01*
X12534063Y-15604334D01*
X12562634Y-15618620D01*
X12576920Y-15647191D01*
X12576920Y-15804334D01*
X12576920Y-15647191D02*
X12591206Y-15618620D01*
X12619777Y-15604334D01*
X12662634Y-15604334D01*
X12691206Y-15618620D01*
X12705491Y-15647191D01*
X12705491Y-15804334D01*
X12848348Y-15804334D02*
X12848348Y-15604334D01*
X12848348Y-15632906D02*
X12862634Y-15618620D01*
X12891206Y-15604334D01*
X12934063Y-15604334D01*
X12962634Y-15618620D01*
X12976920Y-15647191D01*
X12976920Y-15804334D01*
X12976920Y-15647191D02*
X12991206Y-15618620D01*
X13019777Y-15604334D01*
X13062634Y-15604334D01*
X13091206Y-15618620D01*
X13105491Y-15647191D01*
X13105491Y-15804334D01*
X13691206Y-15490049D02*
X13434063Y-15875763D01*
X14076920Y-15504334D02*
X14105491Y-15504334D01*
X14134063Y-15518620D01*
X14148348Y-15532906D01*
X14162634Y-15561477D01*
X14176920Y-15618620D01*
X14176920Y-15690049D01*
X14162634Y-15747191D01*
X14148348Y-15775763D01*
X14134063Y-15790049D01*
X14105491Y-15804334D01*
X14076920Y-15804334D01*
X14048348Y-15790049D01*
X14034063Y-15775763D01*
X14019777Y-15747191D01*
X14005491Y-15690049D01*
X14005491Y-15618620D01*
X14019777Y-15561477D01*
X14034063Y-15532906D01*
X14048348Y-15518620D01*
X14076920Y-15504334D01*
X14305491Y-15775763D02*
X14319777Y-15790049D01*
X14305491Y-15804334D01*
X14291206Y-15790049D01*
X14305491Y-15775763D01*
X14305491Y-15804334D01*
X14505491Y-15504334D02*
X14534063Y-15504334D01*
X14562634Y-15518620D01*
X14576920Y-15532906D01*
X14591206Y-15561477D01*
X14605491Y-15618620D01*
X14605491Y-15690049D01*
X14591206Y-15747191D01*
X14576920Y-15775763D01*
X14562634Y-15790049D01*
X14534063Y-15804334D01*
X14505491Y-15804334D01*
X14476920Y-15790049D01*
X14462634Y-15775763D01*
X14448348Y-15747191D01*
X14434063Y-15690049D01*
X14434063Y-15618620D01*
X14448348Y-15561477D01*
X14462634Y-15532906D01*
X14476920Y-15518620D01*
X14505491Y-15504334D01*
X14719777Y-15532906D02*
X14734063Y-15518620D01*
X14762634Y-15504334D01*
X14834063Y-15504334D01*
X14862634Y-15518620D01*
X14876920Y-15532906D01*
X14891206Y-15561477D01*
X14891206Y-15590049D01*
X14876920Y-15632906D01*
X14705491Y-15804334D01*
X14891206Y-15804334D01*
X15148348Y-15604334D02*
X15148348Y-15804334D01*
X15076920Y-15490049D02*
X15005491Y-15704334D01*
X15191206Y-15704334D01*
X15291206Y-15504334D02*
X15291206Y-15561477D01*
X15405491Y-15504334D02*
X15405491Y-15561477D01*
X15848348Y-15918620D02*
X15834063Y-15904334D01*
X15805491Y-15861477D01*
X15791206Y-15832906D01*
X15776920Y-15790049D01*
X15762634Y-15718620D01*
X15762634Y-15661477D01*
X15776920Y-15590049D01*
X15791206Y-15547191D01*
X15805491Y-15518620D01*
X15834063Y-15475763D01*
X15848348Y-15461477D01*
X16119777Y-15804334D02*
X15948348Y-15804334D01*
X16034063Y-15804334D02*
X16034063Y-15504334D01*
X16005491Y-15547191D01*
X15976920Y-15575763D01*
X15948348Y-15590049D01*
X16476920Y-15804334D02*
X16476920Y-15504334D01*
X16605491Y-15804334D02*
X16605491Y-15647191D01*
X16591206Y-15618620D01*
X16562634Y-15604334D01*
X16519777Y-15604334D01*
X16491206Y-15618620D01*
X16476920Y-15632906D01*
X16791206Y-15804334D02*
X16762634Y-15790049D01*
X16748348Y-15775763D01*
X16734063Y-15747191D01*
X16734063Y-15661477D01*
X16748348Y-15632906D01*
X16762634Y-15618620D01*
X16791206Y-15604334D01*
X16834063Y-15604334D01*
X16862634Y-15618620D01*
X16876920Y-15632906D01*
X16891206Y-15661477D01*
X16891206Y-15747191D01*
X16876920Y-15775763D01*
X16862634Y-15790049D01*
X16834063Y-15804334D01*
X16791206Y-15804334D01*
X17062634Y-15804334D02*
X17034063Y-15790049D01*
X17019777Y-15761477D01*
X17019777Y-15504334D01*
X17291206Y-15790049D02*
X17262634Y-15804334D01*
X17205491Y-15804334D01*
X17176920Y-15790049D01*
X17162634Y-15761477D01*
X17162634Y-15647191D01*
X17176920Y-15618620D01*
X17205491Y-15604334D01*
X17262634Y-15604334D01*
X17291206Y-15618620D01*
X17305491Y-15647191D01*
X17305491Y-15675763D01*
X17162634Y-15704334D01*
X17405491Y-15918620D02*
X17419777Y-15904334D01*
X17448348Y-15861477D01*
X17462634Y-15832906D01*
X17476920Y-15790049D01*
X17491206Y-15718620D01*
X17491206Y-15661477D01*
X17476920Y-15590049D01*
X17462634Y-15547191D01*
X17448348Y-15518620D01*
X17419777Y-15475763D01*
X17405491Y-15461477D01*
X11147276Y-16099976D02*
X11147276Y-16029264D01*
X11076564Y-16029264D01*
X11076564Y-16099976D01*
X11147276Y-16099976D01*
X11605491Y-16200334D02*
X11434063Y-16200334D01*
X11519777Y-16200334D02*
X11519777Y-15900334D01*
X11491206Y-15943191D01*
X11462634Y-15971763D01*
X11434063Y-15986049D01*
X11734063Y-16171763D02*
X11748348Y-16186049D01*
X11734063Y-16200334D01*
X11719777Y-16186049D01*
X11734063Y-16171763D01*
X11734063Y-16200334D01*
X11934063Y-15900334D02*
X11962634Y-15900334D01*
X11991206Y-15914620D01*
X12005491Y-15928906D01*
X12019777Y-15957477D01*
X12034063Y-16014620D01*
X12034063Y-16086049D01*
X12019777Y-16143191D01*
X12005491Y-16171763D01*
X11991206Y-16186049D01*
X11962634Y-16200334D01*
X11934063Y-16200334D01*
X11905491Y-16186049D01*
X11891206Y-16171763D01*
X11876920Y-16143191D01*
X11862634Y-16086049D01*
X11862634Y-16014620D01*
X11876920Y-15957477D01*
X11891206Y-15928906D01*
X11905491Y-15914620D01*
X11934063Y-15900334D01*
X12219777Y-15900334D02*
X12248348Y-15900334D01*
X12276920Y-15914620D01*
X12291206Y-15928906D01*
X12305491Y-15957477D01*
X12319777Y-16014620D01*
X12319777Y-16086049D01*
X12305491Y-16143191D01*
X12291206Y-16171763D01*
X12276920Y-16186049D01*
X12248348Y-16200334D01*
X12219777Y-16200334D01*
X12191206Y-16186049D01*
X12176920Y-16171763D01*
X12162634Y-16143191D01*
X12148348Y-16086049D01*
X12148348Y-16014620D01*
X12162634Y-15957477D01*
X12176920Y-15928906D01*
X12191206Y-15914620D01*
X12219777Y-15900334D01*
X12448348Y-16200334D02*
X12448348Y-16000334D01*
X12448348Y-16028906D02*
X12462634Y-16014620D01*
X12491206Y-16000334D01*
X12534063Y-16000334D01*
X12562634Y-16014620D01*
X12576920Y-16043191D01*
X12576920Y-16200334D01*
X12576920Y-16043191D02*
X12591206Y-16014620D01*
X12619777Y-16000334D01*
X12662634Y-16000334D01*
X12691206Y-16014620D01*
X12705491Y-16043191D01*
X12705491Y-16200334D01*
X12848348Y-16200334D02*
X12848348Y-16000334D01*
X12848348Y-16028906D02*
X12862634Y-16014620D01*
X12891206Y-16000334D01*
X12934063Y-16000334D01*
X12962634Y-16014620D01*
X12976920Y-16043191D01*
X12976920Y-16200334D01*
X12976920Y-16043191D02*
X12991206Y-16014620D01*
X13019777Y-16000334D01*
X13062634Y-16000334D01*
X13091206Y-16014620D01*
X13105491Y-16043191D01*
X13105491Y-16200334D01*
X13691206Y-15886049D02*
X13434063Y-16271763D01*
X14076920Y-15900334D02*
X14105491Y-15900334D01*
X14134063Y-15914620D01*
X14148348Y-15928906D01*
X14162634Y-15957477D01*
X14176920Y-16014620D01*
X14176920Y-16086049D01*
X14162634Y-16143191D01*
X14148348Y-16171763D01*
X14134063Y-16186049D01*
X14105491Y-16200334D01*
X14076920Y-16200334D01*
X14048348Y-16186049D01*
X14034063Y-16171763D01*
X14019777Y-16143191D01*
X14005491Y-16086049D01*
X14005491Y-16014620D01*
X14019777Y-15957477D01*
X14034063Y-15928906D01*
X14048348Y-15914620D01*
X14076920Y-15900334D01*
X14305491Y-16171763D02*
X14319777Y-16186049D01*
X14305491Y-16200334D01*
X14291206Y-16186049D01*
X14305491Y-16171763D01*
X14305491Y-16200334D01*
X14505491Y-15900334D02*
X14534063Y-15900334D01*
X14562634Y-15914620D01*
X14576920Y-15928906D01*
X14591206Y-15957477D01*
X14605491Y-16014620D01*
X14605491Y-16086049D01*
X14591206Y-16143191D01*
X14576920Y-16171763D01*
X14562634Y-16186049D01*
X14534063Y-16200334D01*
X14505491Y-16200334D01*
X14476920Y-16186049D01*
X14462634Y-16171763D01*
X14448348Y-16143191D01*
X14434063Y-16086049D01*
X14434063Y-16014620D01*
X14448348Y-15957477D01*
X14462634Y-15928906D01*
X14476920Y-15914620D01*
X14505491Y-15900334D01*
X14705491Y-15900334D02*
X14891206Y-15900334D01*
X14791206Y-16014620D01*
X14834063Y-16014620D01*
X14862634Y-16028906D01*
X14876920Y-16043191D01*
X14891206Y-16071763D01*
X14891206Y-16143191D01*
X14876920Y-16171763D01*
X14862634Y-16186049D01*
X14834063Y-16200334D01*
X14748348Y-16200334D01*
X14719777Y-16186049D01*
X14705491Y-16171763D01*
X15034063Y-16200334D02*
X15091206Y-16200334D01*
X15119777Y-16186049D01*
X15134063Y-16171763D01*
X15162634Y-16128906D01*
X15176920Y-16071763D01*
X15176920Y-15957477D01*
X15162634Y-15928906D01*
X15148348Y-15914620D01*
X15119777Y-15900334D01*
X15062634Y-15900334D01*
X15034063Y-15914620D01*
X15019777Y-15928906D01*
X15005491Y-15957477D01*
X15005491Y-16028906D01*
X15019777Y-16057477D01*
X15034063Y-16071763D01*
X15062634Y-16086049D01*
X15119777Y-16086049D01*
X15148348Y-16071763D01*
X15162634Y-16057477D01*
X15176920Y-16028906D01*
X15291206Y-15900334D02*
X15291206Y-15957477D01*
X15405491Y-15900334D02*
X15405491Y-15957477D01*
X15848348Y-16314620D02*
X15834063Y-16300334D01*
X15805491Y-16257477D01*
X15791206Y-16228906D01*
X15776920Y-16186049D01*
X15762634Y-16114620D01*
X15762634Y-16057477D01*
X15776920Y-15986049D01*
X15791206Y-15943191D01*
X15805491Y-15914620D01*
X15834063Y-15871763D01*
X15848348Y-15857477D01*
X16105491Y-15900334D02*
X15962634Y-15900334D01*
X15948348Y-16043191D01*
X15962634Y-16028906D01*
X15991206Y-16014620D01*
X16062634Y-16014620D01*
X16091206Y-16028906D01*
X16105491Y-16043191D01*
X16119777Y-16071763D01*
X16119777Y-16143191D01*
X16105491Y-16171763D01*
X16091206Y-16186049D01*
X16062634Y-16200334D01*
X15991206Y-16200334D01*
X15962634Y-16186049D01*
X15948348Y-16171763D01*
X16476920Y-16200334D02*
X16476920Y-15900334D01*
X16605491Y-16200334D02*
X16605491Y-16043191D01*
X16591206Y-16014620D01*
X16562634Y-16000334D01*
X16519777Y-16000334D01*
X16491206Y-16014620D01*
X16476920Y-16028906D01*
X16791206Y-16200334D02*
X16762634Y-16186049D01*
X16748348Y-16171763D01*
X16734063Y-16143191D01*
X16734063Y-16057477D01*
X16748348Y-16028906D01*
X16762634Y-16014620D01*
X16791206Y-16000334D01*
X16834063Y-16000334D01*
X16862634Y-16014620D01*
X16876920Y-16028906D01*
X16891206Y-16057477D01*
X16891206Y-16143191D01*
X16876920Y-16171763D01*
X16862634Y-16186049D01*
X16834063Y-16200334D01*
X16791206Y-16200334D01*
X17062634Y-16200334D02*
X17034063Y-16186049D01*
X17019777Y-16157477D01*
X17019777Y-15900334D01*
X17291206Y-16186049D02*
X17262634Y-16200334D01*
X17205491Y-16200334D01*
X17176920Y-16186049D01*
X17162634Y-16157477D01*
X17162634Y-16043191D01*
X17176920Y-16014620D01*
X17205491Y-16000334D01*
X17262634Y-16000334D01*
X17291206Y-16014620D01*
X17305491Y-16043191D01*
X17305491Y-16071763D01*
X17162634Y-16100334D01*
X17419777Y-16186049D02*
X17448348Y-16200334D01*
X17505491Y-16200334D01*
X17534063Y-16186049D01*
X17548348Y-16157477D01*
X17548348Y-16143191D01*
X17534063Y-16114620D01*
X17505491Y-16100334D01*
X17462634Y-16100334D01*
X17434063Y-16086049D01*
X17419777Y-16057477D01*
X17419777Y-16043191D01*
X17434063Y-16014620D01*
X17462634Y-16000334D01*
X17505491Y-16000334D01*
X17534063Y-16014620D01*
X17648348Y-16314620D02*
X17662634Y-16300334D01*
X17691206Y-16257477D01*
X17705491Y-16228906D01*
X17719777Y-16186049D01*
X17734063Y-16114620D01*
X17734063Y-16057477D01*
X17719777Y-15986049D01*
X17705491Y-15943191D01*
X17691206Y-15914620D01*
X17662634Y-15871763D01*
X17648348Y-15857477D01*
X11086920Y-16535620D02*
X11161920Y-16460620D01*
X11086920Y-16385620D01*
X11011920Y-16460620D01*
X11086920Y-16535620D01*
X11605491Y-16596334D02*
X11434063Y-16596334D01*
X11519777Y-16596334D02*
X11519777Y-16296334D01*
X11491206Y-16339191D01*
X11462634Y-16367763D01*
X11434063Y-16382049D01*
X11734063Y-16567763D02*
X11748348Y-16582049D01*
X11734063Y-16596334D01*
X11719777Y-16582049D01*
X11734063Y-16567763D01*
X11734063Y-16596334D01*
X12019777Y-16296334D02*
X11876920Y-16296334D01*
X11862634Y-16439191D01*
X11876920Y-16424906D01*
X11905491Y-16410620D01*
X11976920Y-16410620D01*
X12005491Y-16424906D01*
X12019777Y-16439191D01*
X12034063Y-16467763D01*
X12034063Y-16539191D01*
X12019777Y-16567763D01*
X12005491Y-16582049D01*
X11976920Y-16596334D01*
X11905491Y-16596334D01*
X11876920Y-16582049D01*
X11862634Y-16567763D01*
X12219777Y-16296334D02*
X12248348Y-16296334D01*
X12276920Y-16310620D01*
X12291206Y-16324906D01*
X12305491Y-16353477D01*
X12319777Y-16410620D01*
X12319777Y-16482049D01*
X12305491Y-16539191D01*
X12291206Y-16567763D01*
X12276920Y-16582049D01*
X12248348Y-16596334D01*
X12219777Y-16596334D01*
X12191206Y-16582049D01*
X12176920Y-16567763D01*
X12162634Y-16539191D01*
X12148348Y-16482049D01*
X12148348Y-16410620D01*
X12162634Y-16353477D01*
X12176920Y-16324906D01*
X12191206Y-16310620D01*
X12219777Y-16296334D01*
X12448348Y-16596334D02*
X12448348Y-16396334D01*
X12448348Y-16424906D02*
X12462634Y-16410620D01*
X12491206Y-16396334D01*
X12534063Y-16396334D01*
X12562634Y-16410620D01*
X12576920Y-16439191D01*
X12576920Y-16596334D01*
X12576920Y-16439191D02*
X12591206Y-16410620D01*
X12619777Y-16396334D01*
X12662634Y-16396334D01*
X12691206Y-16410620D01*
X12705491Y-16439191D01*
X12705491Y-16596334D01*
X12848348Y-16596334D02*
X12848348Y-16396334D01*
X12848348Y-16424906D02*
X12862634Y-16410620D01*
X12891206Y-16396334D01*
X12934063Y-16396334D01*
X12962634Y-16410620D01*
X12976920Y-16439191D01*
X12976920Y-16596334D01*
X12976920Y-16439191D02*
X12991206Y-16410620D01*
X13019777Y-16396334D01*
X13062634Y-16396334D01*
X13091206Y-16410620D01*
X13105491Y-16439191D01*
X13105491Y-16596334D01*
X13691206Y-16282049D02*
X13434063Y-16667763D01*
X14076920Y-16296334D02*
X14105491Y-16296334D01*
X14134063Y-16310620D01*
X14148348Y-16324906D01*
X14162634Y-16353477D01*
X14176920Y-16410620D01*
X14176920Y-16482049D01*
X14162634Y-16539191D01*
X14148348Y-16567763D01*
X14134063Y-16582049D01*
X14105491Y-16596334D01*
X14076920Y-16596334D01*
X14048348Y-16582049D01*
X14034063Y-16567763D01*
X14019777Y-16539191D01*
X14005491Y-16482049D01*
X14005491Y-16410620D01*
X14019777Y-16353477D01*
X14034063Y-16324906D01*
X14048348Y-16310620D01*
X14076920Y-16296334D01*
X14305491Y-16567763D02*
X14319777Y-16582049D01*
X14305491Y-16596334D01*
X14291206Y-16582049D01*
X14305491Y-16567763D01*
X14305491Y-16596334D01*
X14505491Y-16296334D02*
X14534063Y-16296334D01*
X14562634Y-16310620D01*
X14576920Y-16324906D01*
X14591206Y-16353477D01*
X14605491Y-16410620D01*
X14605491Y-16482049D01*
X14591206Y-16539191D01*
X14576920Y-16567763D01*
X14562634Y-16582049D01*
X14534063Y-16596334D01*
X14505491Y-16596334D01*
X14476920Y-16582049D01*
X14462634Y-16567763D01*
X14448348Y-16539191D01*
X14434063Y-16482049D01*
X14434063Y-16410620D01*
X14448348Y-16353477D01*
X14462634Y-16324906D01*
X14476920Y-16310620D01*
X14505491Y-16296334D01*
X14876920Y-16296334D02*
X14734063Y-16296334D01*
X14719777Y-16439191D01*
X14734063Y-16424906D01*
X14762634Y-16410620D01*
X14834063Y-16410620D01*
X14862634Y-16424906D01*
X14876920Y-16439191D01*
X14891206Y-16467763D01*
X14891206Y-16539191D01*
X14876920Y-16567763D01*
X14862634Y-16582049D01*
X14834063Y-16596334D01*
X14762634Y-16596334D01*
X14734063Y-16582049D01*
X14719777Y-16567763D01*
X15034063Y-16596334D02*
X15091206Y-16596334D01*
X15119777Y-16582049D01*
X15134063Y-16567763D01*
X15162634Y-16524906D01*
X15176920Y-16467763D01*
X15176920Y-16353477D01*
X15162634Y-16324906D01*
X15148348Y-16310620D01*
X15119777Y-16296334D01*
X15062634Y-16296334D01*
X15034063Y-16310620D01*
X15019777Y-16324906D01*
X15005491Y-16353477D01*
X15005491Y-16424906D01*
X15019777Y-16453477D01*
X15034063Y-16467763D01*
X15062634Y-16482049D01*
X15119777Y-16482049D01*
X15148348Y-16467763D01*
X15162634Y-16453477D01*
X15176920Y-16424906D01*
X15291206Y-16296334D02*
X15291206Y-16353477D01*
X15405491Y-16296334D02*
X15405491Y-16353477D01*
X15848348Y-16710620D02*
X15834063Y-16696334D01*
X15805491Y-16653477D01*
X15791206Y-16624906D01*
X15776920Y-16582049D01*
X15762634Y-16510620D01*
X15762634Y-16453477D01*
X15776920Y-16382049D01*
X15791206Y-16339191D01*
X15805491Y-16310620D01*
X15834063Y-16267763D01*
X15848348Y-16253477D01*
X16091206Y-16396334D02*
X16091206Y-16596334D01*
X16019777Y-16282049D02*
X15948348Y-16496334D01*
X16134063Y-16496334D01*
X16305491Y-16296334D02*
X16334063Y-16296334D01*
X16362634Y-16310620D01*
X16376920Y-16324906D01*
X16391206Y-16353477D01*
X16405491Y-16410620D01*
X16405491Y-16482049D01*
X16391206Y-16539191D01*
X16376920Y-16567763D01*
X16362634Y-16582049D01*
X16334063Y-16596334D01*
X16305491Y-16596334D01*
X16276920Y-16582049D01*
X16262634Y-16567763D01*
X16248348Y-16539191D01*
X16234063Y-16482049D01*
X16234063Y-16410620D01*
X16248348Y-16353477D01*
X16262634Y-16324906D01*
X16276920Y-16310620D01*
X16305491Y-16296334D01*
X16676920Y-16296334D02*
X16534063Y-16296334D01*
X16519777Y-16439191D01*
X16534063Y-16424906D01*
X16562634Y-16410620D01*
X16634063Y-16410620D01*
X16662634Y-16424906D01*
X16676920Y-16439191D01*
X16691206Y-16467763D01*
X16691206Y-16539191D01*
X16676920Y-16567763D01*
X16662634Y-16582049D01*
X16634063Y-16596334D01*
X16562634Y-16596334D01*
X16534063Y-16582049D01*
X16519777Y-16567763D01*
X17048348Y-16596334D02*
X17048348Y-16296334D01*
X17176920Y-16596334D02*
X17176920Y-16439191D01*
X17162634Y-16410620D01*
X17134063Y-16396334D01*
X17091206Y-16396334D01*
X17062634Y-16410620D01*
X17048348Y-16424906D01*
X17362634Y-16596334D02*
X17334063Y-16582049D01*
X17319777Y-16567763D01*
X17305491Y-16539191D01*
X17305491Y-16453477D01*
X17319777Y-16424906D01*
X17334063Y-16410620D01*
X17362634Y-16396334D01*
X17405491Y-16396334D01*
X17434063Y-16410620D01*
X17448348Y-16424906D01*
X17462634Y-16453477D01*
X17462634Y-16539191D01*
X17448348Y-16567763D01*
X17434063Y-16582049D01*
X17405491Y-16596334D01*
X17362634Y-16596334D01*
X17634063Y-16596334D02*
X17605491Y-16582049D01*
X17591206Y-16553477D01*
X17591206Y-16296334D01*
X17862634Y-16582049D02*
X17834063Y-16596334D01*
X17776920Y-16596334D01*
X17748348Y-16582049D01*
X17734063Y-16553477D01*
X17734063Y-16439191D01*
X17748348Y-16410620D01*
X17776920Y-16396334D01*
X17834063Y-16396334D01*
X17862634Y-16410620D01*
X17876920Y-16439191D01*
X17876920Y-16467763D01*
X17734063Y-16496334D01*
X17991206Y-16582049D02*
X18019777Y-16596334D01*
X18076920Y-16596334D01*
X18105491Y-16582049D01*
X18119777Y-16553477D01*
X18119777Y-16539191D01*
X18105491Y-16510620D01*
X18076920Y-16496334D01*
X18034063Y-16496334D01*
X18005491Y-16482049D01*
X17991206Y-16453477D01*
X17991206Y-16439191D01*
X18005491Y-16410620D01*
X18034063Y-16396334D01*
X18076920Y-16396334D01*
X18105491Y-16410620D01*
X18219777Y-16710620D02*
X18234063Y-16696334D01*
X18262634Y-16653477D01*
X18276920Y-16624906D01*
X18291206Y-16582049D01*
X18305491Y-16510620D01*
X18305491Y-16453477D01*
X18291206Y-16382049D01*
X18276920Y-16339191D01*
X18262634Y-16310620D01*
X18234063Y-16267763D01*
X18219777Y-16253477D01*
M02*
