%FSLAX45Y45*%
G04 Gerber Fmt 4.5, Leading zero omitted, Abs format (unit mm)*
G04 Created by KiCad (PCBNEW 5.1.9) date 2021-05-20 11:39:52*
%MOMM*%
%LPD*%
G01*
G04 APERTURE LIST*
%TA.AperFunction,Profile*%
%ADD10C,0.050000*%
%TD*%
%ADD11C,0.200000*%
%ADD12C,0.300000*%
G04 APERTURE END LIST*
D10*
X16192880Y-9055000D02*
X16250000Y-9055000D01*
X16192880Y-9055000D02*
X16192880Y-9215100D01*
X15875000Y-13512800D02*
X17068800Y-13512800D01*
X15875000Y-13914120D02*
X15875000Y-13512800D01*
X15793000Y-9214000D02*
X13881000Y-9214000D01*
X13881000Y-9055000D02*
X15793000Y-9055000D01*
X15793000Y-9055000D02*
X15793000Y-9214000D01*
X13881000Y-9055000D02*
X13881000Y-9214000D01*
X11164420Y-4356100D02*
X11164420Y-13914100D01*
X13485000Y-9214000D02*
X11573000Y-9214000D01*
X11573000Y-9055000D02*
X13485000Y-9055000D01*
X13485000Y-9055000D02*
X13485000Y-9214000D01*
X16250000Y-9055000D02*
X16250000Y-4356100D01*
X17069920Y-9215100D02*
X16192880Y-9215100D01*
X11573000Y-9055000D02*
X11573000Y-9214000D01*
X16250000Y-4356100D02*
X11164420Y-4356100D01*
X11164420Y-13914100D02*
X15875000Y-13914120D01*
X17068800Y-13512800D02*
X17069920Y-9215100D01*
D11*
X11301660Y-9058840D02*
X11451660Y-9208840D01*
X11451660Y-9058840D02*
X11301660Y-9208840D01*
X13615600Y-9058840D02*
X13765600Y-9208840D01*
X13765600Y-9058840D02*
X13615600Y-9208840D01*
X15911760Y-9061380D02*
X16061760Y-9211380D01*
X16061760Y-9061380D02*
X15911760Y-9211380D01*
D12*
X11448348Y-14382334D02*
X11448348Y-14082334D01*
X11519777Y-14082334D01*
X11562634Y-14096620D01*
X11591206Y-14125191D01*
X11605491Y-14153763D01*
X11619777Y-14210906D01*
X11619777Y-14253763D01*
X11605491Y-14310906D01*
X11591206Y-14339477D01*
X11562634Y-14368049D01*
X11519777Y-14382334D01*
X11448348Y-14382334D01*
X11748348Y-14382334D02*
X11748348Y-14182334D01*
X11748348Y-14239477D02*
X11762634Y-14210906D01*
X11776920Y-14196620D01*
X11805491Y-14182334D01*
X11834063Y-14182334D01*
X11934063Y-14382334D02*
X11934063Y-14182334D01*
X11934063Y-14082334D02*
X11919777Y-14096620D01*
X11934063Y-14110906D01*
X11948348Y-14096620D01*
X11934063Y-14082334D01*
X11934063Y-14110906D01*
X12119777Y-14382334D02*
X12091206Y-14368049D01*
X12076920Y-14339477D01*
X12076920Y-14082334D01*
X12276920Y-14382334D02*
X12248348Y-14368049D01*
X12234063Y-14339477D01*
X12234063Y-14082334D01*
X12619777Y-14382334D02*
X12619777Y-14082334D01*
X12719777Y-14296620D01*
X12819777Y-14082334D01*
X12819777Y-14382334D01*
X13091206Y-14382334D02*
X13091206Y-14225191D01*
X13076920Y-14196620D01*
X13048348Y-14182334D01*
X12991206Y-14182334D01*
X12962634Y-14196620D01*
X13091206Y-14368049D02*
X13062634Y-14382334D01*
X12991206Y-14382334D01*
X12962634Y-14368049D01*
X12948348Y-14339477D01*
X12948348Y-14310906D01*
X12962634Y-14282334D01*
X12991206Y-14268049D01*
X13062634Y-14268049D01*
X13091206Y-14253763D01*
X13234063Y-14182334D02*
X13234063Y-14482334D01*
X13234063Y-14196620D02*
X13262634Y-14182334D01*
X13319777Y-14182334D01*
X13348348Y-14196620D01*
X13362634Y-14210906D01*
X13376920Y-14239477D01*
X13376920Y-14325191D01*
X13362634Y-14353763D01*
X13348348Y-14368049D01*
X13319777Y-14382334D01*
X13262634Y-14382334D01*
X13234063Y-14368049D01*
X13505491Y-14353763D02*
X13519777Y-14368049D01*
X13505491Y-14382334D01*
X13491206Y-14368049D01*
X13505491Y-14353763D01*
X13505491Y-14382334D01*
X13505491Y-14196620D02*
X13519777Y-14210906D01*
X13505491Y-14225191D01*
X13491206Y-14210906D01*
X13505491Y-14196620D01*
X13505491Y-14225191D01*
X11011920Y-14801620D02*
X11161920Y-14951620D01*
X11161920Y-14801620D02*
X11011920Y-14951620D01*
X11605491Y-15012334D02*
X11434063Y-15012334D01*
X11519777Y-15012334D02*
X11519777Y-14712334D01*
X11491206Y-14755191D01*
X11462634Y-14783763D01*
X11434063Y-14798049D01*
X11734063Y-14983763D02*
X11748348Y-14998049D01*
X11734063Y-15012334D01*
X11719777Y-14998049D01*
X11734063Y-14983763D01*
X11734063Y-15012334D01*
X12019777Y-14712334D02*
X11876920Y-14712334D01*
X11862634Y-14855191D01*
X11876920Y-14840906D01*
X11905491Y-14826620D01*
X11976920Y-14826620D01*
X12005491Y-14840906D01*
X12019777Y-14855191D01*
X12034063Y-14883763D01*
X12034063Y-14955191D01*
X12019777Y-14983763D01*
X12005491Y-14998049D01*
X11976920Y-15012334D01*
X11905491Y-15012334D01*
X11876920Y-14998049D01*
X11862634Y-14983763D01*
X12219777Y-14712334D02*
X12248348Y-14712334D01*
X12276920Y-14726620D01*
X12291206Y-14740906D01*
X12305491Y-14769477D01*
X12319777Y-14826620D01*
X12319777Y-14898049D01*
X12305491Y-14955191D01*
X12291206Y-14983763D01*
X12276920Y-14998049D01*
X12248348Y-15012334D01*
X12219777Y-15012334D01*
X12191206Y-14998049D01*
X12176920Y-14983763D01*
X12162634Y-14955191D01*
X12148348Y-14898049D01*
X12148348Y-14826620D01*
X12162634Y-14769477D01*
X12176920Y-14740906D01*
X12191206Y-14726620D01*
X12219777Y-14712334D01*
X12448348Y-15012334D02*
X12448348Y-14812334D01*
X12448348Y-14840906D02*
X12462634Y-14826620D01*
X12491206Y-14812334D01*
X12534063Y-14812334D01*
X12562634Y-14826620D01*
X12576920Y-14855191D01*
X12576920Y-15012334D01*
X12576920Y-14855191D02*
X12591206Y-14826620D01*
X12619777Y-14812334D01*
X12662634Y-14812334D01*
X12691206Y-14826620D01*
X12705491Y-14855191D01*
X12705491Y-15012334D01*
X12848348Y-15012334D02*
X12848348Y-14812334D01*
X12848348Y-14840906D02*
X12862634Y-14826620D01*
X12891206Y-14812334D01*
X12934063Y-14812334D01*
X12962634Y-14826620D01*
X12976920Y-14855191D01*
X12976920Y-15012334D01*
X12976920Y-14855191D02*
X12991206Y-14826620D01*
X13019777Y-14812334D01*
X13062634Y-14812334D01*
X13091206Y-14826620D01*
X13105491Y-14855191D01*
X13105491Y-15012334D01*
X13691206Y-14698049D02*
X13434063Y-15083763D01*
X14076920Y-14712334D02*
X14105491Y-14712334D01*
X14134063Y-14726620D01*
X14148348Y-14740906D01*
X14162634Y-14769477D01*
X14176920Y-14826620D01*
X14176920Y-14898049D01*
X14162634Y-14955191D01*
X14148348Y-14983763D01*
X14134063Y-14998049D01*
X14105491Y-15012334D01*
X14076920Y-15012334D01*
X14048348Y-14998049D01*
X14034063Y-14983763D01*
X14019777Y-14955191D01*
X14005491Y-14898049D01*
X14005491Y-14826620D01*
X14019777Y-14769477D01*
X14034063Y-14740906D01*
X14048348Y-14726620D01*
X14076920Y-14712334D01*
X14305491Y-14983763D02*
X14319777Y-14998049D01*
X14305491Y-15012334D01*
X14291206Y-14998049D01*
X14305491Y-14983763D01*
X14305491Y-15012334D01*
X14505491Y-14712334D02*
X14534063Y-14712334D01*
X14562634Y-14726620D01*
X14576920Y-14740906D01*
X14591206Y-14769477D01*
X14605491Y-14826620D01*
X14605491Y-14898049D01*
X14591206Y-14955191D01*
X14576920Y-14983763D01*
X14562634Y-14998049D01*
X14534063Y-15012334D01*
X14505491Y-15012334D01*
X14476920Y-14998049D01*
X14462634Y-14983763D01*
X14448348Y-14955191D01*
X14434063Y-14898049D01*
X14434063Y-14826620D01*
X14448348Y-14769477D01*
X14462634Y-14740906D01*
X14476920Y-14726620D01*
X14505491Y-14712334D01*
X14876920Y-14712334D02*
X14734063Y-14712334D01*
X14719777Y-14855191D01*
X14734063Y-14840906D01*
X14762634Y-14826620D01*
X14834063Y-14826620D01*
X14862634Y-14840906D01*
X14876920Y-14855191D01*
X14891206Y-14883763D01*
X14891206Y-14955191D01*
X14876920Y-14983763D01*
X14862634Y-14998049D01*
X14834063Y-15012334D01*
X14762634Y-15012334D01*
X14734063Y-14998049D01*
X14719777Y-14983763D01*
X15034063Y-15012334D02*
X15091206Y-15012334D01*
X15119777Y-14998049D01*
X15134063Y-14983763D01*
X15162634Y-14940906D01*
X15176920Y-14883763D01*
X15176920Y-14769477D01*
X15162634Y-14740906D01*
X15148348Y-14726620D01*
X15119777Y-14712334D01*
X15062634Y-14712334D01*
X15034063Y-14726620D01*
X15019777Y-14740906D01*
X15005491Y-14769477D01*
X15005491Y-14840906D01*
X15019777Y-14869477D01*
X15034063Y-14883763D01*
X15062634Y-14898049D01*
X15119777Y-14898049D01*
X15148348Y-14883763D01*
X15162634Y-14869477D01*
X15176920Y-14840906D01*
X15291206Y-14712334D02*
X15291206Y-14769477D01*
X15405491Y-14712334D02*
X15405491Y-14769477D01*
X15848348Y-15126620D02*
X15834063Y-15112334D01*
X15805491Y-15069477D01*
X15791206Y-15040906D01*
X15776920Y-14998049D01*
X15762634Y-14926620D01*
X15762634Y-14869477D01*
X15776920Y-14798049D01*
X15791206Y-14755191D01*
X15805491Y-14726620D01*
X15834063Y-14683763D01*
X15848348Y-14669477D01*
X15934063Y-14712334D02*
X16119777Y-14712334D01*
X16019777Y-14826620D01*
X16062634Y-14826620D01*
X16091206Y-14840906D01*
X16105491Y-14855191D01*
X16119777Y-14883763D01*
X16119777Y-14955191D01*
X16105491Y-14983763D01*
X16091206Y-14998049D01*
X16062634Y-15012334D01*
X15976920Y-15012334D01*
X15948348Y-14998049D01*
X15934063Y-14983763D01*
X16476920Y-15012334D02*
X16476920Y-14712334D01*
X16605491Y-15012334D02*
X16605491Y-14855191D01*
X16591206Y-14826620D01*
X16562634Y-14812334D01*
X16519777Y-14812334D01*
X16491206Y-14826620D01*
X16476920Y-14840906D01*
X16791206Y-15012334D02*
X16762634Y-14998049D01*
X16748348Y-14983763D01*
X16734063Y-14955191D01*
X16734063Y-14869477D01*
X16748348Y-14840906D01*
X16762634Y-14826620D01*
X16791206Y-14812334D01*
X16834063Y-14812334D01*
X16862634Y-14826620D01*
X16876920Y-14840906D01*
X16891206Y-14869477D01*
X16891206Y-14955191D01*
X16876920Y-14983763D01*
X16862634Y-14998049D01*
X16834063Y-15012334D01*
X16791206Y-15012334D01*
X17062634Y-15012334D02*
X17034063Y-14998049D01*
X17019777Y-14969477D01*
X17019777Y-14712334D01*
X17291206Y-14998049D02*
X17262634Y-15012334D01*
X17205491Y-15012334D01*
X17176920Y-14998049D01*
X17162634Y-14969477D01*
X17162634Y-14855191D01*
X17176920Y-14826620D01*
X17205491Y-14812334D01*
X17262634Y-14812334D01*
X17291206Y-14826620D01*
X17305491Y-14855191D01*
X17305491Y-14883763D01*
X17162634Y-14912334D01*
X17419777Y-14998049D02*
X17448348Y-15012334D01*
X17505491Y-15012334D01*
X17534063Y-14998049D01*
X17548348Y-14969477D01*
X17548348Y-14955191D01*
X17534063Y-14926620D01*
X17505491Y-14912334D01*
X17462634Y-14912334D01*
X17434063Y-14898049D01*
X17419777Y-14869477D01*
X17419777Y-14855191D01*
X17434063Y-14826620D01*
X17462634Y-14812334D01*
X17505491Y-14812334D01*
X17534063Y-14826620D01*
X17648348Y-15126620D02*
X17662634Y-15112334D01*
X17691206Y-15069477D01*
X17705491Y-15040906D01*
X17719777Y-14998049D01*
X17734063Y-14926620D01*
X17734063Y-14869477D01*
X17719777Y-14798049D01*
X17705491Y-14755191D01*
X17691206Y-14726620D01*
X17662634Y-14683763D01*
X17648348Y-14669477D01*
X18191206Y-15126620D02*
X18176920Y-15112334D01*
X18148348Y-15069477D01*
X18134063Y-15040906D01*
X18119777Y-14998049D01*
X18105491Y-14926620D01*
X18105491Y-14869477D01*
X18119777Y-14798049D01*
X18134063Y-14755191D01*
X18148348Y-14726620D01*
X18176920Y-14683763D01*
X18191206Y-14669477D01*
X18305491Y-14812334D02*
X18305491Y-15012334D01*
X18305491Y-14840906D02*
X18319777Y-14826620D01*
X18348348Y-14812334D01*
X18391206Y-14812334D01*
X18419777Y-14826620D01*
X18434063Y-14855191D01*
X18434063Y-15012334D01*
X18619777Y-15012334D02*
X18591206Y-14998049D01*
X18576920Y-14983763D01*
X18562634Y-14955191D01*
X18562634Y-14869477D01*
X18576920Y-14840906D01*
X18591206Y-14826620D01*
X18619777Y-14812334D01*
X18662634Y-14812334D01*
X18691206Y-14826620D01*
X18705491Y-14840906D01*
X18719777Y-14869477D01*
X18719777Y-14955191D01*
X18705491Y-14983763D01*
X18691206Y-14998049D01*
X18662634Y-15012334D01*
X18619777Y-15012334D01*
X18805491Y-14812334D02*
X18919777Y-14812334D01*
X18848348Y-14712334D02*
X18848348Y-14969477D01*
X18862634Y-14998049D01*
X18891206Y-15012334D01*
X18919777Y-15012334D01*
X19248348Y-14812334D02*
X19248348Y-15112334D01*
X19248348Y-14826620D02*
X19276920Y-14812334D01*
X19334063Y-14812334D01*
X19362634Y-14826620D01*
X19376920Y-14840906D01*
X19391206Y-14869477D01*
X19391206Y-14955191D01*
X19376920Y-14983763D01*
X19362634Y-14998049D01*
X19334063Y-15012334D01*
X19276920Y-15012334D01*
X19248348Y-14998049D01*
X19562634Y-15012334D02*
X19534063Y-14998049D01*
X19519777Y-14969477D01*
X19519777Y-14712334D01*
X19805491Y-15012334D02*
X19805491Y-14855191D01*
X19791206Y-14826620D01*
X19762634Y-14812334D01*
X19705491Y-14812334D01*
X19676920Y-14826620D01*
X19805491Y-14998049D02*
X19776920Y-15012334D01*
X19705491Y-15012334D01*
X19676920Y-14998049D01*
X19662634Y-14969477D01*
X19662634Y-14940906D01*
X19676920Y-14912334D01*
X19705491Y-14898049D01*
X19776920Y-14898049D01*
X19805491Y-14883763D01*
X19905491Y-14812334D02*
X20019777Y-14812334D01*
X19948348Y-14712334D02*
X19948348Y-14969477D01*
X19962634Y-14998049D01*
X19991206Y-15012334D01*
X20019777Y-15012334D01*
X20234063Y-14998049D02*
X20205491Y-15012334D01*
X20148348Y-15012334D01*
X20119777Y-14998049D01*
X20105491Y-14969477D01*
X20105491Y-14855191D01*
X20119777Y-14826620D01*
X20148348Y-14812334D01*
X20205491Y-14812334D01*
X20234063Y-14826620D01*
X20248348Y-14855191D01*
X20248348Y-14883763D01*
X20105491Y-14912334D01*
X20505491Y-15012334D02*
X20505491Y-14712334D01*
X20505491Y-14998049D02*
X20476920Y-15012334D01*
X20419777Y-15012334D01*
X20391206Y-14998049D01*
X20376920Y-14983763D01*
X20362634Y-14955191D01*
X20362634Y-14869477D01*
X20376920Y-14840906D01*
X20391206Y-14826620D01*
X20419777Y-14812334D01*
X20476920Y-14812334D01*
X20505491Y-14826620D01*
X20619777Y-15126620D02*
X20634063Y-15112334D01*
X20662634Y-15069477D01*
X20676920Y-15040906D01*
X20691206Y-14998049D01*
X20705491Y-14926620D01*
X20705491Y-14869477D01*
X20691206Y-14798049D01*
X20676920Y-14755191D01*
X20662634Y-14726620D01*
X20634063Y-14683763D01*
X20619777Y-14669477D01*
M02*
