M48
; DRILL file {KiCad 5.1.9} date Thu May 27 11:52:38 2021
; FORMAT={-:-/ absolute / metric / decimal}
; #@! TF.CreationDate,2021-05-27T11:52:38+02:00
; #@! TF.GenerationSoftware,Kicad,Pcbnew,5.1.9
; #@! TF.FileFunction,Plated,1,2,PTH
FMAT,2
METRIC
T1C0.400
T2C0.600
T3C0.610
T4C1.000
T5C1.550
%
G90
G05
T1
X130.712Y-77.851
X132.0Y-65.39
X132.0Y-70.88
X133.252Y-71.501
X134.45Y-126.05
X134.522Y-75.946
X134.875Y-122.3
X135.025Y-124.6
X135.725Y-123.675
X135.792Y-70.866
X139.272Y-71.628
T2
X124.184Y-119.401
X124.384Y-109.296
X127.513Y-69.596
X131.3Y-61.675
X146.071Y-109.453
X160.02Y-128.27
X161.622Y-95.328
X164.592Y-112.776
X164.592Y-117.348
X164.86Y-96.65
X169.164Y-128.27
T3
X133.67Y-59.428
T4
X160.782Y-133.096
X163.322Y-133.096
X163.35Y-97.87
X163.35Y-100.41
X163.35Y-102.95
T5
X113.549Y-94.056
X113.549Y-96.596
X113.549Y-99.136
X113.549Y-101.676
X113.549Y-104.216
X113.549Y-106.756
X113.549Y-109.296
X113.549Y-111.836
X113.549Y-114.376
X113.549Y-116.916
X113.549Y-119.456
X113.549Y-121.996
X113.549Y-124.536
X113.549Y-127.076
X113.549Y-129.616
X113.549Y-132.156
X113.549Y-134.696
X113.567Y-45.466
X113.567Y-48.006
X113.567Y-50.546
X113.567Y-53.086
X113.567Y-55.626
X113.567Y-58.166
X113.567Y-60.706
X113.567Y-63.246
X113.567Y-65.786
X113.567Y-68.326
X113.567Y-70.866
X113.567Y-73.406
X113.567Y-75.946
X113.567Y-78.486
X113.567Y-81.026
X113.567Y-83.566
X113.567Y-86.106
X116.089Y-94.056
X116.089Y-96.596
X116.089Y-99.136
X116.089Y-101.676
X116.089Y-104.216
X116.089Y-106.756
X116.089Y-109.296
X116.089Y-111.836
X116.089Y-114.376
X116.089Y-116.916
X116.089Y-119.456
X116.089Y-121.996
X116.089Y-124.536
X116.089Y-127.076
X116.089Y-129.616
X116.089Y-132.156
X116.089Y-134.696
X116.089Y-137.236
X116.107Y-45.466
X116.107Y-48.006
X116.107Y-50.546
X116.107Y-53.086
X116.107Y-55.626
X116.107Y-58.166
X116.107Y-60.706
X116.107Y-63.246
X116.107Y-65.786
X116.107Y-68.326
X116.107Y-70.866
X116.107Y-73.406
X116.107Y-75.946
X116.107Y-78.486
X116.107Y-81.026
X116.107Y-83.566
X116.107Y-86.106
X116.107Y-88.646
X118.629Y-94.056
X118.629Y-96.596
X118.629Y-99.136
X118.629Y-101.676
X118.629Y-104.216
X118.629Y-106.756
X118.629Y-109.296
X118.629Y-111.836
X118.629Y-114.376
X118.629Y-116.916
X118.629Y-119.456
X118.629Y-121.996
X118.629Y-124.536
X118.629Y-127.076
X118.629Y-129.616
X118.629Y-132.156
X118.629Y-134.696
X118.629Y-137.236
X118.647Y-45.466
X118.647Y-48.006
X118.647Y-50.546
X118.647Y-53.086
X118.647Y-55.626
X118.647Y-58.166
X118.647Y-60.706
X118.647Y-63.246
X118.647Y-65.786
X118.647Y-68.326
X118.647Y-70.866
X118.647Y-73.406
X118.647Y-75.946
X118.647Y-78.486
X118.647Y-81.026
X118.647Y-83.566
X118.647Y-86.106
X118.647Y-88.646
X121.169Y-94.056
X121.169Y-96.596
X121.169Y-99.136
X121.169Y-104.216
X121.169Y-106.756
X121.169Y-109.296
X121.169Y-111.836
X121.169Y-114.376
X121.169Y-119.456
X121.169Y-127.076
X121.169Y-129.616
X121.169Y-132.156
X121.169Y-134.696
X121.169Y-137.236
X121.187Y-45.466
X121.187Y-48.006
X121.187Y-50.546
X121.187Y-83.566
X121.187Y-86.106
X121.187Y-88.646
X123.709Y-94.056
X123.709Y-96.596
X123.709Y-99.136
X123.709Y-129.616
X123.709Y-132.156
X123.709Y-134.696
X123.709Y-137.236
X123.727Y-45.466
X123.727Y-48.006
X123.727Y-50.546
X123.727Y-83.566
X123.727Y-86.106
X123.727Y-88.646
X126.249Y-94.056
X126.249Y-96.596
X126.249Y-99.136
X126.249Y-129.616
X126.249Y-132.156
X126.249Y-134.696
X126.249Y-137.236
X126.267Y-45.466
X126.267Y-48.006
X126.267Y-50.546
X126.267Y-83.566
X126.267Y-86.106
X126.267Y-88.646
X128.789Y-94.056
X128.789Y-96.596
X128.789Y-99.136
X128.789Y-129.616
X128.789Y-134.696
X128.789Y-137.236
X128.807Y-45.466
X128.807Y-48.006
X128.807Y-50.546
X128.807Y-83.566
X128.807Y-86.106
X128.807Y-88.646
X131.329Y-94.056
X131.329Y-96.596
X131.329Y-99.136
X131.329Y-101.676
X131.329Y-129.616
X131.329Y-132.156
X131.329Y-134.696
X131.329Y-137.236
X131.347Y-45.466
X131.347Y-48.006
X131.347Y-50.546
X131.347Y-83.566
X131.347Y-86.106
X131.347Y-88.646
X133.869Y-94.056
X133.869Y-96.596
X133.869Y-99.136
X133.869Y-129.616
X133.869Y-132.156
X133.869Y-134.696
X133.887Y-45.466
X133.887Y-48.006
X133.887Y-50.546
X133.887Y-83.566
X133.887Y-86.106
X133.887Y-88.646
X136.409Y-94.056
X136.409Y-96.596
X136.409Y-99.136
X136.409Y-101.676
X136.409Y-129.616
X136.409Y-134.696
X136.409Y-137.236
X136.427Y-45.466
X136.427Y-48.006
X136.427Y-50.546
X136.427Y-83.566
X136.427Y-86.106
X136.427Y-88.646
X138.949Y-94.056
X138.949Y-96.596
X138.949Y-99.136
X138.949Y-127.076
X138.949Y-129.616
X138.949Y-132.156
X138.949Y-134.696
X138.949Y-137.236
X138.967Y-45.466
X138.967Y-48.006
X138.967Y-50.546
X138.967Y-78.486
X138.967Y-83.566
X138.967Y-86.106
X138.967Y-88.646
X141.489Y-94.056
X141.489Y-96.596
X141.489Y-99.136
X141.489Y-101.676
X141.489Y-127.076
X141.489Y-129.616
X141.489Y-132.156
X141.507Y-45.466
X141.507Y-48.006
X141.507Y-50.546
X141.507Y-78.486
X141.507Y-83.566
X141.507Y-86.106
X141.507Y-88.646
X144.029Y-94.056
X144.029Y-96.596
X144.029Y-99.136
X144.029Y-127.076
X144.029Y-129.616
X144.029Y-132.156
X144.029Y-134.696
X144.029Y-137.236
X144.047Y-45.466
X144.047Y-48.006
X144.047Y-50.546
X144.047Y-78.486
X144.047Y-83.566
X144.047Y-86.106
X144.047Y-88.646
X146.569Y-94.056
X146.569Y-96.596
X146.569Y-99.136
X146.569Y-127.076
X146.569Y-129.616
X146.569Y-132.156
X146.569Y-134.696
X146.569Y-137.236
X146.587Y-45.466
X146.587Y-48.006
X146.587Y-50.546
X146.587Y-78.486
X146.587Y-83.566
X146.587Y-86.106
X146.587Y-88.646
X149.109Y-94.056
X149.109Y-96.596
X149.109Y-99.136
X149.109Y-101.676
X149.109Y-104.216
X149.109Y-106.756
X149.109Y-109.296
X149.109Y-111.836
X149.109Y-114.376
X149.109Y-116.916
X149.109Y-119.456
X149.109Y-121.996
X149.109Y-124.536
X149.109Y-127.076
X149.109Y-129.616
X149.109Y-132.156
X149.109Y-134.696
X149.109Y-137.236
X149.127Y-45.466
X149.127Y-48.006
X149.127Y-50.546
X149.127Y-83.566
X149.127Y-86.106
X149.127Y-88.646
X151.649Y-94.056
X151.649Y-96.596
X151.649Y-99.136
X151.649Y-101.676
X151.649Y-104.216
X151.649Y-106.756
X151.649Y-109.296
X151.649Y-111.836
X151.649Y-114.376
X151.649Y-116.916
X151.649Y-119.456
X151.649Y-121.996
X151.649Y-124.536
X151.649Y-127.076
X151.649Y-132.156
X151.649Y-134.696
X151.649Y-137.236
X151.667Y-45.466
X151.667Y-48.006
X151.667Y-50.546
X151.667Y-53.086
X151.667Y-55.626
X151.667Y-58.166
X151.667Y-60.706
X151.667Y-63.246
X151.667Y-65.786
X151.667Y-68.326
X151.667Y-70.866
X151.667Y-73.406
X151.667Y-75.946
X151.667Y-78.486
X151.667Y-81.026
X151.667Y-83.566
X151.667Y-86.106
X151.667Y-88.646
X154.189Y-94.056
X154.189Y-96.596
X154.189Y-99.136
X154.189Y-101.676
X154.189Y-104.216
X154.189Y-106.756
X154.189Y-109.296
X154.189Y-111.836
X154.189Y-114.376
X154.189Y-116.916
X154.189Y-119.456
X154.189Y-121.996
X154.189Y-124.536
X154.189Y-127.076
X154.189Y-129.616
X154.189Y-132.156
X154.189Y-134.696
X154.189Y-137.236
X154.207Y-45.466
X154.207Y-48.006
X154.207Y-50.546
X154.207Y-53.086
X154.207Y-55.626
X154.207Y-58.166
X154.207Y-60.706
X154.207Y-63.246
X154.207Y-65.786
X154.207Y-68.326
X154.207Y-70.866
X154.207Y-73.406
X154.207Y-75.946
X154.207Y-78.486
X154.207Y-81.026
X154.207Y-83.566
X154.207Y-86.106
X154.207Y-88.646
X156.729Y-94.056
X156.729Y-96.596
X156.729Y-99.136
X156.729Y-101.676
X156.729Y-104.216
X156.729Y-106.756
X156.729Y-109.296
X156.729Y-111.836
X156.729Y-114.376
X156.729Y-116.916
X156.729Y-119.456
X156.729Y-121.996
X156.729Y-124.536
X156.729Y-127.076
X156.729Y-129.616
X156.729Y-132.156
X156.729Y-134.696
X156.729Y-137.236
X156.747Y-45.466
X156.747Y-48.006
X156.747Y-50.546
X156.747Y-53.086
X156.747Y-55.626
X156.747Y-58.166
X156.747Y-60.706
X156.747Y-63.246
X156.747Y-65.786
X156.747Y-68.326
X156.747Y-70.866
X156.747Y-73.406
X156.747Y-75.946
X156.747Y-78.486
X156.747Y-81.026
X156.747Y-83.566
X156.747Y-86.106
X156.747Y-88.646
X160.328Y-97.866
X160.328Y-100.406
X160.328Y-102.946
X160.328Y-105.486
X160.328Y-108.026
X160.328Y-110.566
X160.346Y-49.276
X160.346Y-51.816
X160.346Y-54.356
X160.346Y-56.896
X160.346Y-59.436
X160.346Y-61.976
T0
M30
