M48
; DRILL file {KiCad 5.1.9} date Thu Apr  8 00:50:48 2021
; FORMAT={-:-/ absolute / inch / decimal}
; #@! TF.CreationDate,2021-04-08T00:50:48+02:00
; #@! TF.GenerationSoftware,Kicad,Pcbnew,5.1.9
; #@! TF.FileFunction,Plated,1,2,PTH
FMAT,2
INCH
T1C0.0157
T2C0.0236
T3C0.0240
T4C0.0394
T5C0.0591
%
G90
G05
T1
X4.8892Y-4.7008
X4.897Y-4.303
X5.7508Y-4.3092
X6.3Y-5.05
X6.48Y-4.44
X6.48Y-4.62
X6.66Y-5.05
T2
X5.0202Y-2.74
X5.1461Y-3.065
X5.1501Y-3.211
X5.1693Y-2.4281
X5.2461Y-2.815
X5.2933Y-4.9626
X5.2961Y-2.99
X5.3081Y-3.2105
X5.31Y-4.815
X5.3159Y-4.9055
X5.3435Y-4.8691
X5.3461Y-2.79
X5.4831Y-2.82
T3
X5.2626Y-2.3397
T4
X6.33Y-5.24
X6.43Y-5.24
X6.4311Y-3.8531
X6.4311Y-3.9531
X6.4311Y-4.0531
T5
X4.4704Y-3.703
X4.4704Y-3.803
X4.4704Y-3.903
X4.4704Y-4.003
X4.4704Y-4.103
X4.4704Y-4.203
X4.4704Y-4.303
X4.4704Y-4.403
X4.4704Y-4.503
X4.4704Y-4.603
X4.4704Y-4.703
X4.4704Y-4.803
X4.4704Y-4.903
X4.4704Y-5.003
X4.4704Y-5.103
X4.4704Y-5.203
X4.4704Y-5.303
X4.4711Y-1.79
X4.4711Y-1.89
X4.4711Y-1.99
X4.4711Y-2.09
X4.4711Y-2.19
X4.4711Y-2.29
X4.4711Y-2.39
X4.4711Y-2.49
X4.4711Y-2.59
X4.4711Y-2.69
X4.4711Y-2.79
X4.4711Y-2.89
X4.4711Y-2.99
X4.4711Y-3.09
X4.4711Y-3.19
X4.4711Y-3.29
X4.4711Y-3.39
X4.5704Y-3.703
X4.5704Y-3.803
X4.5704Y-3.903
X4.5704Y-4.003
X4.5704Y-4.103
X4.5704Y-4.203
X4.5704Y-4.303
X4.5704Y-4.403
X4.5704Y-4.503
X4.5704Y-4.603
X4.5704Y-4.703
X4.5704Y-4.803
X4.5704Y-4.903
X4.5704Y-5.003
X4.5704Y-5.103
X4.5704Y-5.203
X4.5704Y-5.303
X4.5704Y-5.403
X4.5711Y-1.79
X4.5711Y-1.89
X4.5711Y-1.99
X4.5711Y-2.09
X4.5711Y-2.19
X4.5711Y-2.29
X4.5711Y-2.39
X4.5711Y-2.49
X4.5711Y-2.59
X4.5711Y-2.69
X4.5711Y-2.79
X4.5711Y-2.89
X4.5711Y-2.99
X4.5711Y-3.09
X4.5711Y-3.19
X4.5711Y-3.29
X4.5711Y-3.39
X4.5711Y-3.49
X4.6704Y-3.703
X4.6704Y-3.803
X4.6704Y-3.903
X4.6704Y-4.003
X4.6704Y-4.103
X4.6704Y-4.203
X4.6704Y-4.303
X4.6704Y-4.403
X4.6704Y-4.503
X4.6704Y-4.603
X4.6704Y-4.703
X4.6704Y-4.803
X4.6704Y-4.903
X4.6704Y-5.003
X4.6704Y-5.103
X4.6704Y-5.203
X4.6704Y-5.303
X4.6704Y-5.403
X4.6711Y-1.79
X4.6711Y-1.89
X4.6711Y-1.99
X4.6711Y-2.09
X4.6711Y-2.19
X4.6711Y-2.29
X4.6711Y-2.39
X4.6711Y-2.49
X4.6711Y-2.59
X4.6711Y-2.69
X4.6711Y-2.79
X4.6711Y-2.89
X4.6711Y-2.99
X4.6711Y-3.09
X4.6711Y-3.19
X4.6711Y-3.29
X4.6711Y-3.39
X4.6711Y-3.49
X4.7704Y-3.703
X4.7704Y-3.803
X4.7704Y-3.903
X4.7704Y-4.103
X4.7704Y-4.203
X4.7704Y-4.303
X4.7704Y-4.403
X4.7704Y-4.503
X4.7704Y-4.703
X4.7704Y-5.003
X4.7704Y-5.103
X4.7704Y-5.203
X4.7704Y-5.303
X4.7704Y-5.403
X4.7711Y-1.79
X4.7711Y-1.89
X4.7711Y-1.99
X4.7711Y-3.29
X4.7711Y-3.39
X4.7711Y-3.49
X4.8704Y-3.703
X4.8704Y-3.803
X4.8704Y-3.903
X4.8704Y-5.103
X4.8704Y-5.203
X4.8704Y-5.303
X4.8704Y-5.403
X4.8711Y-1.79
X4.8711Y-1.89
X4.8711Y-1.99
X4.8711Y-3.29
X4.8711Y-3.39
X4.8711Y-3.49
X4.9704Y-3.703
X4.9704Y-3.803
X4.9704Y-3.903
X4.9704Y-5.103
X4.9704Y-5.203
X4.9704Y-5.303
X4.9704Y-5.403
X4.9711Y-1.79
X4.9711Y-1.89
X4.9711Y-1.99
X4.9711Y-3.29
X4.9711Y-3.39
X4.9711Y-3.49
X5.0704Y-3.703
X5.0704Y-3.803
X5.0704Y-3.903
X5.0704Y-5.103
X5.0704Y-5.303
X5.0704Y-5.403
X5.0711Y-1.79
X5.0711Y-1.89
X5.0711Y-1.99
X5.0711Y-3.29
X5.0711Y-3.39
X5.0711Y-3.49
X5.1704Y-3.703
X5.1704Y-3.803
X5.1704Y-3.903
X5.1704Y-4.003
X5.1704Y-5.103
X5.1704Y-5.203
X5.1704Y-5.303
X5.1704Y-5.403
X5.1711Y-1.79
X5.1711Y-1.89
X5.1711Y-1.99
X5.1711Y-3.29
X5.1711Y-3.39
X5.1711Y-3.49
X5.2704Y-3.703
X5.2704Y-3.803
X5.2704Y-3.903
X5.2704Y-5.103
X5.2704Y-5.203
X5.2704Y-5.303
X5.2711Y-1.79
X5.2711Y-1.89
X5.2711Y-1.99
X5.2711Y-3.29
X5.2711Y-3.39
X5.2711Y-3.49
X5.3704Y-3.703
X5.3704Y-3.803
X5.3704Y-3.903
X5.3704Y-4.003
X5.3704Y-5.103
X5.3704Y-5.303
X5.3704Y-5.403
X5.3711Y-1.79
X5.3711Y-1.89
X5.3711Y-1.99
X5.3711Y-3.29
X5.3711Y-3.39
X5.3711Y-3.49
X5.4704Y-3.703
X5.4704Y-3.803
X5.4704Y-3.903
X5.4704Y-5.003
X5.4704Y-5.103
X5.4704Y-5.203
X5.4704Y-5.303
X5.4704Y-5.403
X5.4711Y-1.79
X5.4711Y-1.89
X5.4711Y-1.99
X5.4711Y-3.09
X5.4711Y-3.29
X5.4711Y-3.39
X5.4711Y-3.49
X5.5704Y-3.703
X5.5704Y-3.803
X5.5704Y-3.903
X5.5704Y-4.003
X5.5704Y-5.003
X5.5704Y-5.103
X5.5704Y-5.203
X5.5711Y-1.79
X5.5711Y-1.89
X5.5711Y-1.99
X5.5711Y-3.09
X5.5711Y-3.29
X5.5711Y-3.39
X5.5711Y-3.49
X5.6704Y-3.703
X5.6704Y-3.803
X5.6704Y-3.903
X5.6704Y-5.003
X5.6704Y-5.103
X5.6704Y-5.203
X5.6704Y-5.303
X5.6704Y-5.403
X5.6711Y-1.79
X5.6711Y-1.89
X5.6711Y-1.99
X5.6711Y-3.09
X5.6711Y-3.29
X5.6711Y-3.39
X5.6711Y-3.49
X5.7704Y-3.703
X5.7704Y-3.803
X5.7704Y-3.903
X5.7704Y-5.003
X5.7704Y-5.103
X5.7704Y-5.203
X5.7704Y-5.303
X5.7704Y-5.403
X5.7711Y-1.79
X5.7711Y-1.89
X5.7711Y-1.99
X5.7711Y-3.09
X5.7711Y-3.29
X5.7711Y-3.39
X5.7711Y-3.49
X5.8704Y-3.703
X5.8704Y-3.803
X5.8704Y-3.903
X5.8704Y-4.003
X5.8704Y-4.103
X5.8704Y-4.203
X5.8704Y-4.303
X5.8704Y-4.403
X5.8704Y-4.503
X5.8704Y-4.603
X5.8704Y-4.703
X5.8704Y-4.803
X5.8704Y-4.903
X5.8704Y-5.003
X5.8704Y-5.103
X5.8704Y-5.203
X5.8704Y-5.303
X5.8704Y-5.403
X5.8711Y-1.79
X5.8711Y-1.89
X5.8711Y-1.99
X5.8711Y-3.29
X5.8711Y-3.39
X5.8711Y-3.49
X5.9704Y-3.703
X5.9704Y-3.803
X5.9704Y-3.903
X5.9704Y-4.003
X5.9704Y-4.103
X5.9704Y-4.203
X5.9704Y-4.303
X5.9704Y-4.403
X5.9704Y-4.503
X5.9704Y-4.603
X5.9704Y-4.703
X5.9704Y-4.803
X5.9704Y-4.903
X5.9704Y-5.003
X5.9704Y-5.203
X5.9704Y-5.303
X5.9704Y-5.403
X5.9711Y-1.79
X5.9711Y-1.89
X5.9711Y-1.99
X5.9711Y-2.09
X5.9711Y-2.19
X5.9711Y-2.29
X5.9711Y-2.39
X5.9711Y-2.49
X5.9711Y-2.59
X5.9711Y-2.69
X5.9711Y-2.79
X5.9711Y-2.89
X5.9711Y-2.99
X5.9711Y-3.09
X5.9711Y-3.19
X5.9711Y-3.29
X5.9711Y-3.39
X5.9711Y-3.49
X6.0704Y-3.703
X6.0704Y-3.803
X6.0704Y-3.903
X6.0704Y-4.003
X6.0704Y-4.103
X6.0704Y-4.203
X6.0704Y-4.303
X6.0704Y-4.403
X6.0704Y-4.503
X6.0704Y-4.603
X6.0704Y-4.703
X6.0704Y-4.803
X6.0704Y-4.903
X6.0704Y-5.003
X6.0704Y-5.103
X6.0704Y-5.203
X6.0704Y-5.303
X6.0704Y-5.403
X6.0711Y-1.79
X6.0711Y-1.89
X6.0711Y-1.99
X6.0711Y-2.09
X6.0711Y-2.19
X6.0711Y-2.29
X6.0711Y-2.39
X6.0711Y-2.49
X6.0711Y-2.59
X6.0711Y-2.69
X6.0711Y-2.79
X6.0711Y-2.89
X6.0711Y-2.99
X6.0711Y-3.09
X6.0711Y-3.19
X6.0711Y-3.29
X6.0711Y-3.39
X6.0711Y-3.49
X6.1704Y-3.703
X6.1704Y-3.803
X6.1704Y-3.903
X6.1704Y-4.003
X6.1704Y-4.103
X6.1704Y-4.203
X6.1704Y-4.303
X6.1704Y-4.403
X6.1704Y-4.503
X6.1704Y-4.603
X6.1704Y-4.703
X6.1704Y-4.803
X6.1704Y-4.903
X6.1704Y-5.003
X6.1704Y-5.103
X6.1704Y-5.203
X6.1704Y-5.303
X6.1704Y-5.403
X6.1711Y-1.79
X6.1711Y-1.89
X6.1711Y-1.99
X6.1711Y-2.09
X6.1711Y-2.19
X6.1711Y-2.29
X6.1711Y-2.39
X6.1711Y-2.49
X6.1711Y-2.59
X6.1711Y-2.69
X6.1711Y-2.79
X6.1711Y-2.89
X6.1711Y-2.99
X6.1711Y-3.09
X6.1711Y-3.19
X6.1711Y-3.29
X6.1711Y-3.39
X6.1711Y-3.49
X6.3121Y-3.853
X6.3121Y-3.953
X6.3121Y-4.053
X6.3121Y-4.153
X6.3121Y-4.253
X6.3121Y-4.353
X6.3128Y-1.94
X6.3128Y-2.04
X6.3128Y-2.14
X6.3128Y-2.24
X6.3128Y-2.34
X6.3128Y-2.44
T0
M30
